<?xml version="1.0" encoding="UTF-8" standalone="no"?><!DOCTYPE svg PUBLIC "-//W3C//DTD SVG 1.1//EN" "http://www.w3.org/Graphics/SVG/1.1/DTD/svg11.dtd"><svg width="100%" height="100%" viewBox="0 0 340 340" version="1.1" xmlns="http://www.w3.org/2000/svg" xmlns:xlink="http://www.w3.org/1999/xlink" xml:space="preserve" xmlns:serif="http://www.serif.com/" style="fill-rule:evenodd;clip-rule:evenodd;stroke-linecap:round;stroke-linejoin:round;stroke-miterlimit:1.5;"><g><g><g id="ico"><g><g><g id="Symbol"></g></g></g></g></g><g><g id="ico1" serif:id="ico"><g><g><g id="Symbol1" serif:id="Symbol"></g></g><g id="Symbol2" serif:id="Symbol"></g></g></g></g></g><g id="LOGO-STAMP" serif:id="LOGO STAMP"><g><g id="text"><g id="_-cutie-club-キューティー-クラブ-" serif:id="(cutie club キューティー クラブ)" transform="matrix(-0.380146,-0.68896,0.696818,-0.384482,175.709,534.075)"><g transform="matrix(0.554855,0.845622,-0.836086,0.548598,316.615,-393.438)"><text x="525.431px" y="105.156px" style="font-family:'ArialRoundedMTBold', 'Arial Rounded MT Bold', sans-serif;font-size:99.464px;fill:none;">c</text></g><g transform="matrix(0.191033,0.9932,-0.982,0.188879,598.655,-427.118)"><text x="558.456px" y="155.792px" style="font-family:'ArialRoundedMTBold', 'Arial Rounded MT Bold', sans-serif;font-size:99.464px;fill:none;">u</text></g><g transform="matrix(-0.132313,1.00271,-0.991406,-0.130821,851.249,-326.232)"><text x="568.116px" y="215.983px" style="font-family:'ArialRoundedMTBold', 'Arial Rounded MT Bold', sans-serif;font-size:99.464px;fill:none;">t</text></g><g transform="matrix(-0.323252,0.958357,-0.94755,-0.319606,977.538,-209.884)"><text x="563.144px" y="251.435px" style="font-family:'ArialRoundedMTBold', 'Arial Rounded MT Bold', sans-serif;font-size:99.464px;fill:none;">i</text></g><g transform="matrix(-0.574467,0.832423,-0.823036,-0.567989,1099.89,-30.0018)"><text x="556.277px" y="278.437px" style="font-family:'ArialRoundedMTBold', 'Arial Rounded MT Bold', sans-serif;font-size:99.464px;fill:none;">e</text></g><g transform="matrix(-0.918156,0.424182,-0.419398,-0.907802,1104.96,438.209)"><text x="502.133px" y="344.296px" style="font-family:'ArialRoundedMTBold', 'Arial Rounded MT Bold', sans-serif;font-size:99.464px;fill:none;">c</text></g><g transform="matrix(-0.996764,0.171469,-0.169536,-0.985524,958.04,644.791)"><text x="449.196px" y="366.624px" style="font-family:'ArialRoundedMTBold', 'Arial Rounded MT Bold', sans-serif;font-size:99.464px;fill:none;">l</text></g><g transform="matrix(-1.00617,-0.102759,0.1016,-0.994825,809.592,782.164)"><text x="422.149px" y="373.451px" style="font-family:'ArialRoundedMTBold', 'Arial Rounded MT Bold', sans-serif;font-size:99.464px;fill:none;">u</text></g><g transform="matrix(-0.887991,-0.484161,0.478701,-0.877978,508.441,859.261)"><text x="360.884px" y="367.413px" style="font-family:'ArialRoundedMTBold', 'Arial Rounded MT Bold', sans-serif;font-size:99.464px;fill:none;">b</text></g><g transform="matrix(-0.560586,-0.841834,0.832341,-0.554264,176.033,742.657)"><text x="288.003px" y="318.134px" style="font-family:'HiraKakuStdN-W8', 'Hiragino Kaku Gothic StdN', sans-serif;font-weight:800;font-size:41.444px;">キ</text></g><g transform="matrix(-0.318762,-0.95986,0.949036,-0.315167,70.631,629.568)"><text x="264.695px" y="283.03px" style="font-family:'HiraKakuStdN-W8', 'Hiragino Kaku Gothic StdN', sans-serif;font-weight:800;font-size:41.444px;">ュ</text></g><g transform="matrix(-0.0486157,-1.01024,0.998844,-0.0480675,10.7349,509.241)"><text x="251.532px" y="242.958px" style="font-family:'HiraKakuStdN-W8', 'Hiragino Kaku Gothic StdN', sans-serif;font-weight:800;font-size:41.444px;">ー</text></g><g transform="matrix(0.221593,-0.986832,0.975704,0.219094,-11.8618,400.902)"><text x="249.572px" y="200.903px" style="font-family:'HiraKakuStdN-W8', 'Hiragino Kaku Gothic StdN', sans-serif;font-weight:800;font-size:41.444px;">テ</text></g><g transform="matrix(0.472249,-0.894383,0.884298,0.466923,-13.7754,312.049)"><text x="259.051px" y="159.819px" style="font-family:'HiraKakuStdN-W8', 'Hiragino Kaku Gothic StdN', sans-serif;font-weight:800;font-size:41.444px;">ィ</text></g><g transform="matrix(0.696042,-0.733802,0.725528,0.688193,-11.7706,235.811)"><text x="278.926px" y="122.718px" style="font-family:'HiraKakuStdN-W8', 'Hiragino Kaku Gothic StdN', sans-serif;font-weight:800;font-size:41.444px;">ー</text></g><g transform="matrix(0.904574,-0.452422,0.44732,0.894374,-11.7068,144.093)"><text x="319.377px" y="83.942px" style="font-family:'HiraKakuStdN-W8', 'Hiragino Kaku Gothic StdN', sans-serif;font-weight:800;font-size:41.444px;">ク</text></g><g transform="matrix(0.9928,-0.193102,0.190924,0.981605,-11.8481,60.012)"><text x="357.239px" y="65.167px" style="font-family:'HiraKakuStdN-W8', 'Hiragino Kaku Gothic StdN', sans-serif;font-weight:800;font-size:41.444px;">ラ</text></g><g transform="matrix(1.00855,0.0759833,-0.0751264,0.997174,1.652,-40.4574)"><text x="398.599px" y="56.977px" style="font-family:'HiraKakuStdN-W8', 'Hiragino Kaku Gothic StdN', sans-serif;font-weight:800;font-size:41.444px;">ブ</text></g></g><g><g transform="matrix(-0.68719,0.383337,-0.387709,-0.695028,534.04,162.568)"><g transform="matrix(-0.839233,0.564472,-0.558107,-0.829769,1137.41,313.455)"><text x="517.792px" y="330.574px" style="font-family:'ArialRoundedMTBold', 'Arial Rounded MT Bold', sans-serif;font-size:82.887px;">c</text></g><g transform="matrix(-0.973668,0.273699,-0.270612,-0.962688,1036.94,574.318)"><text x="476.09px" y="358.501px" style="font-family:'ArialRoundedMTBold', 'Arial Rounded MT Bold', sans-serif;font-size:82.887px;">u</text></g><g transform="matrix(-1.01132,0.0134783,-0.0133263,-0.999911,863.587,737.247)"><text x="426.899px" y="370.999px" style="font-family:'ArialRoundedMTBold', 'Arial Rounded MT Bold', sans-serif;font-size:82.887px;">t</text></g><g transform="matrix(-1.0014,-0.141921,0.14032,-0.990106,742.609,796.146)"><text x="397.144px" y="371.215px" style="font-family:'ArialRoundedMTBold', 'Arial Rounded MT Bold', sans-serif;font-size:82.887px;">i</text></g><g transform="matrix(-0.943606,-0.364072,0.359966,-0.932965,593.9,851.338)"><text x="374.183px" y="369.454px" style="font-family:'ArialRoundedMTBold', 'Arial Rounded MT Bold', sans-serif;font-size:82.887px;">e</text></g><g transform="matrix(-0.694948,-0.734839,0.726552,-0.687111,277.838,800.863)"><text x="309.821px" y="339.327px" style="font-family:'ArialRoundedMTBold', 'Arial Rounded MT Bold', sans-serif;font-size:82.887px;">c</text></g><g transform="matrix(-0.518535,-0.868367,0.858575,-0.512688,160.456,701.439)"><text x="277.999px" y="303.766px" style="font-family:'ArialRoundedMTBold', 'Arial Rounded MT Bold', sans-serif;font-size:82.887px;">l</text></g><g transform="matrix(-0.300705,-0.965669,0.95478,-0.297314,71.583,625.365)"><text x="264.787px" y="284.712px" style="font-family:'ArialRoundedMTBold', 'Arial Rounded MT Bold', sans-serif;font-size:82.887px;">u</text></g><g transform="matrix(0.0372835,-1.01072,0.99932,0.0368631,3.33598,479.354)"><text x="249.464px" y="235.952px" style="font-family:'ArialRoundedMTBold', 'Arial Rounded MT Bold', sans-serif;font-size:82.887px;">b</text></g></g></g></g><g id="blips"><g><g id="Symbol3" serif:id="Symbol"><path id="Ellipse" d="M14.002,169.986c0,-4.841 3.931,-8.771 8.771,-8.771c4.841,0 8.771,3.93 8.771,8.771c0,4.84 -3.93,8.77 -8.771,8.77c-4.84,0 -8.771,-3.93 -8.771,-8.77Z" style="stroke:#000;stroke-width:9px;"/><path id="Triangle" d="M41.099,169.986l-14.082,7.634l0,-15.269l14.082,7.635Z" style="stroke:#000;stroke-width:9px;"/></g><g id="Symbol4" serif:id="Symbol"><path id="Ellipse1" serif:id="Ellipse" d="M325.959,169.986c0,-4.841 -3.93,-8.771 -8.771,-8.771c-4.841,0 -8.771,3.93 -8.771,8.771c0,4.84 3.93,8.77 8.771,8.77c4.841,0 8.771,-3.93 8.771,-8.77Z" style="stroke:#000;stroke-width:9px;"/><path id="Triangle1" serif:id="Triangle" d="M298.862,169.986l14.082,7.634l0,-15.269l-14.082,7.635Z" style="stroke:#000;stroke-width:9px;"/></g></g></g><path id="rubber-ring" serif:id="rubber ring" d="M170.327,62.747l0.347,0.001l0.346,0.003l0.346,0.004l0.345,0.005l0.346,0.006l0.345,0.007l0.345,0.008l0.344,0.01l0.345,0.01l0.344,0.011l0.343,0.013l0.344,0.014l0.343,0.014l0.343,0.016l0.343,0.017l0.342,0.018l0.342,0.019l0.342,0.02l0.341,0.021l0.342,0.022l0.341,0.023l0.34,0.025l0.341,0.025l0.34,0.027l0.339,0.027l0.34,0.029l0.339,0.029l0.339,0.031l0.338,0.032l0.339,0.033l0.338,0.033l0.337,0.035l0.338,0.036l0.337,0.037l0.336,0.038l0.337,0.039l0.336,0.04l0.336,0.041l0.335,0.043l0.335,0.043l0.335,0.044l0.334,0.045l0.335,0.046l0.333,0.048l0.334,0.048l0.333,0.049l0.333,0.051l0.332,0.051l0.333,0.053l0.331,0.053l0.332,0.055l0.331,0.055l0.331,0.056l0.33,0.058l0.33,0.058l0.33,0.06l0.33,0.06l0.329,0.062l0.328,0.063l0.329,0.063l0.328,0.065l0.327,0.065l0.328,0.067l0.327,0.067l0.326,0.069l0.326,0.069l0.326,0.071l0.326,0.071l0.325,0.072l0.324,0.074l0.325,0.074l0.324,0.076l0.323,0.076l0.324,0.077l0.323,0.079l0.322,0.079l0.322,0.08l0.322,0.082l0.321,0.082l0.321,0.083l0.321,0.084l0.32,0.085l0.32,0.086l0.319,0.087l0.319,0.088l0.318,0.089l0.319,0.09l0.317,0.091l0.318,0.092l0.317,0.093l0.316,0.094l0.317,0.094l0.315,0.096l0.316,0.096l0.315,0.098l0.314,0.098l0.314,0.1l0.314,0.1l0.313,0.101l0.313,0.103l0.312,0.103l0.312,0.104l0.312,0.105l0.311,0.106l0.311,0.106l0.31,0.108l0.31,0.109l0.309,0.11l0.309,0.11l0.309,0.112l0.308,0.112l0.308,0.113l0.307,0.114l0.307,0.116l0.306,0.116l0.306,0.117l0.306,0.117l0.305,0.119l0.304,0.12l0.304,0.12l0.304,0.122l0.303,0.122l0.303,0.123l0.302,0.124l0.302,0.125l0.301,0.126l0.301,0.127l0.301,0.128l0.3,0.129l0.299,0.129l0.299,0.13l0.299,0.132l0.298,0.132l0.297,0.133l0.297,0.134l0.297,0.134l0.296,0.136l0.296,0.136l0.295,0.138l0.295,0.138l0.294,0.139l0.294,0.14l0.293,0.141l0.293,0.142l0.292,0.142l0.292,0.144l0.291,0.144l0.291,0.145l0.29,0.146l0.29,0.147l0.289,0.148l0.289,0.148l0.288,0.149l0.288,0.151l0.287,0.151l0.287,0.152l0.286,0.152l0.285,0.154l0.286,0.154l0.284,0.156l0.284,0.156l0.284,0.157l0.283,0.158l0.283,0.158l0.282,0.16l0.281,0.16l0.281,0.161l0.281,0.162l0.279,0.162l0.28,0.164l0.279,0.164l0.278,0.165l0.278,0.166l0.277,0.167l0.276,0.168l0.277,0.168l0.275,0.17l0.275,0.17l0.275,0.17l0.274,0.172l0.273,0.172l0.273,0.174l0.272,0.174l0.272,0.175l0.271,0.175l0.27,0.177l0.27,0.177l0.27,0.178l0.269,0.179l0.268,0.179l0.268,0.18l0.267,0.182l0.266,0.182l0.266,0.182l0.266,0.184l0.265,0.184l0.264,0.185l0.264,0.186l0.263,0.186l0.262,0.188l0.262,0.188l0.262,0.189l0.26,0.189l0.261,0.191l0.259,0.191l0.259,0.192l0.259,0.193l0.257,0.193l0.258,0.194l0.256,0.195l0.256,0.196l0.255,0.196l0.255,0.198l0.254,0.197l0.254,0.199l0.253,0.2l0.252,0.2l0.252,0.201l0.251,0.201l0.251,0.203l0.249,0.203l0.25,0.204l0.248,0.204l0.248,0.206l0.248,0.206l0.246,0.206l0.247,0.208l0.245,0.208l0.245,0.209l0.244,0.21l0.244,0.21l0.243,0.211l0.242,0.212l0.242,0.213l0.241,0.213l0.24,0.214l0.24,0.215l0.239,0.215l0.238,0.216l0.238,0.217l0.237,0.217l0.237,0.218l0.235,0.219l0.236,0.22l0.234,0.22l0.234,0.221l0.233,0.222l0.233,0.222l0.231,0.223l0.232,0.224l0.23,0.224l0.23,0.225l0.229,0.226l0.229,0.227l0.227,0.227l0.228,0.228l0.226,0.228l0.226,0.229l0.225,0.23l0.224,0.231l0.224,0.231l0.223,0.232l0.222,0.232l0.222,0.233l0.221,0.234l0.22,0.235l0.22,0.235l0.219,0.236l0.218,0.236l0.217,0.237l0.217,0.238l0.216,0.238l0.216,0.24l0.214,0.239l0.214,0.241l0.214,0.241l0.212,0.241l0.212,0.243l0.211,0.243l0.21,0.243l0.21,0.244l0.209,0.245l0.208,0.246l0.208,0.246l0.206,0.247l0.207,0.247l0.205,0.248l0.204,0.248l0.204,0.25l0.203,0.25l0.203,0.25l0.201,0.251l0.201,0.252l0.201,0.252l0.199,0.253l0.199,0.254l0.198,0.254l0.197,0.255l0.196,0.255l0.196,0.256l0.195,0.257l0.194,0.257l0.194,0.258l0.192,0.258l0.192,0.259l0.191,0.26l0.191,0.26l0.189,0.261l0.189,0.261l0.188,0.262l0.188,0.262l0.186,0.263l0.186,0.264l0.185,0.264l0.184,0.265l0.184,0.266l0.183,0.266l0.182,0.266l0.181,0.267l0.18,0.268l0.18,0.269l0.178,0.268l0.178,0.27l0.178,0.27l0.176,0.27l0.176,0.272l0.174,0.271l0.174,0.272l0.174,0.273l0.172,0.274l0.172,0.274l0.171,0.274l0.17,0.275l0.169,0.276l0.168,0.276l0.168,0.276l0.167,0.278l0.166,0.277l0.165,0.279l0.164,0.278l0.164,0.28l0.162,0.28l0.162,0.28l0.161,0.281l0.161,0.282l0.159,0.282l0.159,0.282l0.157,0.283l0.157,0.284l0.156,0.284l0.156,0.285l0.154,0.285l0.154,0.285l0.153,0.287l0.151,0.286l0.151,0.287l0.151,0.288l0.149,0.288l0.149,0.289l0.147,0.289l0.147,0.29l0.146,0.29l0.145,0.291l0.145,0.291l0.143,0.292l0.143,0.292l0.141,0.293l0.141,0.293l0.14,0.294l0.139,0.294l0.138,0.295l0.138,0.295l0.136,0.296l0.136,0.296l0.135,0.297l0.133,0.297l0.133,0.297l0.133,0.298l0.131,0.299l0.13,0.299l0.13,0.3l0.128,0.3l0.128,0.3l0.127,0.301l0.126,0.301l0.125,0.302l0.124,0.302l0.123,0.303l0.122,0.303l0.122,0.304l0.12,0.304l0.12,0.305l0.119,0.305l0.118,0.305l0.117,0.306l0.116,0.306l0.115,0.307l0.114,0.307l0.113,0.308l0.113,0.308l0.111,0.309l0.111,0.309l0.109,0.309l0.109,0.31l0.108,0.31l0.107,0.311l0.105,0.311l0.105,0.312l0.104,0.312l0.104,0.312l0.102,0.313l0.101,0.313l0.1,0.314l0.1,0.314l0.098,0.315l0.098,0.315l0.096,0.315l0.096,0.316l0.095,0.316l0.093,0.316l0.093,0.317l0.092,0.318l0.091,0.318l0.09,0.318l0.089,0.318l0.088,0.319l0.087,0.32l0.086,0.319l0.085,0.321l0.084,0.32l0.083,0.321l0.083,0.321l0.081,0.322l0.08,0.322l0.079,0.323l0.079,0.322l0.077,0.324l0.076,0.323l0.076,0.324l0.074,0.325l0.074,0.324l0.072,0.326l0.072,0.325l0.07,0.326l0.07,0.326l0.068,0.327l0.068,0.327l0.066,0.327l0.066,0.327l0.064,0.328l0.064,0.329l0.062,0.329l0.062,0.329l0.06,0.329l0.06,0.33l0.058,0.33l0.058,0.33l0.056,0.331l0.056,0.331l0.054,0.332l0.054,0.332l0.052,0.332l0.051,0.332l0.051,0.333l0.049,0.333l0.048,0.334l0.048,0.334l0.046,0.334l0.045,0.334l0.044,0.335l0.044,0.335l0.042,0.336l0.041,0.335l0.04,0.336l0.039,0.337l0.038,0.337l0.037,0.337l0.036,0.337l0.035,0.338l0.034,0.337l0.032,0.339l0.032,0.338l0.031,0.339l0.029,0.339l0.029,0.34l0.028,0.34l0.026,0.34l0.025,0.34l0.025,0.341l0.023,0.341l0.022,0.341l0.021,0.341l0.02,0.342l0.019,0.342l0.018,0.343l0.017,0.342l0.016,0.343l0.015,0.343l0.013,0.344l0.013,0.344l0.011,0.344l0.011,0.344l0.009,0.344l0.008,0.345l0.007,0.345l0.006,0.346l0.005,0.345l0.004,0.346l0.003,0.347l0.001,0.346l0.001,0.347l-0.001,0.346l-0.001,0.347l-0.003,0.346l-0.004,0.346l-0.005,0.345l-0.006,0.346l-0.007,0.345l-0.008,0.345l-0.009,0.344l-0.011,0.345l-0.011,0.344l-0.013,0.343l-0.013,0.344l-0.015,0.343l-0.016,0.343l-0.017,0.343l-0.018,0.342l-0.019,0.342l-0.02,0.342l-0.021,0.341l-0.022,0.342l-0.023,0.341l-0.025,0.34l-0.025,0.341l-0.026,0.34l-0.028,0.339l-0.029,0.34l-0.029,0.339l-0.031,0.339l-0.032,0.338l-0.032,0.339l-0.034,0.338l-0.035,0.337l-0.036,0.338l-0.037,0.337l-0.038,0.336l-0.039,0.337l-0.04,0.336l-0.041,0.336l-0.042,0.335l-0.044,0.335l-0.044,0.335l-0.045,0.334l-0.046,0.335l-0.048,0.333l-0.048,0.334l-0.049,0.333l-0.051,0.333l-0.051,0.332l-0.052,0.333l-0.054,0.331l-0.054,0.332l-0.056,0.331l-0.056,0.331l-0.058,0.33l-0.058,0.33l-0.06,0.33l-0.06,0.33l-0.062,0.329l-0.062,0.328l-0.064,0.329l-0.064,0.328l-0.066,0.327l-0.066,0.328l-0.068,0.327l-0.068,0.326l-0.07,0.326l-0.07,0.326l-0.072,0.326l-0.072,0.325l-0.074,0.325l-0.074,0.324l-0.076,0.324l-0.076,0.323l-0.077,0.324l-0.079,0.323l-0.079,0.322l-0.08,0.322l-0.081,0.322l-0.083,0.321l-0.083,0.321l-0.084,0.321l-0.085,0.32l-0.086,0.32l-0.087,0.319l-0.088,0.319l-0.089,0.318l-0.09,0.319l-0.091,0.317l-0.092,0.318l-0.093,0.317l-0.093,0.316l-0.095,0.317l-0.096,0.315l-0.096,0.316l-0.098,0.315l-0.098,0.314l-0.1,0.314l-0.1,0.314l-0.101,0.313l-0.102,0.313l-0.104,0.312l-0.104,0.312l-0.105,0.312l-0.105,0.311l-0.107,0.311l-0.108,0.31l-0.109,0.31l-0.109,0.31l-0.111,0.309l-0.111,0.308l-0.113,0.308l-0.113,0.308l-0.114,0.307l-0.115,0.307l-0.116,0.306l-0.117,0.306l-0.118,0.306l-0.119,0.305l-0.12,0.304l-0.12,0.304l-0.122,0.304l-0.122,0.303l-0.123,0.303l-0.124,0.302l-0.125,0.302l-0.126,0.301l-0.127,0.301l-0.128,0.301l-0.128,0.3l-0.13,0.299l-0.13,0.299l-0.131,0.299l-0.133,0.298l-0.133,0.297l-0.133,0.297l-0.135,0.297l-0.136,0.296l-0.136,0.296l-0.138,0.295l-0.138,0.295l-0.139,0.294l-0.14,0.294l-0.141,0.293l-0.141,0.293l-0.143,0.292l-0.143,0.292l-0.145,0.291l-0.145,0.291l-0.146,0.29l-0.147,0.29l-0.147,0.289l-0.149,0.289l-0.149,0.288l-0.151,0.288l-0.151,0.287l-0.151,0.287l-0.153,0.286l-0.154,0.286l-0.154,0.285l-0.156,0.284l-0.156,0.284l-0.157,0.284l-0.157,0.283l-0.159,0.283l-0.159,0.282l-0.161,0.281l-0.161,0.281l-0.162,0.281l-0.162,0.279l-0.164,0.28l-0.164,0.279l-0.165,0.278l-0.166,0.278l-0.167,0.277l-0.168,0.276l-0.168,0.277l-0.169,0.275l-0.17,0.275l-0.171,0.275l-0.172,0.274l-0.172,0.273l-0.174,0.273l-0.174,0.272l-0.174,0.272l-0.176,0.271l-0.176,0.27l-0.178,0.27l-0.178,0.27l-0.178,0.269l-0.18,0.268l-0.18,0.268l-0.181,0.267l-0.182,0.266l-0.183,0.266l-0.184,0.266l-0.184,0.265l-0.185,0.264l-0.186,0.264l-0.186,0.263l-0.188,0.262l-0.188,0.262l-0.189,0.262l-0.189,0.26l-0.191,0.261l-0.191,0.259l-0.192,0.259l-0.192,0.259l-0.194,0.257l-0.194,0.258l-0.195,0.256l-0.196,0.256l-0.196,0.256l-0.197,0.254l-0.198,0.254l-0.199,0.254l-0.199,0.253l-0.201,0.252l-0.201,0.252l-0.201,0.251l-0.203,0.251l-0.203,0.249l-0.204,0.25l-0.204,0.248l-0.205,0.248l-0.207,0.248l-0.206,0.246l-0.208,0.247l-0.208,0.245l-0.209,0.245l-0.21,0.244l-0.21,0.244l-0.211,0.243l-0.212,0.242l-0.212,0.242l-0.214,0.241l-0.214,0.24l-0.214,0.24l-0.216,0.239l-0.216,0.238l-0.217,0.238l-0.217,0.237l-0.218,0.237l-0.219,0.235l-0.22,0.236l-0.22,0.234l-0.221,0.234l-0.222,0.233l-0.222,0.233l-0.223,0.231l-0.224,0.232l-0.224,0.23l-0.225,0.23l-0.226,0.229l-0.226,0.229l-0.228,0.227l-0.227,0.228l-0.229,0.226l-0.229,0.226l-0.23,0.225l-0.23,0.224l-0.232,0.224l-0.231,0.223l-0.233,0.222l-0.233,0.222l-0.234,0.221l-0.234,0.22l-0.236,0.22l-0.235,0.219l-0.237,0.218l-0.237,0.217l-0.238,0.217l-0.238,0.216l-0.239,0.216l-0.24,0.214l-0.24,0.214l-0.241,0.214l-0.242,0.212l-0.242,0.212l-0.243,0.211l-0.244,0.21l-0.244,0.21l-0.245,0.209l-0.245,0.208l-0.247,0.208l-0.246,0.207l-0.248,0.206l-0.248,0.205l-0.248,0.204l-0.25,0.204l-0.249,0.203l-0.251,0.203l-0.251,0.202l-0.252,0.2l-0.252,0.201l-0.253,0.199l-0.254,0.199l-0.254,0.198l-0.255,0.197l-0.255,0.196l-0.256,0.196l-0.256,0.195l-0.258,0.194l-0.257,0.194l-0.259,0.192l-0.259,0.192l-0.259,0.191l-0.261,0.191l-0.26,0.189l-0.262,0.189l-0.262,0.188l-0.262,0.188l-0.263,0.186l-0.264,0.186l-0.264,0.185l-0.265,0.184l-0.266,0.184l-0.266,0.183l-0.266,0.182l-0.267,0.181l-0.268,0.18l-0.268,0.18l-0.269,0.178l-0.27,0.178l-0.27,0.178l-0.27,0.176l-0.271,0.176l-0.272,0.174l-0.272,0.175l-0.273,0.173l-0.273,0.172l-0.274,0.172l-0.275,0.171l-0.275,0.17l-0.275,0.169l-0.277,0.168l-0.276,0.168l-0.277,0.167l-0.278,0.166l-0.278,0.165l-0.279,0.164l-0.28,0.164l-0.279,0.162l-0.281,0.162l-0.281,0.161l-0.281,0.161l-0.282,0.159l-0.283,0.159l-0.283,0.157l-0.284,0.157l-0.284,0.156l-0.284,0.156l-0.286,0.154l-0.285,0.154l-0.286,0.153l-0.287,0.151l-0.287,0.152l-0.288,0.15l-0.288,0.149l-0.289,0.149l-0.289,0.147l-0.29,0.147l-0.29,0.146l-0.291,0.145l-0.291,0.145l-0.292,0.143l-0.292,0.143l-0.293,0.141l-0.293,0.141l-0.294,0.14l-0.294,0.139l-0.295,0.138l-0.295,0.138l-0.296,0.136l-0.296,0.136l-0.297,0.135l-0.297,0.133l-0.297,0.133l-0.298,0.133l-0.299,0.131l-0.299,0.13l-0.299,0.13l-0.3,0.128l-0.301,0.128l-0.301,0.127l-0.301,0.126l-0.302,0.125l-0.302,0.124l-0.303,0.123l-0.303,0.122l-0.304,0.122l-0.304,0.12l-0.304,0.12l-0.305,0.119l-0.306,0.118l-0.306,0.117l-0.306,0.116l-0.307,0.115l-0.307,0.114l-0.308,0.113l-0.308,0.113l-0.309,0.111l-0.309,0.111l-0.309,0.109l-0.31,0.109l-0.31,0.108l-0.311,0.107l-0.311,0.105l-0.312,0.105l-0.312,0.105l-0.312,0.103l-0.313,0.102l-0.313,0.101l-0.314,0.1l-0.314,0.1l-0.314,0.098l-0.315,0.098l-0.316,0.096l-0.315,0.096l-0.317,0.095l-0.316,0.093l-0.317,0.093l-0.318,0.092l-0.317,0.091l-0.319,0.09l-0.318,0.089l-0.319,0.088l-0.319,0.087l-0.32,0.086l-0.32,0.085l-0.321,0.084l-0.321,0.083l-0.321,0.083l-0.322,0.081l-0.322,0.08l-0.322,0.079l-0.323,0.079l-0.324,0.077l-0.323,0.076l-0.324,0.076l-0.325,0.074l-0.324,0.074l-0.325,0.072l-0.326,0.072l-0.326,0.07l-0.326,0.07l-0.326,0.068l-0.327,0.068l-0.328,0.066l-0.327,0.066l-0.328,0.064l-0.329,0.064l-0.328,0.062l-0.329,0.062l-0.33,0.06l-0.33,0.06l-0.33,0.058l-0.33,0.058l-0.331,0.056l-0.331,0.056l-0.332,0.054l-0.331,0.054l-0.333,0.052l-0.332,0.051l-0.333,0.051l-0.333,0.049l-0.334,0.048l-0.333,0.048l-0.335,0.046l-0.334,0.045l-0.335,0.044l-0.335,0.044l-0.335,0.042l-0.336,0.041l-0.336,0.04l-0.337,0.039l-0.336,0.038l-0.337,0.037l-0.338,0.036l-0.337,0.035l-0.338,0.034l-0.339,0.032l-0.338,0.032l-0.339,0.031l-0.339,0.029l-0.34,0.029l-0.339,0.028l-0.34,0.026l-0.341,0.025l-0.34,0.025l-0.341,0.023l-0.342,0.022l-0.341,0.021l-0.342,0.02l-0.342,0.019l-0.342,0.018l-0.343,0.017l-0.343,0.016l-0.343,0.015l-0.344,0.013l-0.343,0.013l-0.344,0.011l-0.345,0.011l-0.344,0.009l-0.345,0.008l-0.345,0.007l-0.346,0.006l-0.345,0.005l-0.346,0.004l-0.346,0.003l-0.347,0.001l-0.346,0.001l-0.347,-0.001l-0.347,-0.001l-0.346,-0.003l-0.346,-0.004l-0.345,-0.005l-0.346,-0.006l-0.345,-0.007l-0.345,-0.008l-0.344,-0.009l-0.344,-0.011l-0.344,-0.011l-0.344,-0.013l-0.344,-0.013l-0.343,-0.015l-0.343,-0.016l-0.342,-0.017l-0.343,-0.018l-0.342,-0.019l-0.342,-0.02l-0.341,-0.021l-0.341,-0.022l-0.341,-0.023l-0.341,-0.025l-0.34,-0.025l-0.34,-0.026l-0.34,-0.028l-0.34,-0.029l-0.339,-0.029l-0.339,-0.031l-0.338,-0.032l-0.339,-0.032l-0.337,-0.034l-0.338,-0.035l-0.337,-0.036l-0.337,-0.037l-0.337,-0.038l-0.337,-0.039l-0.336,-0.04l-0.335,-0.041l-0.336,-0.042l-0.335,-0.044l-0.335,-0.044l-0.334,-0.045l-0.334,-0.046l-0.334,-0.048l-0.334,-0.048l-0.333,-0.049l-0.333,-0.051l-0.332,-0.051l-0.332,-0.052l-0.332,-0.054l-0.332,-0.054l-0.331,-0.056l-0.331,-0.056l-0.33,-0.058l-0.33,-0.058l-0.33,-0.06l-0.329,-0.06l-0.329,-0.062l-0.329,-0.062l-0.329,-0.064l-0.328,-0.064l-0.327,-0.066l-0.328,-0.066l-0.326,-0.068l-0.327,-0.068l-0.326,-0.07l-0.326,-0.07l-0.326,-0.072l-0.325,-0.072l-0.324,-0.074l-0.325,-0.074l-0.324,-0.076l-0.323,-0.076l-0.324,-0.077l-0.322,-0.079l-0.323,-0.079l-0.322,-0.08l-0.322,-0.081l-0.321,-0.083l-0.321,-0.083l-0.32,-0.084l-0.321,-0.085l-0.319,-0.086l-0.32,-0.087l-0.319,-0.088l-0.318,-0.089l-0.318,-0.09l-0.318,-0.091l-0.318,-0.092l-0.317,-0.093l-0.316,-0.093l-0.316,-0.095l-0.316,-0.096l-0.315,-0.096l-0.315,-0.098l-0.315,-0.098l-0.314,-0.1l-0.314,-0.1l-0.313,-0.101l-0.313,-0.102l-0.312,-0.103l-0.312,-0.105l-0.312,-0.105l-0.311,-0.105l-0.311,-0.107l-0.31,-0.108l-0.31,-0.109l-0.309,-0.109l-0.309,-0.111l-0.309,-0.111l-0.308,-0.113l-0.308,-0.113l-0.307,-0.114l-0.307,-0.115l-0.306,-0.116l-0.306,-0.117l-0.305,-0.118l-0.305,-0.119l-0.305,-0.12l-0.304,-0.12l-0.304,-0.122l-0.303,-0.122l-0.303,-0.123l-0.302,-0.124l-0.302,-0.125l-0.301,-0.126l-0.301,-0.127l-0.301,-0.128l-0.299,-0.128l-0.3,-0.13l-0.299,-0.13l-0.299,-0.131l-0.298,-0.133l-0.297,-0.133l-0.297,-0.133l-0.297,-0.135l-0.296,-0.136l-0.296,-0.136l-0.295,-0.138l-0.295,-0.138l-0.294,-0.139l-0.294,-0.14l-0.293,-0.141l-0.293,-0.141l-0.292,-0.143l-0.292,-0.143l-0.291,-0.145l-0.291,-0.145l-0.29,-0.146l-0.29,-0.147l-0.289,-0.147l-0.289,-0.149l-0.288,-0.149l-0.288,-0.15l-0.287,-0.152l-0.286,-0.151l-0.287,-0.153l-0.285,-0.154l-0.285,-0.154l-0.285,-0.156l-0.284,-0.156l-0.284,-0.157l-0.283,-0.157l-0.282,-0.159l-0.282,-0.159l-0.282,-0.161l-0.281,-0.161l-0.28,-0.162l-0.28,-0.162l-0.28,-0.164l-0.278,-0.164l-0.279,-0.165l-0.277,-0.166l-0.278,-0.167l-0.276,-0.168l-0.276,-0.168l-0.276,-0.169l-0.275,-0.17l-0.274,-0.171l-0.274,-0.172l-0.274,-0.172l-0.273,-0.173l-0.272,-0.175l-0.271,-0.174l-0.272,-0.176l-0.27,-0.176l-0.27,-0.178l-0.27,-0.178l-0.268,-0.178l-0.269,-0.18l-0.268,-0.18l-0.267,-0.181l-0.266,-0.182l-0.266,-0.183l-0.266,-0.184l-0.265,-0.184l-0.264,-0.185l-0.264,-0.186l-0.263,-0.186l-0.262,-0.188l-0.262,-0.188l-0.262,-0.189l-0.26,-0.189l-0.26,-0.191l-0.26,-0.191l-0.259,-0.192l-0.258,-0.192l-0.258,-0.194l-0.257,-0.194l-0.257,-0.195l-0.256,-0.196l-0.255,-0.196l-0.255,-0.197l-0.254,-0.198l-0.254,-0.199l-0.253,-0.199l-0.252,-0.201l-0.252,-0.2l-0.251,-0.202l-0.25,-0.203l-0.25,-0.203l-0.25,-0.204l-0.248,-0.204l-0.248,-0.205l-0.248,-0.206l-0.246,-0.207l-0.246,-0.208l-0.246,-0.208l-0.245,-0.209l-0.244,-0.21l-0.243,-0.21l-0.243,-0.211l-0.243,-0.212l-0.241,-0.212l-0.241,-0.214l-0.241,-0.214l-0.239,-0.214l-0.24,-0.216l-0.238,-0.216l-0.238,-0.217l-0.237,-0.217l-0.236,-0.218l-0.236,-0.219l-0.235,-0.22l-0.235,-0.22l-0.234,-0.221l-0.233,-0.222l-0.232,-0.222l-0.232,-0.223l-0.231,-0.224l-0.231,-0.224l-0.23,-0.225l-0.229,-0.226l-0.228,-0.226l-0.228,-0.228l-0.227,-0.227l-0.227,-0.229l-0.226,-0.229l-0.225,-0.23l-0.224,-0.23l-0.224,-0.232l-0.223,-0.231l-0.222,-0.233l-0.222,-0.233l-0.221,-0.234l-0.22,-0.234l-0.22,-0.236l-0.219,-0.235l-0.218,-0.237l-0.217,-0.237l-0.217,-0.238l-0.216,-0.238l-0.215,-0.239l-0.215,-0.24l-0.214,-0.24l-0.213,-0.241l-0.213,-0.242l-0.212,-0.242l-0.211,-0.243l-0.21,-0.244l-0.21,-0.244l-0.209,-0.245l-0.208,-0.245l-0.208,-0.247l-0.206,-0.246l-0.206,-0.248l-0.206,-0.248l-0.204,-0.248l-0.204,-0.25l-0.203,-0.249l-0.203,-0.251l-0.201,-0.251l-0.201,-0.252l-0.2,-0.252l-0.2,-0.253l-0.199,-0.254l-0.198,-0.254l-0.197,-0.254l-0.196,-0.256l-0.196,-0.256l-0.195,-0.256l-0.194,-0.258l-0.193,-0.257l-0.193,-0.259l-0.192,-0.259l-0.191,-0.259l-0.191,-0.261l-0.189,-0.26l-0.189,-0.262l-0.188,-0.262l-0.188,-0.262l-0.186,-0.263l-0.186,-0.264l-0.185,-0.264l-0.184,-0.265l-0.184,-0.266l-0.182,-0.266l-0.182,-0.266l-0.182,-0.267l-0.18,-0.268l-0.179,-0.268l-0.179,-0.269l-0.178,-0.27l-0.177,-0.27l-0.177,-0.27l-0.175,-0.271l-0.175,-0.272l-0.174,-0.272l-0.174,-0.273l-0.172,-0.273l-0.172,-0.274l-0.17,-0.275l-0.171,-0.275l-0.169,-0.275l-0.168,-0.277l-0.168,-0.276l-0.167,-0.277l-0.166,-0.278l-0.165,-0.278l-0.164,-0.279l-0.164,-0.28l-0.162,-0.279l-0.162,-0.281l-0.161,-0.281l-0.16,-0.281l-0.16,-0.282l-0.159,-0.283l-0.157,-0.283l-0.157,-0.284l-0.156,-0.284l-0.156,-0.284l-0.154,-0.285l-0.154,-0.286l-0.152,-0.286l-0.152,-0.287l-0.151,-0.287l-0.151,-0.288l-0.149,-0.288l-0.148,-0.289l-0.148,-0.289l-0.147,-0.29l-0.146,-0.29l-0.145,-0.291l-0.144,-0.291l-0.144,-0.292l-0.142,-0.292l-0.142,-0.293l-0.141,-0.293l-0.14,-0.294l-0.139,-0.294l-0.138,-0.295l-0.138,-0.295l-0.136,-0.296l-0.136,-0.296l-0.134,-0.297l-0.134,-0.297l-0.133,-0.297l-0.132,-0.298l-0.132,-0.299l-0.13,-0.299l-0.129,-0.299l-0.129,-0.3l-0.128,-0.301l-0.127,-0.301l-0.126,-0.301l-0.125,-0.302l-0.124,-0.302l-0.123,-0.303l-0.122,-0.303l-0.122,-0.304l-0.12,-0.304l-0.12,-0.304l-0.119,-0.305l-0.118,-0.306l-0.116,-0.306l-0.116,-0.306l-0.116,-0.307l-0.114,-0.307l-0.113,-0.308l-0.112,-0.308l-0.112,-0.308l-0.11,-0.309l-0.11,-0.31l-0.109,-0.31l-0.108,-0.31l-0.106,-0.311l-0.106,-0.311l-0.105,-0.312l-0.104,-0.312l-0.103,-0.312l-0.103,-0.313l-0.101,-0.313l-0.1,-0.314l-0.1,-0.314l-0.098,-0.314l-0.098,-0.315l-0.096,-0.316l-0.096,-0.315l-0.094,-0.317l-0.094,-0.316l-0.093,-0.317l-0.092,-0.318l-0.091,-0.317l-0.09,-0.319l-0.089,-0.318l-0.088,-0.319l-0.087,-0.319l-0.086,-0.32l-0.085,-0.32l-0.084,-0.321l-0.083,-0.321l-0.082,-0.321l-0.082,-0.322l-0.08,-0.322l-0.079,-0.322l-0.079,-0.323l-0.077,-0.324l-0.076,-0.323l-0.076,-0.324l-0.074,-0.324l-0.074,-0.325l-0.072,-0.325l-0.071,-0.326l-0.071,-0.326l-0.069,-0.326l-0.069,-0.326l-0.067,-0.327l-0.067,-0.328l-0.065,-0.327l-0.065,-0.328l-0.063,-0.329l-0.063,-0.328l-0.062,-0.329l-0.06,-0.33l-0.06,-0.33l-0.058,-0.33l-0.058,-0.33l-0.056,-0.331l-0.055,-0.331l-0.055,-0.332l-0.053,-0.331l-0.053,-0.333l-0.051,-0.332l-0.051,-0.333l-0.049,-0.333l-0.048,-0.334l-0.048,-0.333l-0.046,-0.335l-0.045,-0.334l-0.044,-0.335l-0.044,-0.335l-0.042,-0.335l-0.041,-0.336l-0.04,-0.336l-0.039,-0.337l-0.038,-0.336l-0.037,-0.337l-0.036,-0.338l-0.035,-0.337l-0.033,-0.338l-0.033,-0.339l-0.032,-0.338l-0.031,-0.339l-0.029,-0.339l-0.029,-0.34l-0.027,-0.339l-0.027,-0.34l-0.025,-0.341l-0.025,-0.34l-0.023,-0.341l-0.022,-0.342l-0.021,-0.341l-0.02,-0.342l-0.019,-0.342l-0.018,-0.342l-0.017,-0.343l-0.016,-0.343l-0.014,-0.343l-0.014,-0.344l-0.013,-0.343l-0.011,-0.344l-0.01,-0.345l-0.01,-0.344l-0.008,-0.345l-0.007,-0.345l-0.006,-0.346l-0.005,-0.345l-0.004,-0.346l-0.003,-0.346l-0.001,-0.347l-0.001,-0.346l0.001,-0.347l0.001,-0.346l0.003,-0.347l0.004,-0.346l0.005,-0.345l0.006,-0.346l0.007,-0.345l0.008,-0.345l0.01,-0.344l0.01,-0.344l0.011,-0.344l0.013,-0.344l0.014,-0.344l0.014,-0.343l0.016,-0.343l0.017,-0.342l0.018,-0.343l0.019,-0.342l0.02,-0.342l0.021,-0.341l0.022,-0.341l0.023,-0.341l0.025,-0.341l0.025,-0.34l0.027,-0.34l0.027,-0.34l0.029,-0.34l0.029,-0.339l0.031,-0.339l0.032,-0.338l0.033,-0.339l0.033,-0.337l0.035,-0.338l0.036,-0.337l0.037,-0.337l0.038,-0.337l0.039,-0.337l0.04,-0.336l0.041,-0.335l0.042,-0.336l0.044,-0.335l0.044,-0.335l0.045,-0.334l0.046,-0.334l0.048,-0.334l0.048,-0.334l0.049,-0.333l0.051,-0.333l0.051,-0.332l0.053,-0.332l0.053,-0.332l0.055,-0.332l0.055,-0.331l0.056,-0.331l0.058,-0.33l0.058,-0.33l0.06,-0.33l0.06,-0.329l0.062,-0.329l0.063,-0.329l0.063,-0.329l0.065,-0.328l0.065,-0.327l0.067,-0.327l0.067,-0.327l0.069,-0.327l0.069,-0.326l0.071,-0.326l0.071,-0.325l0.072,-0.326l0.074,-0.324l0.074,-0.325l0.076,-0.324l0.076,-0.323l0.077,-0.324l0.079,-0.322l0.079,-0.323l0.08,-0.322l0.082,-0.322l0.082,-0.321l0.083,-0.321l0.084,-0.32l0.085,-0.321l0.086,-0.319l0.087,-0.32l0.088,-0.319l0.089,-0.318l0.09,-0.318l0.091,-0.318l0.092,-0.318l0.093,-0.317l0.094,-0.316l0.094,-0.316l0.096,-0.316l0.096,-0.315l0.098,-0.315l0.098,-0.315l0.1,-0.314l0.1,-0.314l0.101,-0.313l0.103,-0.313l0.103,-0.312l0.104,-0.312l0.105,-0.312l0.106,-0.311l0.106,-0.311l0.108,-0.31l0.109,-0.31l0.11,-0.309l0.11,-0.309l0.112,-0.309l0.112,-0.308l0.113,-0.308l0.114,-0.307l0.116,-0.307l0.116,-0.306l0.116,-0.306l0.118,-0.305l0.119,-0.305l0.12,-0.305l0.12,-0.304l0.122,-0.304l0.122,-0.303l0.123,-0.303l0.124,-0.302l0.125,-0.302l0.126,-0.301l0.127,-0.301l0.128,-0.3l0.129,-0.3l0.129,-0.3l0.13,-0.299l0.132,-0.299l0.132,-0.298l0.133,-0.297l0.134,-0.297l0.134,-0.297l0.136,-0.296l0.136,-0.296l0.138,-0.295l0.138,-0.295l0.139,-0.294l0.14,-0.294l0.141,-0.293l0.142,-0.293l0.142,-0.292l0.144,-0.292l0.144,-0.291l0.145,-0.291l0.146,-0.29l0.147,-0.29l0.148,-0.289l0.148,-0.289l0.149,-0.288l0.151,-0.288l0.151,-0.287l0.152,-0.286l0.152,-0.287l0.154,-0.285l0.154,-0.285l0.156,-0.285l0.156,-0.284l0.157,-0.284l0.157,-0.283l0.159,-0.282l0.16,-0.282l0.16,-0.282l0.161,-0.281l0.162,-0.28l0.162,-0.28l0.164,-0.28l0.164,-0.278l0.165,-0.279l0.166,-0.277l0.167,-0.278l0.168,-0.276l0.168,-0.276l0.169,-0.276l0.171,-0.275l0.17,-0.274l0.172,-0.274l0.172,-0.274l0.174,-0.273l0.174,-0.272l0.175,-0.271l0.175,-0.272l0.177,-0.27l0.177,-0.27l0.178,-0.27l0.179,-0.268l0.179,-0.269l0.18,-0.268l0.182,-0.267l0.182,-0.266l0.182,-0.266l0.184,-0.266l0.184,-0.265l0.185,-0.264l0.186,-0.264l0.186,-0.263l0.188,-0.262l0.188,-0.262l0.189,-0.261l0.189,-0.261l0.191,-0.26l0.191,-0.26l0.192,-0.259l0.193,-0.258l0.193,-0.258l0.194,-0.257l0.195,-0.257l0.196,-0.256l0.196,-0.255l0.197,-0.255l0.198,-0.254l0.199,-0.254l0.2,-0.253l0.2,-0.252l0.201,-0.252l0.201,-0.251l0.203,-0.25l0.203,-0.25l0.204,-0.25l0.204,-0.248l0.206,-0.248l0.206,-0.247l0.206,-0.247l0.208,-0.246l0.208,-0.246l0.209,-0.245l0.21,-0.244l0.21,-0.243l0.211,-0.243l0.212,-0.243l0.213,-0.241l0.213,-0.241l0.214,-0.241l0.215,-0.239l0.215,-0.24l0.216,-0.238l0.217,-0.238l0.217,-0.237l0.218,-0.236l0.219,-0.236l0.22,-0.235l0.22,-0.235l0.221,-0.234l0.222,-0.233l0.222,-0.232l0.223,-0.232l0.224,-0.231l0.224,-0.231l0.225,-0.23l0.226,-0.229l0.227,-0.228l0.227,-0.228l0.228,-0.227l0.228,-0.227l0.229,-0.226l0.23,-0.225l0.231,-0.224l0.231,-0.224l0.232,-0.223l0.232,-0.222l0.233,-0.222l0.234,-0.221l0.235,-0.22l0.235,-0.22l0.236,-0.219l0.236,-0.218l0.237,-0.217l0.238,-0.217l0.238,-0.216l0.24,-0.215l0.239,-0.215l0.241,-0.214l0.241,-0.213l0.241,-0.213l0.243,-0.212l0.243,-0.211l0.243,-0.21l0.244,-0.21l0.245,-0.209l0.246,-0.208l0.246,-0.208l0.246,-0.206l0.248,-0.206l0.248,-0.206l0.248,-0.204l0.25,-0.204l0.25,-0.203l0.25,-0.203l0.251,-0.201l0.252,-0.201l0.252,-0.2l0.253,-0.2l0.254,-0.199l0.254,-0.197l0.255,-0.198l0.255,-0.196l0.256,-0.196l0.257,-0.195l0.257,-0.194l0.258,-0.193l0.258,-0.193l0.259,-0.192l0.26,-0.191l0.26,-0.191l0.26,-0.189l0.262,-0.189l0.262,-0.188l0.262,-0.188l0.263,-0.186l0.264,-0.186l0.264,-0.185l0.265,-0.184l0.266,-0.184l0.266,-0.182l0.266,-0.182l0.267,-0.182l0.268,-0.18l0.269,-0.179l0.268,-0.179l0.27,-0.178l0.27,-0.177l0.27,-0.177l0.272,-0.175l0.271,-0.175l0.272,-0.174l0.273,-0.174l0.274,-0.172l0.274,-0.172l0.274,-0.17l0.275,-0.17l0.276,-0.17l0.276,-0.168l0.276,-0.168l0.278,-0.167l0.277,-0.166l0.279,-0.165l0.278,-0.164l0.28,-0.164l0.28,-0.162l0.28,-0.162l0.281,-0.161l0.282,-0.16l0.282,-0.16l0.282,-0.158l0.283,-0.158l0.284,-0.157l0.284,-0.156l0.285,-0.156l0.285,-0.154l0.285,-0.154l0.287,-0.152l0.286,-0.152l0.287,-0.151l0.288,-0.151l0.288,-0.149l0.289,-0.148l0.289,-0.148l0.29,-0.147l0.29,-0.146l0.291,-0.145l0.291,-0.144l0.292,-0.144l0.292,-0.142l0.293,-0.142l0.293,-0.141l0.294,-0.14l0.294,-0.139l0.295,-0.138l0.295,-0.138l0.296,-0.136l0.296,-0.136l0.297,-0.134l0.297,-0.134l0.297,-0.133l0.298,-0.132l0.299,-0.132l0.299,-0.13l0.3,-0.129l0.299,-0.129l0.301,-0.128l0.301,-0.127l0.301,-0.126l0.302,-0.125l0.302,-0.124l0.303,-0.123l0.303,-0.122l0.304,-0.122l0.304,-0.12l0.305,-0.12l0.305,-0.119l0.305,-0.117l0.306,-0.117l0.306,-0.116l0.307,-0.116l0.307,-0.114l0.308,-0.113l0.308,-0.112l0.309,-0.112l0.309,-0.11l0.309,-0.11l0.31,-0.109l0.31,-0.108l0.311,-0.106l0.311,-0.106l0.312,-0.105l0.312,-0.104l0.312,-0.103l0.313,-0.103l0.313,-0.101l0.314,-0.1l0.314,-0.1l0.315,-0.098l0.315,-0.098l0.315,-0.096l0.316,-0.096l0.316,-0.094l0.316,-0.094l0.317,-0.093l0.318,-0.092l0.318,-0.091l0.318,-0.09l0.318,-0.089l0.319,-0.088l0.32,-0.087l0.319,-0.086l0.321,-0.085l0.32,-0.084l0.321,-0.083l0.321,-0.082l0.322,-0.082l0.322,-0.08l0.323,-0.079l0.322,-0.079l0.324,-0.077l0.323,-0.076l0.324,-0.076l0.325,-0.074l0.324,-0.074l0.325,-0.072l0.326,-0.071l0.326,-0.071l0.326,-0.069l0.327,-0.069l0.326,-0.067l0.328,-0.067l0.327,-0.065l0.328,-0.065l0.329,-0.063l0.329,-0.063l0.329,-0.062l0.329,-0.06l0.33,-0.06l0.33,-0.058l0.33,-0.058l0.331,-0.056l0.331,-0.055l0.332,-0.055l0.332,-0.053l0.332,-0.053l0.332,-0.051l0.333,-0.051l0.333,-0.049l0.334,-0.048l0.334,-0.048l0.334,-0.046l0.334,-0.045l0.335,-0.044l0.335,-0.043l0.336,-0.043l0.335,-0.041l0.336,-0.04l0.337,-0.039l0.337,-0.038l0.337,-0.037l0.337,-0.036l0.338,-0.035l0.337,-0.033l0.339,-0.033l0.338,-0.032l0.339,-0.031l0.339,-0.029l0.34,-0.029l0.34,-0.027l0.34,-0.027l0.34,-0.025l0.341,-0.025l0.341,-0.023l0.341,-0.022l0.341,-0.021l0.342,-0.02l0.342,-0.019l0.343,-0.018l0.342,-0.017l0.343,-0.016l0.343,-0.014l0.344,-0.014l0.344,-0.013l0.344,-0.011l0.344,-0.01l0.344,-0.01l0.345,-0.008l0.345,-0.007l0.346,-0.006l0.345,-0.005l0.346,-0.004l0.346,-0.003l0.347,-0.001l0.347,-0.001l0.346,0.001Zm-0.665,9l-0.317,0.001l-0.318,0.003l-0.317,0.003l-0.318,0.005l-0.316,0.005l-0.317,0.007l-0.316,0.007l-0.316,0.009l-0.316,0.009l-0.316,0.011l-0.315,0.011l-0.315,0.013l-0.315,0.013l-0.314,0.015l-0.314,0.015l-0.314,0.017l-0.314,0.017l-0.313,0.019l-0.313,0.019l-0.313,0.02l-0.313,0.022l-0.312,0.022l-0.312,0.023l-0.311,0.024l-0.312,0.026l-0.311,0.026l-0.311,0.027l-0.31,0.028l-0.31,0.029l-0.31,0.03l-0.31,0.031l-0.309,0.032l-0.309,0.033l-0.309,0.034l-0.309,0.035l-0.308,0.036l-0.308,0.036l-0.307,0.038l-0.308,0.039l-0.307,0.039l-0.306,0.041l-0.307,0.041l-0.306,0.042l-0.305,0.044l-0.306,0.044l-0.305,0.045l-0.305,0.046l-0.304,0.047l-0.304,0.048l-0.304,0.049l-0.304,0.05l-0.303,0.051l-0.303,0.052l-0.303,0.052l-0.302,0.054l-0.302,0.054l-0.302,0.056l-0.301,0.056l-0.301,0.057l-0.3,0.059l-0.301,0.059l-0.3,0.06l-0.299,0.061l-0.3,0.061l-0.299,0.063l-0.298,0.064l-0.299,0.064l-0.298,0.066l-0.297,0.066l-0.297,0.067l-0.297,0.068l-0.297,0.069l-0.296,0.07l-0.296,0.071l-0.296,0.072l-0.295,0.072l-0.295,0.074l-0.294,0.074l-0.294,0.075l-0.294,0.077l-0.293,0.077l-0.294,0.078l-0.292,0.078l-0.293,0.08l-0.292,0.081l-0.291,0.081l-0.292,0.082l-0.29,0.084l-0.291,0.084l-0.29,0.084l-0.29,0.086l-0.289,0.087l-0.289,0.087l-0.289,0.089l-0.288,0.089l-0.288,0.09l-0.288,0.091l-0.287,0.092l-0.287,0.093l-0.286,0.093l-0.286,0.095l-0.286,0.095l-0.285,0.096l-0.285,0.097l-0.284,0.098l-0.284,0.099l-0.284,0.099l-0.283,0.1l-0.283,0.102l-0.282,0.102l-0.282,0.102l-0.282,0.104l-0.281,0.105l-0.281,0.105l-0.281,0.106l-0.28,0.107l-0.279,0.108l-0.28,0.109l-0.278,0.109l-0.279,0.111l-0.278,0.111l-0.277,0.112l-0.278,0.113l-0.276,0.114l-0.277,0.114l-0.275,0.115l-0.276,0.116l-0.275,0.117l-0.275,0.118l-0.274,0.119l-0.274,0.119l-0.273,0.12l-0.273,0.121l-0.272,0.122l-0.273,0.122l-0.271,0.124l-0.271,0.124l-0.271,0.125l-0.27,0.126l-0.27,0.126l-0.27,0.128l-0.269,0.128l-0.268,0.129l-0.268,0.13l-0.268,0.13l-0.267,0.132l-0.267,0.132l-0.266,0.133l-0.266,0.133l-0.265,0.135l-0.265,0.135l-0.265,0.136l-0.263,0.137l-0.264,0.137l-0.263,0.139l-0.263,0.139l-0.262,0.14l-0.261,0.14l-0.262,0.142l-0.26,0.142l-0.261,0.143l-0.259,0.144l-0.26,0.144l-0.258,0.146l-0.259,0.146l-0.258,0.147l-0.257,0.147l-0.257,0.148l-0.256,0.149l-0.256,0.15l-0.256,0.151l-0.255,0.151l-0.254,0.152l-0.254,0.153l-0.253,0.153l-0.253,0.155l-0.253,0.155l-0.252,0.156l-0.251,0.156l-0.251,0.157l-0.251,0.158l-0.249,0.159l-0.25,0.159l-0.249,0.161l-0.248,0.161l-0.248,0.161l-0.248,0.163l-0.247,0.163l-0.246,0.163l-0.246,0.165l-0.245,0.165l-0.245,0.166l-0.244,0.167l-0.244,0.167l-0.243,0.169l-0.243,0.168l-0.242,0.17l-0.242,0.17l-0.241,0.171l-0.24,0.172l-0.24,0.172l-0.24,0.173l-0.239,0.174l-0.238,0.175l-0.238,0.175l-0.238,0.176l-0.236,0.176l-0.237,0.178l-0.235,0.178l-0.235,0.178l-0.235,0.18l-0.234,0.18l-0.234,0.18l-0.233,0.182l-0.232,0.182l-0.232,0.183l-0.231,0.183l-0.231,0.184l-0.23,0.185l-0.23,0.186l-0.229,0.186l-0.228,0.187l-0.228,0.187l-0.227,0.188l-0.227,0.189l-0.226,0.19l-0.226,0.19l-0.225,0.191l-0.224,0.191l-0.224,0.193l-0.223,0.192l-0.223,0.194l-0.222,0.194l-0.222,0.195l-0.221,0.195l-0.22,0.197l-0.22,0.196l-0.219,0.198l-0.218,0.198l-0.218,0.199l-0.218,0.199l-0.216,0.2l-0.217,0.201l-0.215,0.201l-0.215,0.202l-0.215,0.202l-0.213,0.204l-0.213,0.203l-0.213,0.205l-0.212,0.205l-0.211,0.206l-0.211,0.206l-0.21,0.207l-0.209,0.208l-0.209,0.208l-0.209,0.209l-0.207,0.209l-0.207,0.21l-0.206,0.211l-0.206,0.211l-0.205,0.212l-0.205,0.213l-0.204,0.213l-0.203,0.214l-0.202,0.214l-0.202,0.215l-0.201,0.215l-0.201,0.217l-0.2,0.216l-0.199,0.218l-0.199,0.218l-0.198,0.218l-0.198,0.219l-0.196,0.22l-0.197,0.22l-0.195,0.221l-0.195,0.222l-0.194,0.222l-0.194,0.223l-0.192,0.223l-0.193,0.224l-0.191,0.224l-0.191,0.225l-0.19,0.226l-0.19,0.226l-0.189,0.227l-0.188,0.227l-0.187,0.228l-0.187,0.228l-0.186,0.229l-0.186,0.23l-0.185,0.23l-0.184,0.231l-0.183,0.231l-0.183,0.232l-0.182,0.232l-0.182,0.233l-0.18,0.234l-0.18,0.234l-0.18,0.234l-0.178,0.236l-0.178,0.235l-0.178,0.237l-0.176,0.237l-0.176,0.237l-0.175,0.238l-0.175,0.238l-0.174,0.239l-0.173,0.24l-0.172,0.24l-0.172,0.24l-0.171,0.241l-0.17,0.242l-0.17,0.242l-0.169,0.243l-0.168,0.243l-0.167,0.244l-0.167,0.244l-0.166,0.245l-0.165,0.245l-0.165,0.246l-0.163,0.246l-0.163,0.247l-0.163,0.248l-0.162,0.248l-0.16,0.248l-0.161,0.249l-0.159,0.249l-0.159,0.25l-0.158,0.251l-0.157,0.251l-0.157,0.251l-0.155,0.252l-0.155,0.253l-0.155,0.253l-0.153,0.253l-0.153,0.254l-0.152,0.255l-0.151,0.254l-0.151,0.256l-0.15,0.256l-0.149,0.256l-0.148,0.257l-0.148,0.258l-0.146,0.257l-0.146,0.259l-0.146,0.258l-0.144,0.26l-0.144,0.259l-0.143,0.261l-0.142,0.26l-0.142,0.262l-0.14,0.261l-0.14,0.262l-0.139,0.263l-0.139,0.263l-0.137,0.263l-0.137,0.265l-0.136,0.264l-0.135,0.265l-0.135,0.265l-0.134,0.266l-0.132,0.266l-0.132,0.267l-0.132,0.267l-0.13,0.268l-0.13,0.268l-0.129,0.268l-0.128,0.269l-0.128,0.27l-0.126,0.27l-0.126,0.27l-0.125,0.271l-0.124,0.271l-0.124,0.272l-0.122,0.272l-0.122,0.272l-0.121,0.273l-0.12,0.273l-0.119,0.274l-0.119,0.274l-0.118,0.275l-0.117,0.275l-0.116,0.275l-0.115,0.276l-0.115,0.277l-0.113,0.276l-0.113,0.278l-0.112,0.277l-0.111,0.278l-0.111,0.279l-0.109,0.278l-0.109,0.28l-0.108,0.279l-0.107,0.28l-0.106,0.281l-0.105,0.281l-0.105,0.281l-0.104,0.282l-0.102,0.282l-0.102,0.282l-0.102,0.283l-0.1,0.283l-0.099,0.284l-0.099,0.284l-0.098,0.284l-0.097,0.285l-0.096,0.285l-0.095,0.286l-0.095,0.286l-0.093,0.286l-0.093,0.287l-0.092,0.287l-0.091,0.288l-0.09,0.288l-0.089,0.288l-0.089,0.289l-0.087,0.289l-0.087,0.289l-0.086,0.29l-0.084,0.29l-0.084,0.291l-0.084,0.29l-0.082,0.292l-0.081,0.291l-0.081,0.292l-0.08,0.293l-0.078,0.292l-0.078,0.294l-0.077,0.293l-0.077,0.294l-0.075,0.294l-0.074,0.294l-0.074,0.295l-0.072,0.295l-0.072,0.296l-0.071,0.296l-0.07,0.296l-0.069,0.297l-0.068,0.297l-0.067,0.297l-0.066,0.298l-0.066,0.298l-0.064,0.298l-0.064,0.298l-0.063,0.299l-0.062,0.3l-0.06,0.299l-0.06,0.3l-0.059,0.301l-0.059,0.3l-0.057,0.301l-0.056,0.302l-0.056,0.301l-0.054,0.302l-0.054,0.302l-0.052,0.303l-0.052,0.303l-0.051,0.303l-0.05,0.304l-0.049,0.304l-0.048,0.304l-0.047,0.304l-0.046,0.305l-0.045,0.305l-0.044,0.306l-0.044,0.305l-0.042,0.307l-0.041,0.306l-0.041,0.306l-0.04,0.308l-0.038,0.307l-0.038,0.307l-0.037,0.308l-0.035,0.308l-0.035,0.309l-0.034,0.309l-0.033,0.309l-0.032,0.309l-0.031,0.31l-0.03,0.31l-0.029,0.31l-0.028,0.31l-0.027,0.311l-0.026,0.311l-0.026,0.312l-0.024,0.311l-0.023,0.312l-0.022,0.313l-0.022,0.312l-0.02,0.313l-0.019,0.313l-0.019,0.313l-0.017,0.314l-0.017,0.314l-0.015,0.314l-0.015,0.314l-0.013,0.315l-0.013,0.315l-0.011,0.315l-0.011,0.316l-0.009,0.316l-0.009,0.316l-0.007,0.316l-0.007,0.317l-0.005,0.316l-0.005,0.318l-0.003,0.317l-0.003,0.318l-0.001,0.317l-0.001,0.319l0.001,0.318l0.001,0.318l0.003,0.317l0.003,0.318l0.005,0.317l0.005,0.316l0.007,0.317l0.007,0.316l0.009,0.317l0.009,0.315l0.011,0.316l0.011,0.315l0.013,0.315l0.013,0.315l0.015,0.314l0.015,0.314l0.017,0.314l0.017,0.314l0.019,0.313l0.019,0.313l0.02,0.313l0.022,0.313l0.022,0.312l0.023,0.312l0.024,0.311l0.026,0.312l0.026,0.311l0.027,0.311l0.028,0.31l0.029,0.311l0.03,0.309l0.031,0.31l0.032,0.309l0.033,0.31l0.034,0.308l0.035,0.309l0.035,0.308l0.037,0.308l0.038,0.307l0.038,0.308l0.04,0.307l0.041,0.307l0.041,0.306l0.042,0.306l0.044,0.306l0.044,0.305l0.045,0.305l0.046,0.305l0.047,0.305l0.048,0.304l0.049,0.304l0.05,0.303l0.051,0.303l0.052,0.303l0.052,0.303l0.054,0.302l0.054,0.302l0.056,0.302l0.056,0.301l0.057,0.301l0.059,0.301l0.059,0.3l0.06,0.3l0.06,0.299l0.062,0.3l0.063,0.299l0.064,0.298l0.064,0.299l0.066,0.298l0.066,0.297l0.067,0.298l0.068,0.296l0.069,0.297l0.07,0.296l0.071,0.296l0.072,0.296l0.072,0.295l0.074,0.295l0.074,0.294l0.075,0.295l0.077,0.293l0.077,0.294l0.078,0.293l0.078,0.293l0.08,0.292l0.081,0.292l0.081,0.291l0.082,0.292l0.084,0.291l0.084,0.29l0.084,0.29l0.086,0.29l0.087,0.289l0.087,0.289l0.089,0.289l0.089,0.288l0.09,0.288l0.091,0.288l0.092,0.287l0.093,0.287l0.093,0.286l0.095,0.286l0.095,0.286l0.096,0.285l0.097,0.285l0.098,0.284l0.099,0.284l0.099,0.284l0.1,0.283l0.101,0.283l0.103,0.282l0.102,0.283l0.104,0.281l0.105,0.281l0.105,0.281l0.106,0.281l0.107,0.28l0.108,0.28l0.109,0.279l0.109,0.278l0.111,0.279l0.111,0.278l0.112,0.278l0.113,0.277l0.113,0.276l0.115,0.277l0.115,0.276l0.116,0.275l0.117,0.275l0.118,0.275l0.119,0.274l0.119,0.274l0.12,0.273l0.121,0.273l0.122,0.273l0.122,0.272l0.124,0.271l0.124,0.271l0.125,0.271l0.126,0.27l0.126,0.271l0.128,0.269l0.128,0.269l0.129,0.268l0.13,0.268l0.13,0.268l0.132,0.267l0.132,0.267l0.132,0.266l0.134,0.266l0.135,0.265l0.135,0.265l0.136,0.265l0.137,0.264l0.137,0.263l0.139,0.263l0.139,0.263l0.14,0.262l0.141,0.262l0.141,0.261l0.142,0.26l0.143,0.261l0.144,0.259l0.144,0.26l0.146,0.259l0.146,0.258l0.146,0.258l0.148,0.257l0.148,0.257l0.149,0.256l0.15,0.256l0.151,0.256l0.151,0.255l0.152,0.254l0.153,0.254l0.153,0.253l0.155,0.253l0.155,0.253l0.155,0.252l0.157,0.251l0.157,0.251l0.158,0.251l0.159,0.25l0.159,0.249l0.161,0.249l0.16,0.248l0.162,0.248l0.163,0.248l0.163,0.247l0.164,0.246l0.164,0.246l0.165,0.245l0.166,0.245l0.167,0.244l0.167,0.244l0.168,0.243l0.169,0.243l0.17,0.242l0.17,0.242l0.171,0.241l0.172,0.24l0.172,0.241l0.173,0.239l0.174,0.239l0.175,0.239l0.175,0.237l0.176,0.238l0.176,0.237l0.178,0.236l0.177,0.235l0.179,0.236l0.18,0.234l0.18,0.234l0.18,0.234l0.182,0.233l0.182,0.232l0.183,0.232l0.183,0.231l0.184,0.231l0.185,0.23l0.186,0.23l0.186,0.229l0.187,0.228l0.187,0.228l0.188,0.227l0.189,0.227l0.19,0.226l0.19,0.226l0.191,0.225l0.191,0.224l0.193,0.224l0.192,0.224l0.194,0.222l0.194,0.222l0.195,0.222l0.195,0.221l0.197,0.22l0.196,0.22l0.198,0.219l0.198,0.219l0.199,0.217l0.199,0.218l0.2,0.217l0.201,0.216l0.201,0.215l0.202,0.215l0.202,0.215l0.203,0.213l0.204,0.214l0.205,0.212l0.205,0.212l0.205,0.211l0.207,0.211l0.207,0.21l0.207,0.209l0.209,0.209l0.209,0.209l0.209,0.207l0.21,0.207l0.211,0.207l0.211,0.205l0.212,0.205l0.213,0.205l0.213,0.204l0.213,0.203l0.215,0.202l0.215,0.202l0.215,0.202l0.217,0.2l0.216,0.2l0.218,0.2l0.218,0.198l0.218,0.198l0.219,0.198l0.22,0.197l0.221,0.196l0.221,0.195l0.221,0.195l0.222,0.194l0.223,0.194l0.223,0.193l0.224,0.192l0.224,0.191l0.225,0.191l0.226,0.19l0.226,0.19l0.227,0.189l0.227,0.188l0.228,0.187l0.228,0.187l0.229,0.187l0.23,0.185l0.23,0.185l0.231,0.184l0.231,0.183l0.232,0.183l0.232,0.182l0.233,0.182l0.234,0.181l0.234,0.179l0.234,0.18l0.236,0.179l0.235,0.178l0.237,0.177l0.236,0.177l0.238,0.175l0.238,0.176l0.238,0.174l0.239,0.174l0.24,0.173l0.24,0.172l0.24,0.172l0.241,0.171l0.242,0.17l0.242,0.17l0.243,0.169l0.243,0.168l0.244,0.167l0.244,0.167l0.245,0.166l0.245,0.165l0.246,0.165l0.246,0.163l0.247,0.164l0.248,0.162l0.248,0.162l0.248,0.161l0.249,0.16l0.25,0.159l0.249,0.159l0.251,0.158l0.251,0.157l0.251,0.157l0.252,0.155l0.253,0.155l0.253,0.155l0.253,0.153l0.254,0.153l0.254,0.152l0.255,0.151l0.256,0.151l0.256,0.15l0.256,0.149l0.257,0.148l0.257,0.148l0.258,0.146l0.259,0.147l0.258,0.145l0.26,0.144l0.259,0.144l0.261,0.143l0.26,0.142l0.262,0.142l0.261,0.14l0.262,0.14l0.263,0.139l0.263,0.139l0.263,0.137l0.265,0.137l0.264,0.136l0.265,0.135l0.265,0.135l0.266,0.134l0.266,0.133l0.267,0.132l0.267,0.131l0.268,0.131l0.268,0.129l0.269,0.129l0.268,0.128l0.27,0.128l0.27,0.126l0.27,0.126l0.271,0.125l0.271,0.124l0.271,0.124l0.273,0.122l0.272,0.122l0.273,0.121l0.273,0.12l0.274,0.12l0.274,0.118l0.275,0.118l0.275,0.117l0.276,0.116l0.276,0.115l0.276,0.115l0.276,0.113l0.278,0.113l0.277,0.112l0.278,0.111l0.279,0.111l0.278,0.109l0.28,0.109l0.279,0.108l0.28,0.107l0.281,0.106l0.281,0.105l0.281,0.105l0.282,0.104l0.282,0.103l0.282,0.102l0.283,0.101l0.283,0.1l0.284,0.1l0.284,0.098l0.285,0.098l0.284,0.097l0.285,0.096l0.286,0.095l0.286,0.095l0.286,0.093l0.287,0.093l0.287,0.092l0.288,0.091l0.288,0.09l0.288,0.089l0.289,0.089l0.289,0.087l0.289,0.087l0.29,0.086l0.29,0.085l0.29,0.084l0.291,0.083l0.292,0.082l0.291,0.082l0.292,0.08l0.293,0.08l0.292,0.079l0.294,0.078l0.293,0.077l0.294,0.076l0.294,0.075l0.294,0.074l0.295,0.074l0.296,0.072l0.295,0.072l0.296,0.071l0.296,0.07l0.296,0.069l0.298,0.068l0.297,0.067l0.297,0.067l0.298,0.065l0.299,0.065l0.298,0.063l0.3,0.063l0.299,0.062l0.299,0.061l0.3,0.06l0.301,0.059l0.3,0.058l0.301,0.057l0.301,0.056l0.302,0.056l0.302,0.054l0.302,0.054l0.303,0.052l0.303,0.052l0.303,0.051l0.304,0.05l0.304,0.049l0.304,0.048l0.304,0.047l0.305,0.046l0.305,0.045l0.306,0.044l0.305,0.044l0.306,0.042l0.307,0.042l0.306,0.04l0.308,0.04l0.307,0.038l0.307,0.038l0.308,0.037l0.308,0.035l0.309,0.035l0.309,0.034l0.309,0.033l0.309,0.032l0.31,0.031l0.309,0.03l0.311,0.029l0.31,0.028l0.311,0.027l0.311,0.027l0.312,0.025l0.312,0.024l0.311,0.023l0.312,0.023l0.313,0.021l0.313,0.02l0.313,0.02l0.313,0.018l0.314,0.017l0.314,0.017l0.314,0.015l0.314,0.015l0.315,0.013l0.315,0.013l0.315,0.011l0.316,0.011l0.316,0.009l0.316,0.009l0.316,0.007l0.317,0.007l0.316,0.005l0.318,0.005l0.317,0.003l0.317,0.003l0.318,0.001l0.319,0.001l0.318,-0.001l0.318,-0.001l0.317,-0.003l0.318,-0.003l0.317,-0.005l0.317,-0.005l0.316,-0.007l0.316,-0.007l0.316,-0.009l0.316,-0.009l0.316,-0.011l0.315,-0.011l0.315,-0.013l0.315,-0.013l0.314,-0.015l0.314,-0.015l0.314,-0.017l0.314,-0.017l0.313,-0.018l0.313,-0.02l0.313,-0.02l0.313,-0.021l0.312,-0.023l0.312,-0.023l0.312,-0.024l0.311,-0.025l0.311,-0.027l0.311,-0.027l0.31,-0.028l0.311,-0.029l0.309,-0.03l0.31,-0.031l0.309,-0.032l0.309,-0.033l0.309,-0.034l0.309,-0.035l0.308,-0.035l0.308,-0.037l0.307,-0.038l0.308,-0.038l0.307,-0.04l0.306,-0.04l0.307,-0.042l0.306,-0.042l0.305,-0.044l0.306,-0.044l0.305,-0.045l0.305,-0.046l0.305,-0.047l0.304,-0.048l0.304,-0.049l0.303,-0.05l0.303,-0.051l0.303,-0.052l0.303,-0.052l0.302,-0.054l0.302,-0.054l0.302,-0.056l0.301,-0.056l0.301,-0.057l0.301,-0.058l0.3,-0.059l0.3,-0.06l0.3,-0.061l0.299,-0.062l0.299,-0.063l0.299,-0.063l0.298,-0.065l0.298,-0.065l0.297,-0.067l0.297,-0.067l0.298,-0.068l0.296,-0.069l0.296,-0.07l0.296,-0.071l0.296,-0.072l0.295,-0.072l0.295,-0.074l0.294,-0.074l0.295,-0.075l0.293,-0.076l0.294,-0.077l0.293,-0.078l0.292,-0.079l0.293,-0.08l0.292,-0.08l0.291,-0.082l0.292,-0.082l0.291,-0.083l0.29,-0.084l0.29,-0.085l0.29,-0.086l0.289,-0.087l0.29,-0.087l0.288,-0.089l0.288,-0.089l0.288,-0.09l0.288,-0.091l0.287,-0.092l0.287,-0.093l0.286,-0.093l0.286,-0.095l0.286,-0.095l0.285,-0.096l0.285,-0.097l0.284,-0.098l0.284,-0.098l0.284,-0.1l0.283,-0.1l0.283,-0.101l0.283,-0.102l0.282,-0.103l0.281,-0.104l0.281,-0.105l0.281,-0.105l0.281,-0.106l0.28,-0.107l0.28,-0.108l0.279,-0.109l0.278,-0.109l0.279,-0.111l0.278,-0.111l0.277,-0.112l0.278,-0.113l0.277,-0.113l0.276,-0.115l0.276,-0.115l0.275,-0.116l0.275,-0.117l0.275,-0.118l0.274,-0.118l0.274,-0.12l0.273,-0.12l0.273,-0.121l0.273,-0.122l0.272,-0.122l0.271,-0.124l0.271,-0.124l0.271,-0.125l0.271,-0.126l0.269,-0.126l0.27,-0.128l0.269,-0.128l0.268,-0.129l0.268,-0.13l0.268,-0.13l0.267,-0.131l0.267,-0.132l0.266,-0.133l0.266,-0.134l0.265,-0.135l0.265,-0.135l0.265,-0.136l0.264,-0.137l0.263,-0.137l0.263,-0.139l0.263,-0.139l0.262,-0.14l0.262,-0.14l0.261,-0.142l0.26,-0.142l0.261,-0.143l0.259,-0.144l0.26,-0.144l0.259,-0.145l0.258,-0.147l0.258,-0.146l0.257,-0.148l0.257,-0.148l0.256,-0.149l0.256,-0.15l0.256,-0.151l0.255,-0.151l0.254,-0.152l0.254,-0.153l0.253,-0.153l0.253,-0.155l0.253,-0.155l0.252,-0.155l0.251,-0.157l0.251,-0.157l0.251,-0.158l0.25,-0.159l0.249,-0.159l0.249,-0.16l0.248,-0.161l0.248,-0.162l0.248,-0.162l0.247,-0.164l0.246,-0.163l0.246,-0.165l0.245,-0.165l0.245,-0.166l0.244,-0.167l0.244,-0.167l0.243,-0.168l0.243,-0.169l0.242,-0.17l0.242,-0.17l0.241,-0.171l0.241,-0.172l0.24,-0.172l0.239,-0.173l0.239,-0.174l0.238,-0.174l0.238,-0.176l0.238,-0.176l0.237,-0.176l0.236,-0.177l0.235,-0.178l0.236,-0.179l0.235,-0.18l0.233,-0.179l0.234,-0.181l0.233,-0.182l0.232,-0.182l0.232,-0.183l0.231,-0.183l0.231,-0.184l0.23,-0.185l0.23,-0.186l0.229,-0.186l0.228,-0.187l0.228,-0.187l0.227,-0.188l0.227,-0.189l0.226,-0.19l0.226,-0.19l0.225,-0.191l0.224,-0.191l0.224,-0.192l0.224,-0.193l0.222,-0.194l0.222,-0.194l0.222,-0.195l0.221,-0.195l0.22,-0.196l0.22,-0.197l0.219,-0.198l0.219,-0.198l0.217,-0.198l0.218,-0.2l0.217,-0.2l0.216,-0.2l0.215,-0.202l0.215,-0.202l0.215,-0.202l0.213,-0.203l0.214,-0.204l0.212,-0.205l0.212,-0.205l0.211,-0.205l0.211,-0.207l0.21,-0.207l0.21,-0.207l0.209,-0.209l0.208,-0.209l0.207,-0.209l0.207,-0.21l0.207,-0.211l0.205,-0.211l0.205,-0.212l0.205,-0.212l0.204,-0.214l0.203,-0.213l0.202,-0.214l0.202,-0.216l0.202,-0.215l0.2,-0.216l0.2,-0.217l0.2,-0.218l0.198,-0.217l0.198,-0.219l0.198,-0.219l0.197,-0.22l0.196,-0.22l0.195,-0.221l0.195,-0.222l0.194,-0.222l0.194,-0.223l0.193,-0.223l0.192,-0.224l0.191,-0.224l0.191,-0.225l0.19,-0.226l0.19,-0.226l0.189,-0.227l0.188,-0.227l0.187,-0.228l0.187,-0.228l0.187,-0.229l0.185,-0.23l0.185,-0.23l0.184,-0.231l0.183,-0.231l0.183,-0.232l0.182,-0.232l0.182,-0.233l0.181,-0.234l0.18,-0.234l0.179,-0.234l0.179,-0.236l0.178,-0.235l0.177,-0.237l0.177,-0.236l0.175,-0.237l0.176,-0.239l0.174,-0.238l0.174,-0.239l0.173,-0.239l0.172,-0.24l0.172,-0.241l0.171,-0.241l0.17,-0.242l0.17,-0.242l0.169,-0.243l0.168,-0.243l0.167,-0.244l0.167,-0.244l0.166,-0.245l0.165,-0.245l0.165,-0.246l0.163,-0.246l0.164,-0.247l0.162,-0.248l0.162,-0.247l0.161,-0.249l0.16,-0.249l0.159,-0.249l0.159,-0.25l0.158,-0.251l0.157,-0.251l0.157,-0.251l0.155,-0.252l0.155,-0.253l0.155,-0.252l0.153,-0.254l0.153,-0.254l0.152,-0.254l0.151,-0.255l0.151,-0.256l0.15,-0.256l0.149,-0.256l0.148,-0.257l0.148,-0.257l0.146,-0.258l0.146,-0.258l0.146,-0.259l0.144,-0.26l0.144,-0.26l0.143,-0.26l0.142,-0.26l0.142,-0.261l0.14,-0.262l0.14,-0.262l0.139,-0.263l0.139,-0.263l0.137,-0.264l0.137,-0.263l0.136,-0.265l0.136,-0.265l0.134,-0.265l0.134,-0.266l0.132,-0.266l0.133,-0.267l0.131,-0.267l0.13,-0.268l0.13,-0.268l0.129,-0.268l0.128,-0.269l0.128,-0.27l0.126,-0.269l0.126,-0.271l0.125,-0.271l0.124,-0.271l0.124,-0.272l0.122,-0.272l0.122,-0.272l0.121,-0.273l0.12,-0.273l0.12,-0.274l0.118,-0.274l0.118,-0.275l0.117,-0.275l0.116,-0.275l0.115,-0.276l0.115,-0.276l0.113,-0.277l0.113,-0.277l0.112,-0.278l0.111,-0.278l0.111,-0.279l0.109,-0.278l0.109,-0.279l0.108,-0.28l0.107,-0.28l0.106,-0.281l0.105,-0.28l0.105,-0.282l0.104,-0.281l0.103,-0.282l0.102,-0.283l0.101,-0.283l0.1,-0.283l0.1,-0.284l0.098,-0.284l0.098,-0.284l0.097,-0.285l0.096,-0.286l0.095,-0.285l0.095,-0.286l0.093,-0.286l0.093,-0.287l0.092,-0.287l0.091,-0.288l0.09,-0.287l0.089,-0.289l0.089,-0.289l0.087,-0.289l0.087,-0.289l0.086,-0.29l0.085,-0.29l0.084,-0.291l0.083,-0.29l0.082,-0.292l0.082,-0.291l0.08,-0.292l0.08,-0.293l0.079,-0.292l0.077,-0.293l0.078,-0.294l0.076,-0.294l0.075,-0.294l0.074,-0.294l0.074,-0.295l0.072,-0.295l0.072,-0.296l0.071,-0.296l0.07,-0.296l0.069,-0.297l0.068,-0.296l0.067,-0.298l0.067,-0.297l0.065,-0.298l0.065,-0.299l0.063,-0.298l0.063,-0.299l0.062,-0.3l0.061,-0.299l0.06,-0.3l0.059,-0.3l0.058,-0.301l0.057,-0.301l0.056,-0.301l0.056,-0.302l0.054,-0.302l0.054,-0.302l0.052,-0.303l0.052,-0.302l0.051,-0.304l0.05,-0.303l0.049,-0.304l0.048,-0.305l0.047,-0.304l0.046,-0.305l0.045,-0.305l0.044,-0.305l0.044,-0.306l0.042,-0.306l0.042,-0.307l0.04,-0.306l0.04,-0.307l0.038,-0.308l0.038,-0.307l0.037,-0.308l0.035,-0.308l0.035,-0.309l0.034,-0.308l0.033,-0.309l0.032,-0.31l0.031,-0.31l0.03,-0.31l0.029,-0.31l0.028,-0.31l0.027,-0.311l0.027,-0.311l0.025,-0.311l0.024,-0.312l0.023,-0.312l0.023,-0.312l0.021,-0.313l0.02,-0.313l0.02,-0.313l0.018,-0.313l0.017,-0.314l0.017,-0.314l0.015,-0.314l0.015,-0.314l0.013,-0.315l0.013,-0.315l0.011,-0.315l0.011,-0.316l0.009,-0.316l0.009,-0.316l0.007,-0.316l0.007,-0.317l0.005,-0.316l0.005,-0.317l0.003,-0.318l0.003,-0.317l0.001,-0.318l0.001,-0.318l-0.001,-0.319l-0.001,-0.317l-0.003,-0.318l-0.003,-0.318l-0.005,-0.317l-0.005,-0.316l-0.007,-0.317l-0.007,-0.316l-0.009,-0.316l-0.009,-0.316l-0.011,-0.316l-0.011,-0.315l-0.013,-0.315l-0.013,-0.315l-0.015,-0.314l-0.015,-0.314l-0.017,-0.314l-0.017,-0.314l-0.018,-0.313l-0.02,-0.313l-0.02,-0.313l-0.021,-0.313l-0.023,-0.312l-0.023,-0.312l-0.024,-0.311l-0.025,-0.312l-0.027,-0.311l-0.027,-0.311l-0.028,-0.31l-0.029,-0.31l-0.03,-0.31l-0.031,-0.31l-0.032,-0.31l-0.033,-0.308l-0.034,-0.309l-0.035,-0.309l-0.035,-0.308l-0.037,-0.308l-0.038,-0.307l-0.038,-0.308l-0.04,-0.306l-0.04,-0.307l-0.042,-0.307l-0.042,-0.306l-0.044,-0.305l-0.044,-0.306l-0.045,-0.305l-0.046,-0.305l-0.047,-0.304l-0.048,-0.304l-0.049,-0.304l-0.05,-0.304l-0.051,-0.303l-0.052,-0.303l-0.052,-0.303l-0.054,-0.302l-0.054,-0.302l-0.056,-0.301l-0.056,-0.302l-0.057,-0.301l-0.058,-0.3l-0.059,-0.301l-0.06,-0.3l-0.061,-0.299l-0.062,-0.3l-0.063,-0.299l-0.063,-0.298l-0.065,-0.298l-0.065,-0.299l-0.067,-0.297l-0.067,-0.297l-0.068,-0.297l-0.069,-0.297l-0.07,-0.296l-0.071,-0.296l-0.072,-0.296l-0.072,-0.295l-0.074,-0.295l-0.074,-0.294l-0.075,-0.294l-0.077,-0.294l-0.077,-0.294l-0.077,-0.293l-0.079,-0.292l-0.08,-0.292l-0.08,-0.293l-0.082,-0.291l-0.082,-0.291l-0.083,-0.291l-0.084,-0.291l-0.085,-0.29l-0.086,-0.29l-0.087,-0.289l-0.087,-0.289l-0.089,-0.289l-0.089,-0.288l-0.09,-0.288l-0.091,-0.287l-0.092,-0.288l-0.093,-0.287l-0.093,-0.286l-0.095,-0.286l-0.095,-0.285l-0.096,-0.286l-0.097,-0.285l-0.098,-0.284l-0.098,-0.284l-0.1,-0.284l-0.1,-0.283l-0.101,-0.283l-0.102,-0.282l-0.103,-0.282l-0.104,-0.282l-0.105,-0.281l-0.105,-0.281l-0.106,-0.281l-0.107,-0.28l-0.108,-0.279l-0.109,-0.279l-0.109,-0.279l-0.111,-0.279l-0.111,-0.278l-0.112,-0.277l-0.113,-0.278l-0.113,-0.276l-0.115,-0.277l-0.115,-0.275l-0.116,-0.276l-0.117,-0.275l-0.118,-0.275l-0.118,-0.274l-0.12,-0.274l-0.12,-0.273l-0.121,-0.273l-0.122,-0.272l-0.122,-0.272l-0.124,-0.272l-0.124,-0.271l-0.125,-0.271l-0.126,-0.27l-0.126,-0.27l-0.128,-0.27l-0.128,-0.269l-0.129,-0.268l-0.129,-0.268l-0.131,-0.268l-0.131,-0.267l-0.132,-0.267l-0.133,-0.266l-0.134,-0.266l-0.134,-0.265l-0.136,-0.265l-0.136,-0.265l-0.137,-0.263l-0.137,-0.264l-0.139,-0.263l-0.139,-0.263l-0.14,-0.262l-0.14,-0.261l-0.142,-0.262l-0.142,-0.26l-0.143,-0.26l-0.144,-0.26l-0.144,-0.26l-0.145,-0.258l-0.147,-0.259l-0.146,-0.257l-0.148,-0.258l-0.148,-0.257l-0.149,-0.256l-0.15,-0.256l-0.15,-0.255l-0.152,-0.256l-0.152,-0.254l-0.153,-0.254l-0.153,-0.253l-0.155,-0.253l-0.155,-0.253l-0.155,-0.252l-0.157,-0.251l-0.157,-0.251l-0.158,-0.25l-0.159,-0.251l-0.159,-0.249l-0.16,-0.249l-0.161,-0.248l-0.162,-0.248l-0.162,-0.248l-0.164,-0.247l-0.163,-0.246l-0.165,-0.246l-0.165,-0.245l-0.166,-0.245l-0.167,-0.244l-0.167,-0.244l-0.168,-0.243l-0.169,-0.243l-0.17,-0.242l-0.17,-0.242l-0.171,-0.241l-0.172,-0.24l-0.172,-0.24l-0.173,-0.24l-0.174,-0.239l-0.174,-0.238l-0.176,-0.238l-0.175,-0.237l-0.177,-0.237l-0.177,-0.237l-0.178,-0.235l-0.179,-0.236l-0.179,-0.234l-0.18,-0.234l-0.181,-0.234l-0.182,-0.233l-0.182,-0.232l-0.183,-0.232l-0.183,-0.231l-0.184,-0.231l-0.185,-0.23l-0.186,-0.23l-0.186,-0.229l-0.187,-0.228l-0.187,-0.228l-0.188,-0.227l-0.189,-0.227l-0.19,-0.226l-0.19,-0.226l-0.191,-0.225l-0.191,-0.224l-0.192,-0.224l-0.193,-0.223l-0.194,-0.223l-0.194,-0.222l-0.195,-0.222l-0.195,-0.221l-0.196,-0.22l-0.197,-0.22l-0.198,-0.219l-0.198,-0.218l-0.198,-0.218l-0.2,-0.218l-0.2,-0.217l-0.2,-0.216l-0.202,-0.215l-0.202,-0.215l-0.202,-0.215l-0.203,-0.213l-0.204,-0.213l-0.205,-0.213l-0.205,-0.212l-0.205,-0.211l-0.207,-0.211l-0.207,-0.21l-0.207,-0.209l-0.208,-0.209l-0.209,-0.208l-0.21,-0.208l-0.21,-0.207l-0.211,-0.206l-0.211,-0.206l-0.212,-0.205l-0.212,-0.205l-0.213,-0.203l-0.214,-0.204l-0.215,-0.202l-0.215,-0.202l-0.215,-0.201l-0.216,-0.201l-0.217,-0.2l-0.217,-0.199l-0.218,-0.199l-0.219,-0.198l-0.219,-0.198l-0.22,-0.197l-0.22,-0.196l-0.221,-0.195l-0.222,-0.195l-0.222,-0.194l-0.223,-0.194l-0.223,-0.192l-0.224,-0.193l-0.224,-0.191l-0.225,-0.191l-0.226,-0.19l-0.226,-0.19l-0.227,-0.189l-0.227,-0.188l-0.228,-0.187l-0.228,-0.187l-0.229,-0.186l-0.23,-0.186l-0.23,-0.185l-0.231,-0.184l-0.231,-0.183l-0.232,-0.183l-0.232,-0.182l-0.233,-0.182l-0.234,-0.18l-0.234,-0.18l-0.234,-0.18l-0.235,-0.178l-0.236,-0.178l-0.237,-0.178l-0.236,-0.176l-0.238,-0.176l-0.238,-0.175l-0.238,-0.175l-0.239,-0.174l-0.239,-0.173l-0.24,-0.172l-0.241,-0.172l-0.241,-0.171l-0.242,-0.17l-0.242,-0.17l-0.243,-0.169l-0.243,-0.168l-0.244,-0.167l-0.244,-0.167l-0.245,-0.166l-0.245,-0.165l-0.246,-0.165l-0.246,-0.163l-0.247,-0.163l-0.248,-0.163l-0.248,-0.161l-0.248,-0.161l-0.249,-0.161l-0.249,-0.159l-0.25,-0.159l-0.251,-0.158l-0.251,-0.157l-0.251,-0.156l-0.252,-0.156l-0.253,-0.155l-0.253,-0.155l-0.253,-0.153l-0.254,-0.153l-0.254,-0.152l-0.255,-0.151l-0.256,-0.151l-0.256,-0.15l-0.256,-0.149l-0.257,-0.148l-0.257,-0.147l-0.258,-0.147l-0.258,-0.146l-0.259,-0.146l-0.26,-0.144l-0.259,-0.144l-0.261,-0.143l-0.26,-0.142l-0.261,-0.142l-0.262,-0.14l-0.262,-0.14l-0.263,-0.139l-0.263,-0.139l-0.263,-0.137l-0.264,-0.137l-0.265,-0.136l-0.265,-0.135l-0.265,-0.135l-0.266,-0.133l-0.266,-0.133l-0.267,-0.133l-0.267,-0.131l-0.268,-0.13l-0.268,-0.13l-0.268,-0.129l-0.269,-0.128l-0.27,-0.128l-0.269,-0.126l-0.271,-0.126l-0.271,-0.125l-0.271,-0.124l-0.271,-0.124l-0.272,-0.122l-0.273,-0.122l-0.273,-0.121l-0.273,-0.12l-0.274,-0.119l-0.274,-0.119l-0.275,-0.118l-0.275,-0.117l-0.275,-0.116l-0.276,-0.115l-0.276,-0.114l-0.277,-0.114l-0.278,-0.113l-0.277,-0.112l-0.278,-0.111l-0.278,-0.111l-0.279,-0.109l-0.28,-0.109l-0.279,-0.108l-0.28,-0.107l-0.281,-0.106l-0.281,-0.105l-0.281,-0.105l-0.281,-0.104l-0.282,-0.102l-0.283,-0.102l-0.283,-0.102l-0.283,-0.1l-0.284,-0.099l-0.284,-0.099l-0.284,-0.098l-0.285,-0.097l-0.285,-0.096l-0.286,-0.095l-0.286,-0.095l-0.286,-0.093l-0.287,-0.093l-0.287,-0.092l-0.288,-0.091l-0.288,-0.09l-0.288,-0.089l-0.288,-0.088l-0.29,-0.088l-0.289,-0.087l-0.29,-0.086l-0.29,-0.084l-0.29,-0.084l-0.291,-0.084l-0.292,-0.082l-0.291,-0.081l-0.292,-0.081l-0.293,-0.08l-0.292,-0.078l-0.293,-0.078l-0.294,-0.077l-0.294,-0.077l-0.294,-0.075l-0.294,-0.074l-0.295,-0.074l-0.295,-0.072l-0.296,-0.072l-0.296,-0.071l-0.296,-0.07l-0.296,-0.069l-0.297,-0.068l-0.298,-0.067l-0.297,-0.066l-0.298,-0.066l-0.299,-0.064l-0.298,-0.064l-0.299,-0.063l-0.299,-0.061l-0.3,-0.061l-0.3,-0.06l-0.3,-0.059l-0.301,-0.059l-0.301,-0.057l-0.301,-0.056l-0.302,-0.056l-0.302,-0.054l-0.302,-0.054l-0.303,-0.052l-0.303,-0.052l-0.303,-0.051l-0.303,-0.05l-0.304,-0.049l-0.305,-0.048l-0.304,-0.047l-0.305,-0.046l-0.305,-0.045l-0.306,-0.044l-0.305,-0.044l-0.306,-0.042l-0.307,-0.041l-0.306,-0.041l-0.307,-0.039l-0.308,-0.039l-0.307,-0.038l-0.308,-0.036l-0.308,-0.036l-0.309,-0.035l-0.308,-0.034l-0.309,-0.033l-0.31,-0.032l-0.31,-0.031l-0.309,-0.03l-0.311,-0.029l-0.31,-0.028l-0.311,-0.027l-0.311,-0.026l-0.311,-0.026l-0.312,-0.024l-0.312,-0.023l-0.312,-0.022l-0.313,-0.022l-0.313,-0.02l-0.313,-0.019l-0.313,-0.019l-0.314,-0.017l-0.314,-0.017l-0.314,-0.015l-0.314,-0.015l-0.315,-0.013l-0.315,-0.013l-0.315,-0.011l-0.316,-0.011l-0.316,-0.009l-0.316,-0.009l-0.316,-0.007l-0.316,-0.007l-0.317,-0.005l-0.317,-0.005l-0.318,-0.003l-0.317,-0.003l-0.318,-0.001l-0.318,-0.001l-0.319,0.001Z"/></g><g><g><g id="Symbol5" serif:id="Symbol"><path id="Ellipse2" serif:id="Ellipse" d="M141.688,146.711c8.755,-5.055 19.966,-2.051 25.02,6.704c5.055,8.754 2.051,19.966 -6.704,25.02c-8.755,5.054 -19.966,2.05 -25.02,-6.704c-5.055,-8.755 -2.051,-19.966 6.704,-25.02Z" style="stroke:#000;stroke-width:9px;"/><path d="M169.981,195.715l-28.293,-17.28l27.396,-16.159l0.897,33.439Z" style="stroke:#000;stroke-width:9px;"/></g></g><g><path id="Ellipse3" serif:id="Ellipse" d="M198.273,146.711c-8.754,-5.055 -19.966,-2.051 -25.02,6.704c-5.055,8.754 -2.051,19.966 6.704,25.02c8.755,5.054 19.966,2.05 25.02,-6.704c5.055,-8.755 2.051,-19.966 -6.704,-25.02Z" style="stroke:#000;stroke-width:9px;"/><path id="Curve" d="M169.981,195.715l28.292,-17.28l-27.396,-16.159l-0.896,33.439Z" style="stroke:#000;stroke-width:9px;"/></g></g></g><g id="uwu-stamp" serif:id="uwu stamp"><g><g id="Symbol6" serif:id="Symbol"></g><g id="Symbol7" serif:id="Symbol"></g><g id="Symbol8" serif:id="Symbol"></g></g><g><g id="u"></g><g id="w"><g id="Symbol9" serif:id="Symbol"></g></g></g></g></svg>