<?xml version="1.0" encoding="UTF-8" standalone="no"?><!DOCTYPE svg PUBLIC "-//W3C//DTD SVG 1.1//EN" "http://www.w3.org/Graphics/SVG/1.1/DTD/svg11.dtd"><svg width="100%" height="100%" viewBox="0 0 740 391" version="1.1" xmlns="http://www.w3.org/2000/svg" xmlns:xlink="http://www.w3.org/1999/xlink" xml:space="preserve" xmlns:serif="http://www.serif.com/" style="fill-rule:evenodd;clip-rule:evenodd;stroke-linejoin:round;stroke-miterlimit:2;"><g><g><g><path d="M104.348,211.408c0,2.391 -0.715,4.945 -2.145,7.664c-1.43,2.719 -3.609,5.309 -6.539,7.77c-2.93,2.46 -6.621,4.441 -11.074,5.941c-4.453,1.5 -9.469,2.25 -15.047,2.25c-11.859,0 -21.117,-3.457 -27.773,-10.371c-6.657,-6.914 -9.985,-16.184 -9.985,-27.809c0,-7.875 1.524,-14.836 4.57,-20.883c3.047,-6.046 7.454,-10.722 13.219,-14.027c5.766,-3.305 12.656,-4.957 20.672,-4.957c4.969,0 9.527,0.727 13.676,2.18c4.148,1.453 7.664,3.328 10.547,5.625c2.883,2.297 5.086,4.746 6.609,7.347c1.524,2.602 2.285,5.028 2.285,7.278c0,2.297 -0.855,4.242 -2.566,5.836c-1.711,1.593 -3.785,2.39 -6.223,2.39c-1.594,0 -2.918,-0.41 -3.972,-1.23c-1.055,-0.82 -2.239,-2.145 -3.551,-3.973c-2.344,-3.562 -4.793,-6.234 -7.348,-8.015c-2.555,-1.782 -5.801,-2.672 -9.738,-2.672c-5.672,0 -10.242,2.215 -13.711,6.644c-3.469,4.43 -5.203,10.489 -5.203,18.176c0,3.609 0.445,6.926 1.336,9.949c0.89,3.024 2.179,5.602 3.867,7.735c1.687,2.132 3.726,3.75 6.117,4.851c2.391,1.102 5.016,1.653 7.875,1.653c3.844,0 7.137,-0.891 9.879,-2.672c2.742,-1.782 5.168,-4.5 7.277,-8.157c1.172,-2.156 2.438,-3.843 3.797,-5.062c1.36,-1.219 3.024,-1.828 4.992,-1.828c2.344,0 4.289,0.89 5.836,2.672c1.547,1.781 2.321,3.679 2.321,5.695Z" style="fill:none;fill-rule:nonzero;stroke:#000;stroke-width:4px;"/><path d="M170.934,224.345l0,-2.46c-2.297,2.906 -4.711,5.343 -7.243,7.312c-2.531,1.969 -5.296,3.434 -8.296,4.395c-3,0.96 -6.422,1.441 -10.266,1.441c-4.641,0 -8.801,-0.961 -12.481,-2.883c-3.679,-1.922 -6.527,-4.57 -8.543,-7.945c-2.39,-4.078 -3.585,-9.938 -3.585,-17.578l0,-38.039c0,-3.844 0.867,-6.715 2.601,-8.614c1.734,-1.898 4.031,-2.847 6.891,-2.847c2.906,0 5.25,0.961 7.031,2.883c1.781,1.921 2.672,4.781 2.672,8.578l0,30.726c0,4.453 0.375,8.192 1.125,11.215c0.75,3.023 2.098,5.391 4.043,7.102c1.945,1.711 4.582,2.566 7.91,2.566c3.234,0 6.281,-0.961 9.141,-2.883c2.859,-1.922 4.945,-4.429 6.257,-7.523c1.079,-2.719 1.618,-8.672 1.618,-17.86l0,-23.343c0,-3.797 0.89,-6.657 2.671,-8.578c1.782,-1.922 4.102,-2.883 6.961,-2.883c2.86,0 5.157,0.949 6.891,2.847c1.734,1.899 2.602,4.77 2.602,8.614l0,55.617c0,3.656 -0.832,6.398 -2.496,8.226c-1.665,1.829 -3.809,2.743 -6.434,2.743c-2.625,0 -4.793,-0.95 -6.504,-2.848c-1.711,-1.899 -2.566,-4.559 -2.566,-7.981Z" style="fill:none;fill-rule:nonzero;stroke:#000;stroke-width:4px;"/><path d="M209.113,158.814l2.11,0l0,-11.531c0,-3.094 0.082,-5.52 0.246,-7.277c0.164,-1.758 0.621,-3.27 1.371,-4.536c0.75,-1.312 1.828,-2.378 3.234,-3.199c1.406,-0.82 2.977,-1.23 4.711,-1.23c2.438,0 4.641,0.914 6.61,2.742c1.312,1.219 2.144,2.707 2.496,4.465c0.351,1.758 0.527,4.254 0.527,7.488l0,13.078l7.031,0c2.719,0 4.793,0.645 6.223,1.934c1.43,1.289 2.144,2.941 2.144,4.957c0,2.578 -1.019,4.383 -3.058,5.414c-2.039,1.031 -4.957,1.547 -8.754,1.547l-3.586,0l0,35.297c0,3 0.105,5.308 0.316,6.925c0.211,1.618 0.774,2.93 1.688,3.938c0.914,1.008 2.402,1.512 4.465,1.512c1.125,0 2.648,-0.2 4.57,-0.598c1.922,-0.398 3.422,-0.598 4.5,-0.598c1.547,0 2.941,0.621 4.184,1.864c1.242,1.242 1.863,2.777 1.863,4.605c0,3.094 -1.688,5.461 -5.063,7.102c-3.375,1.64 -8.226,2.461 -14.554,2.461c-6,0 -10.547,-1.008 -13.641,-3.024c-3.094,-2.015 -5.121,-4.805 -6.082,-8.367c-0.961,-3.563 -1.441,-8.32 -1.441,-14.273l0,-36.844l-2.532,0c-2.765,0 -4.875,-0.656 -6.328,-1.969c-1.453,-1.312 -2.179,-2.977 -2.179,-4.992c0,-2.016 0.761,-3.668 2.285,-4.957c1.523,-1.289 3.738,-1.934 6.644,-1.934Z" style="fill:none;fill-rule:nonzero;stroke:#000;stroke-width:4px;"/><path d="M278.23,168.025l0,55.477c0,3.843 -0.914,6.75 -2.742,8.718c-1.828,1.969 -4.148,2.954 -6.961,2.954c-2.812,0 -5.097,-1.008 -6.855,-3.024c-1.758,-2.015 -2.637,-4.898 -2.637,-8.648l0,-54.914c0,-3.797 0.879,-6.657 2.637,-8.578c1.758,-1.922 4.043,-2.883 6.855,-2.883c2.813,0 5.133,0.961 6.961,2.883c1.828,1.921 2.742,4.593 2.742,8.015Zm-9.492,-19.828c-2.672,0 -4.957,-0.82 -6.855,-2.461c-1.899,-1.641 -2.848,-3.961 -2.848,-6.961c0,-2.719 0.973,-4.957 2.918,-6.715c1.945,-1.758 4.207,-2.636 6.785,-2.636c2.485,0 4.688,0.796 6.61,2.39c1.922,1.594 2.882,3.914 2.882,6.961c0,2.953 -0.937,5.262 -2.812,6.926c-1.875,1.664 -4.102,2.496 -6.68,2.496Z" style="fill:none;fill-rule:nonzero;stroke:#000;stroke-width:4px;"/><path d="M351.637,200.861l-37.547,0c0.047,4.359 0.926,8.203 2.637,11.531c1.711,3.328 3.984,5.836 6.82,7.524c2.836,1.687 5.965,2.531 9.387,2.531c2.296,0 4.394,-0.27 6.293,-0.809c1.898,-0.539 3.738,-1.382 5.519,-2.531c1.781,-1.148 3.422,-2.379 4.922,-3.691c1.5,-1.313 3.445,-3.094 5.836,-5.344c0.984,-0.844 2.391,-1.266 4.219,-1.266c1.968,0 3.562,0.539 4.781,1.618c1.219,1.078 1.828,2.601 1.828,4.57c0,1.734 -0.68,3.762 -2.039,6.082c-1.359,2.32 -3.41,4.547 -6.152,6.68c-2.743,2.132 -6.188,3.902 -10.336,5.308c-4.149,1.406 -8.918,2.11 -14.309,2.11c-12.328,0 -21.914,-3.516 -28.758,-10.547c-6.843,-7.032 -10.265,-16.571 -10.265,-28.617c0,-5.672 0.843,-10.934 2.531,-15.786c1.687,-4.851 4.148,-9.011 7.383,-12.48c3.234,-3.469 7.218,-6.129 11.953,-7.981c4.734,-1.851 9.984,-2.777 15.75,-2.777c7.5,0 13.933,1.582 19.301,4.746c5.367,3.164 9.386,7.254 12.058,12.27c2.672,5.015 4.008,10.125 4.008,15.328c0,4.828 -1.383,7.957 -4.148,9.387c-2.766,1.429 -6.657,2.144 -11.672,2.144Zm-37.547,-10.898l34.805,0c-0.469,-6.563 -2.239,-11.473 -5.309,-14.731c-3.07,-3.258 -7.113,-4.887 -12.129,-4.887c-4.781,0 -8.707,1.653 -11.777,4.957c-3.071,3.305 -4.934,8.192 -5.59,14.661Z" style="fill:none;fill-rule:nonzero;stroke:#000;stroke-width:4px;"/><path d="M488.465,211.408c0,2.391 -0.715,4.945 -2.145,7.664c-1.429,2.719 -3.609,5.309 -6.539,7.77c-2.929,2.46 -6.621,4.441 -11.074,5.941c-4.453,1.5 -9.469,2.25 -15.047,2.25c-11.859,0 -21.117,-3.457 -27.773,-10.371c-6.657,-6.914 -9.985,-16.184 -9.985,-27.809c0,-7.875 1.524,-14.836 4.571,-20.883c3.047,-6.046 7.453,-10.722 13.218,-14.027c5.766,-3.305 12.657,-4.957 20.672,-4.957c4.969,0 9.528,0.727 13.676,2.18c4.149,1.453 7.664,3.328 10.547,5.625c2.883,2.297 5.086,4.746 6.609,7.347c1.524,2.602 2.285,5.028 2.285,7.278c0,2.297 -0.855,4.242 -2.566,5.836c-1.711,1.593 -3.785,2.39 -6.223,2.39c-1.593,0 -2.918,-0.41 -3.972,-1.23c-1.055,-0.82 -2.239,-2.145 -3.551,-3.973c-2.344,-3.562 -4.793,-6.234 -7.348,-8.015c-2.554,-1.782 -5.8,-2.672 -9.738,-2.672c-5.672,0 -10.242,2.215 -13.711,6.644c-3.469,4.43 -5.203,10.489 -5.203,18.176c0,3.609 0.445,6.926 1.336,9.949c0.891,3.024 2.18,5.602 3.867,7.735c1.688,2.132 3.727,3.75 6.117,4.851c2.391,1.102 5.016,1.653 7.875,1.653c3.844,0 7.137,-0.891 9.879,-2.672c2.742,-1.782 5.168,-4.5 7.278,-8.157c1.171,-2.156 2.437,-3.843 3.796,-5.062c1.36,-1.219 3.024,-1.828 4.993,-1.828c2.343,0 4.289,0.89 5.836,2.672c1.546,1.781 2.32,3.679 2.32,5.695Z" style="fill-rule:nonzero;"/><path d="M501.613,223.502l0,-83.25c0,-3.844 0.856,-6.75 2.567,-8.719c1.711,-1.969 4.019,-2.953 6.925,-2.953c2.907,0 5.25,0.972 7.032,2.918c1.781,1.945 2.672,4.863 2.672,8.754l0,83.25c0,3.89 -0.903,6.808 -2.707,8.754c-1.805,1.945 -4.137,2.918 -6.997,2.918c-2.812,0 -5.097,-1.008 -6.855,-3.024c-1.758,-2.015 -2.637,-4.898 -2.637,-8.648Z" style="fill-rule:nonzero;"/><path d="M590.488,224.345l0,-2.46c-2.297,2.906 -4.711,5.343 -7.242,7.312c-2.531,1.969 -5.297,3.434 -8.297,4.395c-3,0.96 -6.422,1.441 -10.265,1.441c-4.641,0 -8.801,-0.961 -12.481,-2.883c-3.68,-1.922 -6.527,-4.57 -8.543,-7.945c-2.39,-4.078 -3.586,-9.938 -3.586,-17.578l0,-38.039c0,-3.844 0.867,-6.715 2.602,-8.614c1.734,-1.898 4.031,-2.847 6.89,-2.847c2.907,0 5.25,0.961 7.032,2.883c1.781,1.921 2.672,4.781 2.672,8.578l0,30.726c0,4.453 0.375,8.192 1.125,11.215c0.75,3.023 2.097,5.391 4.043,7.102c1.945,1.711 4.582,2.566 7.91,2.566c3.234,0 6.281,-0.961 9.14,-2.883c2.86,-1.922 4.946,-4.429 6.258,-7.523c1.078,-2.719 1.617,-8.672 1.617,-17.86l0,-23.343c0,-3.797 0.891,-6.657 2.672,-8.578c1.781,-1.922 4.102,-2.883 6.961,-2.883c2.859,0 5.156,0.949 6.891,2.847c1.734,1.899 2.601,4.77 2.601,8.614l0,55.617c0,3.656 -0.832,6.398 -2.496,8.226c-1.664,1.829 -3.808,2.743 -6.433,2.743c-2.625,0 -4.793,-0.95 -6.504,-2.848c-1.711,-1.899 -2.567,-4.559 -2.567,-7.981Z" style="fill-rule:nonzero;"/><path d="M645.332,139.549l0,29.32c3.609,-3.75 7.289,-6.621 11.039,-8.613c3.75,-1.993 8.391,-2.989 13.922,-2.989c6.375,0 11.965,1.512 16.769,4.535c4.805,3.024 8.532,7.407 11.18,13.149c2.649,5.742 3.973,12.551 3.973,20.426c0,5.812 -0.738,11.144 -2.215,15.996c-1.477,4.851 -3.621,9.058 -6.434,12.621c-2.812,3.562 -6.222,6.316 -10.23,8.262c-4.008,1.945 -8.426,2.918 -13.254,2.918c-2.953,0 -5.73,-0.352 -8.332,-1.055c-2.602,-0.703 -4.816,-1.629 -6.645,-2.777c-1.828,-1.149 -3.386,-2.332 -4.675,-3.551c-1.289,-1.219 -2.989,-3.047 -5.098,-5.485l0,1.899c0,3.609 -0.867,6.34 -2.602,8.191c-1.734,1.852 -3.937,2.778 -6.609,2.778c-2.719,0 -4.887,-0.926 -6.504,-2.778c-1.617,-1.851 -2.426,-4.582 -2.426,-8.191l0,-83.813c0,-3.89 0.786,-6.832 2.356,-8.824c1.57,-1.992 3.762,-2.988 6.574,-2.988c2.953,0 5.227,0.949 6.82,2.847c1.594,1.899 2.391,4.606 2.391,8.122Zm0.914,57.023c0,7.641 1.746,13.512 5.238,17.613c3.493,4.102 8.075,6.153 13.746,6.153c4.829,0 8.989,-2.098 12.481,-6.293c3.492,-4.196 5.238,-10.207 5.238,-18.035c0,-5.063 -0.726,-9.422 -2.179,-13.079c-1.454,-3.656 -3.516,-6.48 -6.188,-8.472c-2.672,-1.992 -5.789,-2.989 -9.352,-2.989c-3.656,0 -6.914,0.997 -9.773,2.989c-2.859,1.992 -5.109,4.875 -6.75,8.648c-1.641,3.774 -2.461,8.262 -2.461,13.465Z" style="fill-rule:nonzero;"/></g><g><path d="M186.62,81.204l-39.148,0l1.92,27.308l-13.974,1.066l-1.813,-28.374l-41.281,0l0,-10.88l40.748,0l-1.707,-28.375l-32.321,0l0,-10.88l31.574,0l-0.96,-17.494l10.774,0.107c1.92,0 2.844,0.355 2.773,1.066c-0.213,1.138 -0.32,2.276 -0.32,3.414c0,1.138 0.107,2.987 0.32,5.547l0.534,7.36l37.228,0l0,10.88l-36.375,0l2.133,28.375l39.895,0l0,10.88Z" style="fill-rule:nonzero;"/><path d="M291.797,97.738l-73.176,0l0,-9.067l41.495,0c2.347,-5.547 4.143,-10.507 5.387,-14.881c1.245,-4.373 2.258,-9.618 3.04,-15.733c0.782,-6.116 1.174,-10.632 1.174,-13.548c0,-2.915 -0.303,-4.675 -0.907,-5.28c-0.605,-0.604 -1.76,-0.906 -3.467,-0.906l-34.881,0l0,-9.494l46.508,0c1.138,0 1.867,0.124 2.187,0.373c0.32,0.249 0.48,0.8 0.48,1.654l0,9.173c0,9.601 -0.693,18.134 -2.08,25.601c-1.387,7.467 -3.645,15.147 -6.774,23.041l21.014,0l0,9.067Z" style="fill-rule:nonzero;"/><path d="M411.055,63.283c-12.374,-0.782 -26.241,-1.173 -41.602,-1.173c-15.36,0 -28.872,0.391 -40.534,1.173l0,-10.133c9.671,0.64 23.254,0.96 40.748,0.96c17.494,0 31.29,-0.32 41.388,-0.96l0,10.133Z" style="fill:none;fill-rule:nonzero;stroke:#000;stroke-width:4px;"/><path d="M522.099,30.002l-75.523,0l0,-10.88l75.523,0l0,10.88Zm10.027,31.468l-35.628,0c-0.569,14.934 -3.058,25.654 -7.467,32.161c-4.409,6.507 -11.912,11.965 -22.507,16.374l-13.761,-8.427c9.387,-2.062 16.783,-5.813 22.188,-11.254c5.404,-5.44 7.822,-15.058 7.253,-28.854l-44.588,0l0,-11.414l94.51,0l0,11.414Z" style="fill:none;fill-rule:nonzero;stroke:#000;stroke-width:4px;"/><path d="M632.076,21.575c2.347,1.849 5.369,3.84 9.067,5.974c0.356,0.213 0.533,0.427 0.533,0.64c0,0.213 -0.213,0.48 -0.64,0.8c-0.426,0.32 -1.315,1.084 -2.666,2.293c-8.818,8.178 -18.063,15.432 -27.735,21.761l0,44.482l-10.773,0l0,-37.655c-8.463,4.693 -18.134,9.245 -29.015,13.654l-8.107,-8.747c28.019,-9.743 51.131,-24.143 69.336,-43.202Z" style="fill:none;fill-rule:nonzero;stroke:#000;stroke-width:4px;"/><path d="M237.715,323.283c-12.373,-0.782 -26.241,-1.173 -41.601,-1.173c-15.361,0 -28.872,0.391 -40.535,1.173l0,-10.133c9.672,0.64 23.254,0.96 40.748,0.96c17.494,0 31.29,-0.32 41.388,-0.96l0,10.133Z" style="fill:none;fill-rule:nonzero;stroke:#000;stroke-width:4px;"/><path d="M281.877,309.31c6.329,-4.907 11.36,-9.476 15.094,-13.708c3.733,-4.231 6.418,-8.587 8.053,-13.067c0.498,-1.351 1.12,-2.258 1.867,-2.72c0.747,-0.462 2.045,-0.693 3.894,-0.693l56.535,0c1.991,0 3.342,0.231 4.053,0.693c0.712,0.462 1.067,1.742 1.067,3.84c0,2.098 -0.818,6.845 -2.453,14.241c-1.636,7.396 -3.858,14.258 -6.667,20.587c-2.809,6.329 -6.116,11.965 -9.92,16.908c-3.805,4.942 -8.054,9.404 -12.748,13.387c-4.693,3.982 -9.778,7.662 -15.253,11.04c-5.476,3.378 -11.841,6.916 -19.095,10.614l-10.667,-9.067c11.734,-5.476 21.37,-10.898 28.908,-16.267c7.538,-5.37 13.725,-11.272 18.561,-17.708c4.836,-6.436 8.551,-13.351 11.147,-20.747c2.596,-7.396 3.893,-12.125 3.893,-14.187c0,-0.854 -0.249,-1.476 -0.746,-1.867c-0.498,-0.391 -1.778,-0.587 -3.84,-0.587l-32.962,0c-2.062,0 -3.431,0.196 -4.106,0.587c-0.676,0.391 -1.512,1.404 -2.507,3.04c-2.276,3.627 -5.405,7.503 -9.387,11.627c-3.983,4.125 -8.143,7.68 -12.481,10.667l-10.24,-6.613Z" style="fill:none;fill-rule:nonzero;stroke:#000;stroke-width:4px;"/><path d="M474.097,290.216l-77.229,0l0,-11.307l77.229,0l0,11.307Zm-84.27,17.174l88.217,0c1.28,0 2.08,0.284 2.4,0.853c0.32,0.569 0.48,2.631 0.48,6.187c0,3.555 -0.498,7.2 -1.493,10.934c-0.996,3.733 -2.56,7.449 -4.694,11.147c-2.133,3.697 -4.64,6.969 -7.52,9.813c-2.88,2.845 -6.987,5.885 -12.321,9.121c-5.333,3.235 -10.809,5.938 -16.427,8.107c-5.618,2.169 -12.516,4.177 -20.694,6.026l-9.6,-10.24c15.005,-2.631 26.756,-6.382 35.254,-11.254c8.498,-4.871 14.401,-10.027 17.708,-15.467c3.306,-5.44 4.96,-9.12 4.96,-11.04c0,-0.996 -0.427,-1.689 -1.28,-2.08c-0.854,-0.391 -2.347,-0.587 -4.48,-0.587l-70.51,0l0,-11.52Z" style="fill-rule:nonzero;"/><path d="M595.061,283.282l-4.586,1.92c-1.351,-5.476 -3.2,-10.276 -5.547,-14.4l3.947,-1.28c2.204,4.053 4.266,8.64 6.186,13.76Zm-7.466,0l-4.907,2.133c-1.423,-5.262 -3.236,-9.991 -5.44,-14.187l4.053,-1.493c2.347,3.911 4.445,8.427 6.294,13.547Zm-89.177,-1.067l75.309,0c3.841,0 6.507,1.227 8.001,3.68c1.493,2.454 2.24,7.343 2.24,14.668c0,7.324 -1.423,14.56 -4.267,21.707c-2.845,7.147 -7.396,14.276 -13.654,21.387c-6.258,7.112 -11.983,12.339 -17.174,15.681c-5.191,3.342 -11.414,6.223 -18.667,8.64l-10.241,-9.173c11.663,-3.627 21.352,-8.925 29.068,-15.894c7.716,-6.969 13.352,-14.365 16.907,-22.188c3.556,-7.822 5.334,-15.04 5.334,-21.654c0,-2.418 -0.32,-3.964 -0.96,-4.64c-0.64,-0.676 -1.991,-1.013 -4.054,-1.013l-67.842,0l0,-11.201Z" style="fill-rule:nonzero;"/></g></g></g></svg>