<?xml version="1.0" encoding="UTF-8" standalone="no"?><!DOCTYPE svg PUBLIC "-//W3C//DTD SVG 1.1//EN" "http://www.w3.org/Graphics/SVG/1.1/DTD/svg11.dtd"><svg width="100%" height="100%" viewBox="0 0 360 360" version="1.1" xmlns="http://www.w3.org/2000/svg" xmlns:xlink="http://www.w3.org/1999/xlink" xml:space="preserve" xmlns:serif="http://www.serif.com/" style="fill-rule:evenodd;clip-rule:evenodd;stroke-linecap:round;stroke-linejoin:round;stroke-miterlimit:1.5;"><g id="LOGO-STAMP" serif:id="LOGO STAMP"><g><g id="_-cutie-club-キューティー-クラブ-" serif:id="(cutie club キューティー クラブ)"><path d="M73.592,105.599c1.156,0.603 2.205,1.597 3.146,2.981c0.941,1.384 1.624,3.102 2.048,5.154c0.425,2.052 0.418,4.356 -0.02,6.91c-0.439,2.554 -1.387,5.194 -2.844,7.919c-3.099,5.795 -7.19,9.447 -12.273,10.956c-5.083,1.508 -10.435,0.797 -16.057,-2.135c-3.808,-1.986 -6.776,-4.486 -8.904,-7.499c-2.128,-3.014 -3.238,-6.346 -3.329,-9.997c-0.092,-3.65 0.91,-7.434 3.004,-11.351c1.299,-2.427 2.841,-4.472 4.628,-6.132c1.787,-1.661 3.612,-2.906 5.476,-3.735c1.864,-0.829 3.625,-1.288 5.281,-1.376c1.656,-0.089 3.028,0.151 4.116,0.718c1.111,0.579 1.828,1.488 2.152,2.726c0.323,1.238 0.167,2.452 -0.47,3.643c-0.417,0.779 -0.961,1.323 -1.634,1.631c-0.672,0.309 -1.622,0.553 -2.849,0.733c-2.335,0.247 -4.267,0.77 -5.796,1.569c-1.529,0.799 -2.808,2.161 -3.837,4.085c-1.482,2.771 -1.605,5.563 -0.369,8.375c1.235,2.812 3.712,5.187 7.43,7.126c1.745,0.91 3.465,1.529 5.16,1.856c1.695,0.327 3.278,0.348 4.751,0.061c1.472,-0.287 2.787,-0.875 3.944,-1.766c1.158,-0.89 2.11,-2.034 2.857,-3.431c1.005,-1.878 1.434,-3.712 1.29,-5.501c-0.145,-1.789 -0.826,-3.66 -2.043,-5.612c-0.736,-1.117 -1.222,-2.161 -1.456,-3.132c-0.234,-0.972 -0.094,-1.939 0.421,-2.901c0.612,-1.145 1.551,-1.871 2.817,-2.177c1.265,-0.307 2.385,-0.206 3.36,0.302Z" style="fill:none;fill-rule:nonzero;"/><path d="M107.581,83.91l-0.858,-1.027c0.031,2.027 -0.152,3.9 -0.548,5.619c-0.397,1.719 -1.069,3.311 -2.018,4.776c-0.948,1.465 -2.245,2.879 -3.889,4.242c-1.986,1.646 -4.101,2.721 -6.346,3.224c-2.245,0.504 -4.387,0.409 -6.426,-0.284c-2.445,-0.853 -5,-2.874 -7.665,-6.061l-13.267,-15.868c-1.34,-1.604 -1.97,-3.109 -1.89,-4.516c0.08,-1.407 0.731,-2.618 1.955,-3.632c1.243,-1.031 2.581,-1.461 4.014,-1.291c1.432,0.17 2.81,1.047 4.135,2.631l10.716,12.817c1.553,1.858 3.017,3.285 4.392,4.28c1.376,0.995 2.778,1.505 4.207,1.528c1.429,0.024 2.856,-0.554 4.28,-1.735c1.384,-1.147 2.352,-2.628 2.905,-4.444c0.554,-1.816 0.571,-3.602 0.054,-5.358c-0.487,-1.517 -2.332,-4.191 -5.537,-8.024l-8.141,-9.738c-1.324,-1.584 -1.94,-3.092 -1.848,-4.526c0.091,-1.433 0.749,-2.657 1.973,-3.671c1.223,-1.014 2.537,-1.433 3.941,-1.256c1.404,0.176 2.777,1.067 4.117,2.67l19.397,23.201c1.275,1.525 1.876,2.964 1.801,4.317c-0.074,1.353 -0.673,2.495 -1.796,3.426c-1.123,0.931 -2.382,1.304 -3.776,1.119c-1.394,-0.185 -2.688,-0.992 -3.882,-2.419Z" style="fill:none;fill-rule:nonzero;"/><path d="M113.032,39.879l1.091,-0.429l-2.275,-5.841c-0.611,-1.567 -1.047,-2.812 -1.309,-3.736c-0.262,-0.924 -0.324,-1.783 -0.186,-2.576c0.129,-0.817 0.476,-1.577 1.042,-2.278c0.566,-0.702 1.297,-1.229 2.194,-1.581c1.261,-0.496 2.582,-0.481 3.961,0.045c0.92,0.35 1.644,0.935 2.173,1.754c0.528,0.819 1.112,2.047 1.75,3.686l2.581,6.624l3.638,-1.429c1.406,-0.553 2.607,-0.649 3.601,-0.286c0.994,0.362 1.69,1.054 2.088,2.075c0.508,1.306 0.337,2.427 -0.514,3.364c-0.852,0.937 -2.26,1.791 -4.224,2.563l-1.855,0.729l6.966,17.88c0.592,1.519 1.102,2.667 1.53,3.443c0.429,0.777 0.979,1.327 1.651,1.652c0.671,0.324 1.541,0.277 2.608,-0.142c0.582,-0.229 1.331,-0.64 2.246,-1.232c0.916,-0.593 1.653,-0.999 2.211,-1.218c0.8,-0.315 1.644,-0.284 2.532,0.093c0.887,0.377 1.512,1.028 1.873,1.954c0.61,1.567 0.204,3.109 -1.218,4.627c-1.422,1.517 -3.77,2.919 -7.044,4.206c-3.104,1.219 -5.656,1.634 -7.654,1.242c-1.998,-0.392 -3.598,-1.393 -4.798,-3.002c-1.2,-1.609 -2.388,-3.922 -3.563,-6.937l-7.271,-18.663l-1.309,0.515c-1.431,0.562 -2.652,0.659 -3.663,0.289c-1.011,-0.369 -1.715,-1.064 -2.113,-2.085c-0.398,-1.021 -0.33,-2.013 0.204,-2.976c0.534,-0.962 1.553,-1.739 3.056,-2.33Z" style="fill:none;fill-rule:nonzero;"/><path d="M157.44,31.989l5.269,29.724c0.365,2.06 0.142,3.709 -0.67,4.948c-0.811,1.239 -1.985,2 -3.521,2.283c-1.536,0.283 -2.88,-0.027 -4.031,-0.93c-1.152,-0.903 -1.906,-2.359 -2.262,-4.368l-5.215,-29.423c-0.361,-2.034 -0.152,-3.655 0.625,-4.862c0.778,-1.206 1.934,-1.951 3.47,-2.235c1.537,-0.283 2.895,-0.002 4.076,0.844c1.181,0.846 1.934,2.185 2.259,4.019Zm-7.067,-9.668c-1.46,0.269 -2.786,0.059 -3.978,-0.629c-1.193,-0.688 -1.932,-1.835 -2.217,-3.443c-0.258,-1.456 0.061,-2.754 0.956,-3.891c0.896,-1.138 2.048,-1.837 3.456,-2.096c1.356,-0.25 2.635,-0.045 3.836,0.615c1.201,0.661 1.946,1.807 2.236,3.44c0.28,1.582 -0.012,2.913 -0.878,3.994c-0.866,1.08 -2.003,1.75 -3.411,2.01Z" style="fill:none;fill-rule:nonzero;"/><path d="M204.688,50.026l-20.707,-1.964c-0.224,2.367 0.041,4.499 0.794,6.394c0.753,1.895 1.863,3.374 3.33,4.438c1.468,1.064 3.145,1.685 5.032,1.864c1.267,0.12 2.439,0.084 3.517,-0.109c1.078,-0.193 2.141,-0.555 3.189,-1.085c1.048,-0.53 2.023,-1.111 2.926,-1.745c0.902,-0.634 2.077,-1.498 3.524,-2.594c0.592,-0.406 1.391,-0.561 2.399,-0.466c1.086,0.103 1.934,0.479 2.545,1.128c0.61,0.648 0.859,1.507 0.746,2.575c-0.099,0.941 -0.59,2.005 -1.473,3.193c-0.882,1.187 -2.141,2.288 -3.775,3.302c-1.635,1.013 -3.636,1.793 -6.004,2.339c-2.369,0.546 -5.04,0.678 -8.012,0.396c-6.799,-0.645 -11.885,-3.054 -15.256,-7.226c-3.372,-4.173 -4.713,-9.527 -4.023,-16.062c0.325,-3.077 1.092,-5.888 2.3,-8.432c1.209,-2.543 2.804,-4.672 4.787,-6.384c1.982,-1.713 4.332,-2.948 7.049,-3.704c2.717,-0.757 5.665,-0.985 8.845,-0.683c4.136,0.392 7.593,1.587 10.372,3.584c2.779,1.998 4.762,4.427 5.948,7.287c1.186,2.861 1.63,5.703 1.332,8.526c-0.276,2.619 -1.218,4.244 -2.825,4.875c-1.607,0.631 -3.794,0.815 -6.56,0.553Zm-20.083,-7.877l19.195,1.821c0.117,-3.585 -0.577,-6.341 -2.084,-8.269c-1.507,-1.928 -3.643,-3.023 -6.409,-3.286c-2.637,-0.25 -4.897,0.441 -6.779,2.073c-1.883,1.633 -3.19,4.186 -3.923,7.661Z" style="fill:none;fill-rule:nonzero;"/><path d="M274.112,91.27c-0.781,1.053 -1.935,1.947 -3.46,2.682c-1.525,0.734 -3.342,1.169 -5.45,1.303c-2.109,0.134 -4.4,-0.19 -6.873,-0.973c-2.473,-0.783 -4.951,-2.079 -7.435,-3.888c-5.28,-3.846 -8.272,-8.371 -8.976,-13.577c-0.705,-5.205 0.843,-10.369 4.642,-15.492c2.574,-3.47 5.527,-6.044 8.86,-7.72c3.333,-1.677 6.822,-2.308 10.47,-1.895c3.647,0.413 7.255,1.92 10.824,4.519c2.212,1.611 4.004,3.41 5.377,5.396c1.372,1.985 2.324,3.951 2.857,5.898c0.533,1.947 0.714,3.741 0.542,5.382c-0.172,1.64 -0.626,2.956 -1.361,3.948c-0.751,1.012 -1.767,1.592 -3.05,1.739c-1.283,0.148 -2.467,-0.174 -3.552,-0.964c-0.71,-0.517 -1.165,-1.127 -1.367,-1.831c-0.201,-0.703 -0.295,-1.671 -0.282,-2.902c0.12,-2.33 -0.097,-4.301 -0.652,-5.915c-0.556,-1.613 -1.71,-3.058 -3.463,-4.335c-2.525,-1.84 -5.284,-2.346 -8.276,-1.518c-2.992,0.827 -5.745,2.934 -8.257,6.322c-1.18,1.59 -2.065,3.196 -2.657,4.817c-0.591,1.621 -0.86,3.176 -0.805,4.663c0.054,1.487 0.433,2.861 1.138,4.121c0.704,1.261 1.693,2.355 2.966,3.282c1.711,1.247 3.469,1.922 5.272,2.026c1.803,0.105 3.771,-0.307 5.906,-1.234c1.226,-0.57 2.341,-0.903 3.345,-1c1.003,-0.096 1.943,0.175 2.82,0.814c1.043,0.76 1.618,1.783 1.725,3.07c0.107,1.286 -0.169,2.374 -0.828,3.262Z" style="fill:none;fill-rule:nonzero;"/><path d="M274.286,103.289l35.783,-28.505c1.652,-1.316 3.196,-1.944 4.631,-1.885c1.435,0.06 2.653,0.713 3.654,1.959c1,1.246 1.389,2.584 1.166,4.014c-0.223,1.43 -1.171,2.811 -2.843,4.143l-35.783,28.506c-1.672,1.332 -3.237,1.944 -4.695,1.836c-1.457,-0.108 -2.678,-0.775 -3.662,-2.001c-0.968,-1.206 -1.322,-2.531 -1.061,-3.975c0.262,-1.444 1.198,-2.807 2.81,-4.092Z" style="fill:none;fill-rule:nonzero;"/><path d="M298.388,145.594l1.244,-0.531c-1.962,-0.536 -3.712,-1.231 -5.251,-2.087c-1.539,-0.857 -2.873,-1.94 -4.003,-3.251c-1.13,-1.311 -2.108,-2.939 -2.933,-4.884c-0.997,-2.349 -1.404,-4.662 -1.223,-6.939c0.181,-2.277 0.908,-4.29 2.182,-6.039c1.548,-2.09 4.253,-3.96 8.115,-5.609l19.229,-8.21c1.943,-0.83 3.581,-1.011 4.913,-0.543c1.332,0.468 2.305,1.426 2.919,2.873c0.624,1.471 0.641,2.864 0.052,4.181c-0.589,1.316 -1.843,2.384 -3.762,3.203l-15.532,6.633c-2.251,0.961 -4.06,1.958 -5.428,2.99c-1.367,1.032 -2.274,2.225 -2.721,3.579c-0.448,1.354 -0.314,2.873 0.401,4.557c0.694,1.637 1.835,2.972 3.42,4.004c1.586,1.032 3.301,1.547 5.147,1.543c1.606,-0.041 4.731,-1.053 9.375,-3.036l11.8,-5.039c1.92,-0.819 3.556,-0.986 4.91,-0.499c1.354,0.487 2.338,1.453 2.952,2.901c0.614,1.447 0.628,2.814 0.04,4.102c-0.587,1.287 -1.852,2.346 -3.795,3.175l-28.114,12.005c-1.848,0.789 -3.413,0.96 -4.695,0.513c-1.281,-0.448 -2.204,-1.336 -2.767,-2.665c-0.564,-1.328 -0.55,-2.63 0.042,-3.906c0.593,-1.276 1.754,-2.283 3.483,-3.021Z" style="fill:none;fill-rule:nonzero;"/><path d="M351.135,174.667l-16.075,0.157c2.056,1.969 3.631,3.982 4.724,6.038c1.093,2.056 1.639,4.608 1.64,7.657c0.001,3.514 -0.827,6.603 -2.484,9.267c-1.657,2.664 -4.06,4.742 -7.208,6.232c-3.148,1.491 -6.88,2.257 -11.198,2.299c-3.187,0.031 -6.11,-0.347 -8.771,-1.135c-2.66,-0.788 -4.967,-1.947 -6.92,-3.478c-1.954,-1.531 -3.464,-3.396 -4.531,-5.594c-1.067,-2.199 -1.601,-4.629 -1.602,-7.29c0,-1.627 0.192,-3.16 0.577,-4.598c0.385,-1.437 0.893,-2.663 1.522,-3.677c0.629,-1.013 1.278,-1.879 1.946,-2.596c0.668,-0.717 1.67,-1.663 3.006,-2.839l-1.04,0.01c-1.979,0.02 -3.477,-0.444 -4.492,-1.39c-1.015,-0.946 -1.523,-2.155 -1.524,-3.628c0,-1.498 0.507,-2.698 1.522,-3.599c1.015,-0.901 2.512,-1.362 4.491,-1.381l45.952,-0.449c2.134,-0.021 3.746,0.396 4.839,1.251c1.092,0.854 1.639,2.057 1.639,3.607c0,1.628 -0.52,2.886 -1.56,3.774c-1.041,0.889 -2.525,1.343 -4.453,1.362Zm-31.264,0.809c-4.189,0.041 -7.408,1.035 -9.656,2.982c-2.248,1.946 -3.372,4.483 -3.371,7.609c0,2.661 1.151,4.943 3.451,6.845c2.301,1.902 5.597,2.832 9.889,2.79c2.776,-0.027 5.166,-0.451 7.171,-1.271c2.004,-0.821 3.552,-1.973 4.644,-3.456c1.092,-1.483 1.638,-3.207 1.637,-5.17c0,-2.015 -0.547,-3.806 -1.64,-5.371c-1.092,-1.565 -2.673,-2.79 -4.742,-3.674c-2.069,-0.884 -4.53,-1.312 -7.383,-1.284Z" style="fill:none;fill-rule:nonzero;"/><path d="M318.372,252.889l1.54,-4.403c0.763,-2.224 1.158,-3.254 1.81,-4.564l-5.398,-1.759c-0.314,1.371 -0.554,2.107 -1.491,4.802l-1.495,4.388l-4.025,-1.205l2.083,-6.067c0.637,-1.914 1.171,-3.21 1.747,-4.446l-5.368,-1.744c-0.509,2.092 -0.558,2.254 -1.305,4.448l-2.163,6.289l-4.595,-1.386c-2.43,-0.723 -3.336,-1.039 -4.326,-1.546l-2.039,6.053c1.293,0.214 1.615,0.304 4.367,1.118l4.655,1.342l-2.081,5.993c-0.951,2.651 -0.951,2.651 -1.658,4.417l5.385,1.642c0.272,-1.43 0.579,-2.506 1.327,-4.7l2.048,-5.861l4.041,1.176l-1.716,4.948c-1.206,3.416 -1.206,3.416 -1.645,4.461l5.325,1.685c0.303,-1.488 0.591,-2.387 1.369,-4.64l1.716,-4.948l1.772,0.498c1.464,0.451 2.531,0.812 3.449,1.246l2.033,-5.832c-0.999,-0.139 -1.688,-0.305 -3.693,-0.922l-1.669,-0.483Z" style="fill-rule:nonzero;"/><path d="M275.826,283.13c1.847,2.329 4.082,5.103 5.489,6.802c2.062,2.481 2.062,2.481 2.369,3.35l3.24,-0.464c0.215,-0.662 0.439,-0.999 1.029,-1.633l5.493,-5.904c1.634,-1.757 2.112,-2.222 3.186,-3.137l-3.656,-3.355c-0.677,0.871 -1.334,1.625 -2.855,3.26l-4.358,4.684c-2.833,-3.234 -3.513,-4.084 -6.192,-7.628l5.607,-6.026c1.657,-1.781 2.203,-2.32 3.185,-3.136l-3.656,-3.356c-0.745,0.945 -1.47,1.772 -2.945,3.357l-10.622,11.418c-1.158,1.244 -2.271,2.393 -3.093,3.132l3.656,3.355c0.699,-0.942 1.558,-1.962 2.83,-3.328l1.293,-1.391Z" style="fill-rule:nonzero;"/><path d="M267.019,298.909c-1.647,1.205 -2.568,1.81 -5.749,3.768l-13.523,8.323c-3.238,1.994 -4.505,2.735 -5.955,3.436l3.305,5.356c1.784,-1.365 2.829,-2.085 5.67,-3.834l13.579,-8.358c2.955,-1.818 4.523,-2.707 5.978,-3.335l-3.305,-5.356Z" style="fill-rule:nonzero;"/><path d="M211.64,327.578c-2.847,0.836 -3.135,0.921 -5.036,1.309l1.511,5.236c1.385,-0.611 2.176,-0.878 5.023,-1.714l17.818,-5.234c2.655,-0.78 3.56,-1.012 4.999,-1.197l-1.52,-5.267c-1.243,0.502 -2.13,0.796 -4.785,1.576l-6.558,1.927c-1.191,-5.092 0.531,-8.624 5.897,-12.037c-2.435,-1.223 -3.369,-1.935 -5.172,-3.854c-3.908,3.053 -5.792,5.544 -6.737,8.883c-0.761,2.774 -0.772,5.022 0.03,8.765l-5.47,1.607Zm21.848,2.118c-1.18,0.482 -2.035,0.767 -4.818,1.585l-11.388,3.345c-3.263,0.959 -3.784,1.078 -5.067,1.319l1.528,5.298c1.344,-0.633 2.071,-0.88 5.046,-1.754l11.196,-3.289c2.783,-0.818 3.528,-1.003 5.031,-1.206l-1.528,-5.298Z" style="fill-rule:nonzero;"/><path d="M175.782,340.511c1.008,-1.691 3.307,-3.935 6.108,-5.995c3.887,-2.869 8.284,-4.997 13.388,-6.521c-1.352,-1.571 -2.134,-2.796 -2.891,-4.577c-4.767,1.843 -5.825,2.325 -8.63,4.058l-0.094,-6.832c-0.032,-2.387 0.022,-3.238 0.171,-4.517l-5.922,0.137c0.183,1.173 0.233,2.381 0.262,4.506l0.138,10.069c-2.307,1.688 -4.312,3.467 -6.082,5.47c-0.721,0.801 -0.721,0.801 -1.149,1.171l4.701,3.031Z" style="fill-rule:nonzero;"/><path d="M158.931,326.929c-2.004,-0.34 -3.073,-0.578 -6.675,-1.495l-15.307,-3.894c-3.665,-0.933 -5.072,-1.325 -6.573,-1.876l-1.63,6.115c2.214,0.326 3.453,0.574 6.668,1.392l15.371,3.911c3.345,0.851 5.064,1.356 6.517,1.962l1.629,-6.115Z" style="fill-rule:nonzero;"/><path d="M92.298,320.299c0.794,-0.853 1.741,-1.521 3.428,-2.442c4.18,-2.249 8.047,-3.237 12.994,-3.29c-1.051,-2.31 -1.321,-3.37 -1.625,-5.886c-4.003,0.257 -7.205,0.983 -10.915,2.556l-7.322,-4.872c3.17,-2.419 6.465,-3.916 9.895,-4.565c4.057,-0.74 8.1,-0.533 12.955,0.706c-0.609,-2.367 -0.723,-3.998 -0.423,-6.342c-5.888,-1.027 -10.459,-0.996 -14.898,0.12c-4.282,1.064 -8.581,3.311 -13.091,6.847c-1.228,0.956 -1.423,1.062 -2.126,1.379l0.727,3.761c0.825,0.204 1.163,0.355 2.228,1.081l6.913,4.592c-0.454,0.248 -0.454,0.248 -1.354,0.79c-0.13,0.071 -0.343,0.204 -0.64,0.4c-0.195,0.106 -0.362,0.231 -0.473,0.275c-0.381,0.258 -0.492,0.302 -0.797,0.452l4.524,4.438Z" style="fill-rule:nonzero;"/><path d="M68.963,292.784c-1.035,-1.028 -1.527,-1.563 -3.203,-3.559l-6.875,-8.188c-1.464,-1.743 -2.41,-2.973 -3.141,-3.997l-4.257,3.544c0.895,0.758 1.858,1.802 3.534,3.798l6.769,8.062c1.506,1.794 2.24,2.771 2.916,3.883l4.257,-3.543Zm8.096,-3.176c-1.464,-1.487 -1.85,-1.895 -3.526,-3.892l-9.187,-10.942c3.04,-0.942 5.418,-1.032 8.335,-0.326c2.896,0.68 5.235,1.824 8.567,4.203c0.391,-2.816 0.835,-4.388 1.779,-6.289c-4.25,-2.345 -6.766,-3.341 -10,-3.912c-4.157,-0.747 -8.523,-0.204 -13.402,1.625c-1.336,0.511 -1.48,0.545 -2.19,0.621l-0.474,3.743c0.784,0.421 0.958,0.576 1.976,1.789l10.651,12.686c1.783,2.123 2.411,2.974 3.214,4.237l4.257,-3.543Z" style="fill-rule:nonzero;"/><path d="M34.843,241.219l-0.995,-1.068c-1.62,1.613 -2.842,3.226 -3.633,4.75l2.056,2.359c0.519,-0.927 0.862,-1.447 1.417,-2.137l0.155,-0.217l0.062,-0.101c0.266,0.423 0.665,1.219 1.145,2.27l5.889,12.903c1.232,2.701 1.528,3.508 1.883,4.761l5.366,-2.46c-0.657,-1.042 -0.96,-1.628 -2.261,-4.479l-5.889,-12.903c7.621,-1.571 15.494,1.46 21.669,8.318c1.061,-2.918 1.645,-4.02 3.297,-6.12c-8.555,-7.545 -16.846,-9.985 -27.531,-8.135c-0.474,0.073 -0.771,0.136 -0.875,0.148c-0.237,0.036 -0.371,0.061 -0.725,0.078l-1.03,2.033Zm-5.398,2.075c1.096,-1.809 1.853,-2.773 3.549,-4.457l-2.006,-2.092c-1.522,1.351 -2.573,2.703 -3.459,4.416l1.916,2.133Z" style="fill-rule:nonzero;"/></g><g id="blips"><g><path d="M24.063,185.7c0,-4.841 3.93,-8.771 8.771,-8.771c4.841,0 8.771,3.93 8.771,8.771c0,4.841 -3.93,8.771 -8.771,8.771c-4.841,0 -8.771,-3.93 -8.771,-8.771Z" style="stroke:#000;stroke-width:9px;"/><path d="M51.159,185.7l-14.082,7.634l0,-15.268l14.082,7.634Z" style="stroke:#000;stroke-width:9px;"/></g><g><path d="M336.019,185.7c0,-4.841 -3.93,-8.771 -8.771,-8.771c-4.841,0 -8.771,3.93 -8.771,8.771c0,4.841 3.93,8.771 8.771,8.771c4.841,0 8.771,-3.93 8.771,-8.771Z" style="stroke:#000;stroke-width:9px;"/><path d="M308.923,185.7l14.081,7.634l0,-15.268l-14.081,7.634Z" style="stroke:#000;stroke-width:9px;"/></g></g><path id="rubber-ring" serif:id="rubber ring" d="M180.388,78.461l0.346,0.002l0.692,0.006l0.346,0.005l0.345,0.006l0.69,0.016l0.345,0.009l0.344,0.01l0.688,0.024l0.343,0.014l0.686,0.03l0.343,0.017l0.342,0.018l0.342,0.019l0.342,0.02l0.342,0.021l0.682,0.046l0.341,0.024l0.68,0.052l0.34,0.028l0.339,0.028l0.678,0.06l0.339,0.032l0.338,0.033l0.338,0.034l0.338,0.035l0.337,0.036l0.337,0.037l0.337,0.038l0.336,0.039l0.336,0.04l0.336,0.041l0.335,0.042l0.336,0.043l0.334,0.044l0.335,0.046l0.334,0.046l0.334,0.047l0.666,0.098l0.333,0.05l0.333,0.052l0.332,0.052l0.332,0.053l0.662,0.11l0.662,0.114l0.66,0.118l0.658,0.122l0.329,0.063l0.328,0.063l0.656,0.13l0.327,0.067l0.654,0.136l0.326,0.069l0.326,0.071l0.325,0.071l0.65,0.146l0.648,0.15l0.324,0.077l0.323,0.077l0.323,0.078l0.322,0.08l0.323,0.08l0.321,0.081l0.322,0.082l0.32,0.083l0.321,0.085l0.32,0.085l0.32,0.086l0.319,0.087l0.319,0.088l0.319,0.089l0.318,0.09l0.318,0.091l0.317,0.091l0.317,0.093l0.317,0.094l0.632,0.19l0.63,0.194l0.314,0.099l0.315,0.099l0.313,0.1l0.314,0.102l0.312,0.102l0.313,0.103l0.312,0.104l0.311,0.105l0.312,0.106l0.31,0.107l0.311,0.108l0.309,0.108l0.31,0.11l0.309,0.111l0.308,0.111l0.309,0.112l0.307,0.114l0.308,0.114l0.306,0.115l0.307,0.116l0.306,0.117l0.61,0.236l0.305,0.12l0.304,0.121l0.303,0.121l0.304,0.122l0.302,0.124l0.303,0.124l0.301,0.125l0.302,0.126l0.301,0.127l0.3,0.127l0.6,0.258l0.299,0.131l0.298,0.131l0.298,0.132l0.298,0.133l0.297,0.134l0.296,0.135l0.297,0.135l0.295,0.137l0.296,0.137l0.294,0.138l0.588,0.28l0.293,0.14l0.293,0.142l0.584,0.286l0.291,0.144l0.291,0.145l0.29,0.146l0.29,0.147l0.578,0.296l0.576,0.3l0.287,0.151l0.287,0.152l0.572,0.306l0.57,0.31l0.284,0.156l0.283,0.157l0.283,0.158l0.283,0.159l0.282,0.159l0.282,0.16l0.28,0.161l0.281,0.162l0.28,0.163l0.279,0.163l0.279,0.165l0.278,0.165l0.278,0.166l0.554,0.334l0.552,0.338l0.275,0.17l0.548,0.342l0.546,0.346l0.272,0.174l0.272,0.175l0.542,0.352l0.27,0.177l0.269,0.178l0.269,0.179l0.536,0.36l0.267,0.181l0.267,0.182l0.266,0.183l0.265,0.183l0.265,0.184l0.264,0.185l0.264,0.186l0.526,0.374l0.262,0.188l0.261,0.189l0.261,0.19l0.26,0.19l0.26,0.191l0.259,0.192l0.516,0.386l0.514,0.39l0.256,0.195l0.51,0.394l0.254,0.198l0.506,0.398l0.253,0.2l0.251,0.201l0.502,0.404l0.25,0.203l0.249,0.204l0.249,0.205l0.248,0.205l0.247,0.206l0.247,0.207l0.246,0.207l0.49,0.418l0.244,0.209l0.244,0.211l0.243,0.211l0.484,0.424l0.241,0.213l0.24,0.214l0.24,0.215l0.239,0.215l0.239,0.216l0.237,0.217l0.474,0.436l0.236,0.219l0.235,0.219l0.468,0.442l0.233,0.221l0.233,0.223l0.232,0.223l0.231,0.223l0.46,0.45l0.458,0.452l0.228,0.227l0.227,0.228l0.452,0.458l0.45,0.46l0.223,0.231l0.223,0.232l0.223,0.233l0.221,0.233l0.442,0.468l0.219,0.235l0.219,0.236l0.436,0.474l0.217,0.237l0.216,0.239l0.215,0.239l0.215,0.24l0.214,0.24l0.213,0.241l0.424,0.484l0.211,0.243l0.211,0.244l0.209,0.244l0.418,0.49l0.207,0.246l0.207,0.247l0.206,0.247l0.205,0.248l0.205,0.249l0.204,0.249l0.203,0.25l0.202,0.25l0.202,0.252l0.201,0.251l0.2,0.253l0.398,0.506l0.198,0.254l0.394,0.51l0.195,0.256l0.39,0.514l0.386,0.516l0.192,0.259l0.191,0.26l0.19,0.26l0.19,0.261l0.189,0.261l0.188,0.262l0.374,0.526l0.186,0.264l0.185,0.264l0.184,0.265l0.183,0.265l0.183,0.266l0.182,0.267l0.181,0.267l0.36,0.536l0.179,0.269l0.178,0.269l0.177,0.27l0.352,0.542l0.175,0.272l0.174,0.272l0.346,0.546l0.342,0.548l0.17,0.275l0.338,0.552l0.334,0.554l0.166,0.278l0.165,0.278l0.165,0.279l0.163,0.279l0.163,0.28l0.162,0.28l0.161,0.281l0.16,0.282l0.159,0.282l0.159,0.283l0.158,0.283l0.157,0.283l0.156,0.284l0.31,0.57l0.306,0.572l0.152,0.287l0.151,0.287l0.15,0.288l0.149,0.288l0.149,0.289l0.148,0.289l0.147,0.29l0.146,0.29l0.145,0.291l0.144,0.291l0.286,0.584l0.142,0.293l0.14,0.293l0.28,0.588l0.138,0.294l0.137,0.296l0.137,0.295l0.135,0.296l0.135,0.297l0.134,0.297l0.133,0.298l0.132,0.298l0.131,0.298l0.131,0.299l0.258,0.6l0.127,0.3l0.127,0.301l0.126,0.302l0.125,0.301l0.124,0.303l0.124,0.302l0.122,0.304l0.121,0.303l0.121,0.304l0.238,0.61l0.118,0.305l0.117,0.306l0.116,0.307l0.115,0.306l0.114,0.308l0.114,0.307l0.112,0.309l0.111,0.308l0.111,0.309l0.11,0.31l0.108,0.309l0.108,0.311l0.107,0.31l0.106,0.312l0.105,0.311l0.104,0.312l0.103,0.313l0.102,0.312l0.101,0.314l0.101,0.313l0.099,0.315l0.099,0.314l0.194,0.63l0.19,0.632l0.094,0.317l0.093,0.317l0.091,0.317l0.091,0.318l0.09,0.318l0.089,0.319l0.088,0.319l0.087,0.319l0.086,0.32l0.085,0.32l0.085,0.321l0.083,0.32l0.082,0.322l0.081,0.321l0.08,0.323l0.08,0.322l0.078,0.323l0.077,0.323l0.077,0.324l0.15,0.648l0.146,0.65l0.071,0.325l0.14,0.652l0.136,0.654l0.066,0.327l0.066,0.328l0.065,0.328l0.063,0.328l0.063,0.329l0.122,0.658l0.118,0.66l0.114,0.662l0.055,0.331l0.054,0.331l0.054,0.332l0.052,0.332l0.052,0.333l0.05,0.332l0.049,0.334l0.049,0.333l0.047,0.334l0.046,0.334l0.046,0.335l0.044,0.334l0.043,0.336l0.042,0.335l0.041,0.336l0.04,0.336l0.039,0.336l0.038,0.337l0.037,0.337l0.036,0.337l0.035,0.338l0.034,0.338l0.033,0.338l0.032,0.339l0.06,0.678l0.028,0.339l0.028,0.34l0.052,0.68l0.024,0.341l0.046,0.682l0.021,0.342l0.02,0.342l0.019,0.342l0.018,0.342l0.017,0.343l0.03,0.686l0.014,0.343l0.024,0.688l0.01,0.344l0.009,0.345l0.016,0.69l0.006,0.345l0.005,0.346l0.006,0.692l0.002,0.346l0,0.694l-0.002,0.346l-0.003,0.346l-0.003,0.346l-0.005,0.346l-0.006,0.345l-0.008,0.345l-0.008,0.345l-0.009,0.345l-0.01,0.344l-0.012,0.344l-0.012,0.344l-0.014,0.343l-0.015,0.343l-0.015,0.343l-0.017,0.343l-0.018,0.342l-0.019,0.342l-0.02,0.342l-0.021,0.342l-0.023,0.341l-0.023,0.341l-0.024,0.341l-0.026,0.34l-0.026,0.34l-0.028,0.34l-0.028,0.339l-0.03,0.339l-0.03,0.339l-0.032,0.339l-0.033,0.338l-0.034,0.338l-0.035,0.338l-0.036,0.337l-0.037,0.337l-0.038,0.337l-0.039,0.336l-0.04,0.336l-0.041,0.336l-0.042,0.335l-0.043,0.336l-0.044,0.334l-0.046,0.335l-0.046,0.334l-0.047,0.334l-0.049,0.333l-0.049,0.334l-0.05,0.332l-0.052,0.333l-0.052,0.332l-0.054,0.332l-0.054,0.331l-0.055,0.331l-0.057,0.331l-0.057,0.331l-0.059,0.33l-0.059,0.33l-0.061,0.329l-0.061,0.329l-0.063,0.329l-0.063,0.328l-0.065,0.328l-0.066,0.328l-0.066,0.327l-0.068,0.327l-0.068,0.327l-0.07,0.326l-0.07,0.326l-0.071,0.325l-0.073,0.325l-0.073,0.325l-0.075,0.324l-0.075,0.324l-0.077,0.324l-0.077,0.323l-0.078,0.323l-0.08,0.322l-0.08,0.323l-0.081,0.321l-0.082,0.322l-0.083,0.32l-0.085,0.321l-0.085,0.32l-0.086,0.32l-0.087,0.319l-0.088,0.319l-0.089,0.319l-0.09,0.318l-0.091,0.318l-0.091,0.317l-0.093,0.317l-0.094,0.317l-0.095,0.316l-0.095,0.316l-0.097,0.315l-0.097,0.315l-0.099,0.314l-0.099,0.315l-0.101,0.313l-0.101,0.314l-0.102,0.312l-0.103,0.313l-0.104,0.312l-0.105,0.311l-0.106,0.312l-0.107,0.31l-0.108,0.311l-0.108,0.309l-0.11,0.31l-0.111,0.309l-0.111,0.308l-0.112,0.309l-0.114,0.307l-0.114,0.308l-0.115,0.306l-0.116,0.307l-0.117,0.306l-0.118,0.305l-0.119,0.305l-0.119,0.305l-0.121,0.304l-0.121,0.303l-0.122,0.304l-0.124,0.302l-0.124,0.303l-0.125,0.301l-0.126,0.302l-0.127,0.301l-0.127,0.3l-0.129,0.3l-0.129,0.3l-0.131,0.299l-0.131,0.298l-0.132,0.298l-0.133,0.298l-0.134,0.297l-0.135,0.297l-0.135,0.296l-0.137,0.295l-0.137,0.296l-0.138,0.294l-0.14,0.294l-0.14,0.294l-0.14,0.293l-0.142,0.293l-0.143,0.292l-0.143,0.292l-0.144,0.291l-0.145,0.291l-0.146,0.29l-0.147,0.29l-0.148,0.289l-0.149,0.289l-0.149,0.288l-0.15,0.288l-0.151,0.287l-0.152,0.287l-0.153,0.286l-0.153,0.286l-0.155,0.285l-0.155,0.285l-0.156,0.284l-0.157,0.283l-0.158,0.283l-0.159,0.283l-0.159,0.282l-0.16,0.282l-0.161,0.281l-0.162,0.28l-0.163,0.28l-0.163,0.279l-0.165,0.279l-0.165,0.278l-0.166,0.278l-0.167,0.277l-0.167,0.277l-0.169,0.276l-0.169,0.276l-0.17,0.275l-0.171,0.274l-0.171,0.274l-0.173,0.273l-0.173,0.273l-0.174,0.272l-0.175,0.272l-0.176,0.271l-0.176,0.271l-0.177,0.27l-0.178,0.269l-0.179,0.269l-0.18,0.268l-0.18,0.268l-0.181,0.267l-0.182,0.267l-0.183,0.266l-0.183,0.265l-0.184,0.265l-0.185,0.264l-0.186,0.264l-0.187,0.263l-0.187,0.263l-0.188,0.262l-0.189,0.261l-0.19,0.261l-0.19,0.26l-0.191,0.26l-0.192,0.259l-0.193,0.258l-0.193,0.258l-0.195,0.257l-0.195,0.257l-0.195,0.256l-0.197,0.255l-0.197,0.255l-0.198,0.254l-0.199,0.253l-0.199,0.253l-0.2,0.253l-0.201,0.251l-0.202,0.252l-0.202,0.25l-0.203,0.25l-0.204,0.249l-0.205,0.249l-0.205,0.248l-0.206,0.247l-0.207,0.247l-0.207,0.246l-0.209,0.245l-0.209,0.245l-0.209,0.244l-0.211,0.244l-0.211,0.243l-0.212,0.242l-0.212,0.242l-0.213,0.241l-0.214,0.24l-0.215,0.24l-0.215,0.239l-0.216,0.239l-0.217,0.237l-0.218,0.237l-0.218,0.237l-0.219,0.236l-0.219,0.235l-0.221,0.234l-0.221,0.234l-0.221,0.233l-0.223,0.233l-0.223,0.232l-0.223,0.231l-0.225,0.23l-0.225,0.23l-0.226,0.229l-0.226,0.229l-0.227,0.228l-0.228,0.227l-0.229,0.226l-0.229,0.226l-0.23,0.225l-0.23,0.225l-0.231,0.223l-0.232,0.223l-0.233,0.223l-0.233,0.221l-0.234,0.221l-0.234,0.221l-0.235,0.219l-0.236,0.219l-0.237,0.218l-0.237,0.218l-0.237,0.217l-0.239,0.216l-0.239,0.215l-0.24,0.215l-0.24,0.214l-0.241,0.213l-0.242,0.212l-0.242,0.212l-0.243,0.211l-0.244,0.211l-0.244,0.209l-0.245,0.209l-0.245,0.209l-0.246,0.207l-0.247,0.207l-0.247,0.206l-0.248,0.205l-0.249,0.205l-0.249,0.204l-0.25,0.203l-0.251,0.202l-0.251,0.202l-0.251,0.201l-0.253,0.2l-0.253,0.199l-0.253,0.199l-0.254,0.198l-0.255,0.197l-0.255,0.197l-0.256,0.195l-0.257,0.195l-0.257,0.195l-0.258,0.193l-0.258,0.193l-0.259,0.192l-0.26,0.191l-0.26,0.19l-0.261,0.19l-0.261,0.189l-0.262,0.188l-0.263,0.187l-0.263,0.187l-0.264,0.186l-0.264,0.185l-0.265,0.184l-0.265,0.183l-0.266,0.183l-0.267,0.182l-0.267,0.181l-0.268,0.18l-0.268,0.18l-0.269,0.179l-0.269,0.178l-0.27,0.177l-0.271,0.176l-0.271,0.176l-0.272,0.175l-0.272,0.174l-0.273,0.173l-0.273,0.173l-0.274,0.171l-0.274,0.171l-0.275,0.17l-0.276,0.169l-0.276,0.169l-0.277,0.167l-0.277,0.167l-0.278,0.166l-0.278,0.165l-0.279,0.165l-0.279,0.163l-0.28,0.163l-0.281,0.162l-0.28,0.161l-0.282,0.16l-0.282,0.159l-0.283,0.159l-0.283,0.158l-0.283,0.157l-0.284,0.156l-0.285,0.155l-0.285,0.155l-0.286,0.153l-0.286,0.153l-0.287,0.152l-0.287,0.151l-0.288,0.15l-0.288,0.15l-0.289,0.148l-0.289,0.148l-0.29,0.147l-0.29,0.146l-0.291,0.145l-0.291,0.144l-0.292,0.143l-0.292,0.143l-0.293,0.142l-0.293,0.14l-0.294,0.14l-0.294,0.14l-0.294,0.138l-0.296,0.137l-0.295,0.137l-0.297,0.135l-0.296,0.135l-0.297,0.134l-0.298,0.133l-0.298,0.132l-0.298,0.131l-0.299,0.131l-0.3,0.129l-0.3,0.129l-0.3,0.127l-0.301,0.127l-0.302,0.126l-0.301,0.125l-0.303,0.124l-0.302,0.124l-0.304,0.122l-0.303,0.121l-0.304,0.121l-0.305,0.12l-0.305,0.118l-0.305,0.118l-0.306,0.117l-0.307,0.116l-0.306,0.115l-0.308,0.114l-0.307,0.114l-0.309,0.112l-0.308,0.111l-0.309,0.111l-0.31,0.11l-0.309,0.108l-0.311,0.108l-0.31,0.107l-0.312,0.106l-0.311,0.105l-0.312,0.104l-0.313,0.103l-0.312,0.102l-0.314,0.102l-0.313,0.1l-0.315,0.099l-0.314,0.099l-0.315,0.097l-0.315,0.097l-0.316,0.095l-0.316,0.095l-0.317,0.094l-0.317,0.093l-0.317,0.091l-0.318,0.091l-0.318,0.09l-0.319,0.089l-0.319,0.088l-0.319,0.087l-0.32,0.086l-0.32,0.085l-0.321,0.085l-0.32,0.083l-0.322,0.082l-0.321,0.081l-0.323,0.08l-0.322,0.08l-0.323,0.078l-0.323,0.077l-0.324,0.077l-0.324,0.075l-0.324,0.075l-0.325,0.073l-0.325,0.073l-0.325,0.071l-0.326,0.071l-0.326,0.069l-0.327,0.068l-0.327,0.068l-0.327,0.067l-0.328,0.065l-0.328,0.065l-0.328,0.063l-0.329,0.063l-0.329,0.061l-0.329,0.061l-0.33,0.059l-0.33,0.059l-0.331,0.057l-0.331,0.057l-0.331,0.055l-0.331,0.055l-0.332,0.053l-0.332,0.052l-0.333,0.052l-0.333,0.05l-0.333,0.049l-0.333,0.049l-0.334,0.047l-0.334,0.046l-0.335,0.046l-0.334,0.044l-0.336,0.043l-0.335,0.042l-0.336,0.041l-0.336,0.04l-0.336,0.039l-0.337,0.038l-0.337,0.037l-0.337,0.036l-0.338,0.035l-0.338,0.034l-0.338,0.033l-0.339,0.032l-0.339,0.03l-0.339,0.03l-0.339,0.028l-0.34,0.028l-0.34,0.026l-0.34,0.026l-0.341,0.024l-0.341,0.023l-0.341,0.023l-0.342,0.021l-0.342,0.02l-0.342,0.019l-0.342,0.018l-0.343,0.017l-0.343,0.015l-0.343,0.015l-0.343,0.014l-0.344,0.012l-0.344,0.012l-0.344,0.01l-0.345,0.009l-0.345,0.008l-0.345,0.008l-0.345,0.006l-0.346,0.005l-0.346,0.003l-0.346,0.003l-0.346,0.002l-0.347,0l-0.347,0l-0.346,-0.002l-0.346,-0.003l-0.346,-0.003l-0.346,-0.005l-0.345,-0.006l-0.345,-0.008l-0.345,-0.008l-0.345,-0.009l-0.344,-0.01l-0.344,-0.012l-0.344,-0.012l-0.343,-0.014l-0.343,-0.015l-0.343,-0.015l-0.343,-0.017l-0.342,-0.018l-0.343,-0.019l-0.341,-0.02l-0.342,-0.021l-0.341,-0.023l-0.341,-0.023l-0.341,-0.024l-0.34,-0.026l-0.34,-0.026l-0.34,-0.028l-0.339,-0.028l-0.339,-0.03l-0.339,-0.03l-0.339,-0.032l-0.338,-0.033l-0.338,-0.034l-0.338,-0.035l-0.337,-0.036l-0.337,-0.037l-0.337,-0.038l-0.336,-0.039l-0.336,-0.04l-0.336,-0.041l-0.335,-0.042l-0.336,-0.043l-0.334,-0.044l-0.335,-0.046l-0.334,-0.046l-0.334,-0.047l-0.333,-0.049l-0.334,-0.049l-0.332,-0.05l-0.333,-0.052l-0.332,-0.052l-0.332,-0.053l-0.331,-0.055l-0.331,-0.055l-0.331,-0.057l-0.331,-0.057l-0.33,-0.059l-0.33,-0.059l-0.329,-0.061l-0.329,-0.061l-0.329,-0.063l-0.328,-0.063l-0.328,-0.065l-0.328,-0.065l-0.327,-0.067l-0.327,-0.068l-0.327,-0.068l-0.326,-0.069l-0.326,-0.071l-0.325,-0.071l-0.325,-0.073l-0.325,-0.073l-0.324,-0.075l-0.324,-0.075l-0.324,-0.077l-0.323,-0.077l-0.323,-0.078l-0.322,-0.08l-0.323,-0.08l-0.321,-0.081l-0.322,-0.082l-0.321,-0.083l-0.32,-0.085l-0.32,-0.085l-0.32,-0.086l-0.319,-0.087l-0.319,-0.088l-0.319,-0.089l-0.318,-0.09l-0.318,-0.091l-0.317,-0.091l-0.317,-0.093l-0.317,-0.094l-0.316,-0.095l-0.316,-0.095l-0.315,-0.097l-0.315,-0.097l-0.315,-0.099l-0.314,-0.099l-0.313,-0.1l-0.314,-0.102l-0.312,-0.102l-0.313,-0.103l-0.312,-0.104l-0.311,-0.105l-0.312,-0.106l-0.31,-0.107l-0.311,-0.108l-0.31,-0.108l-0.309,-0.11l-0.309,-0.111l-0.308,-0.111l-0.309,-0.112l-0.307,-0.114l-0.308,-0.114l-0.306,-0.115l-0.307,-0.116l-0.306,-0.117l-0.305,-0.118l-0.305,-0.118l-0.305,-0.12l-0.304,-0.121l-0.303,-0.121l-0.304,-0.122l-0.302,-0.124l-0.303,-0.124l-0.301,-0.125l-0.302,-0.126l-0.301,-0.127l-0.3,-0.127l-0.3,-0.129l-0.3,-0.129l-0.299,-0.131l-0.298,-0.131l-0.298,-0.132l-0.298,-0.133l-0.297,-0.134l-0.297,-0.135l-0.296,-0.135l-0.295,-0.137l-0.296,-0.137l-0.294,-0.138l-0.294,-0.14l-0.294,-0.14l-0.293,-0.14l-0.293,-0.142l-0.292,-0.143l-0.292,-0.143l-0.291,-0.144l-0.291,-0.145l-0.29,-0.146l-0.29,-0.147l-0.289,-0.148l-0.289,-0.148l-0.288,-0.15l-0.288,-0.15l-0.287,-0.151l-0.287,-0.152l-0.286,-0.153l-0.286,-0.153l-0.285,-0.155l-0.285,-0.155l-0.284,-0.156l-0.283,-0.157l-0.284,-0.158l-0.282,-0.159l-0.282,-0.159l-0.282,-0.16l-0.281,-0.161l-0.28,-0.162l-0.28,-0.163l-0.279,-0.163l-0.279,-0.165l-0.278,-0.165l-0.278,-0.166l-0.277,-0.167l-0.277,-0.167l-0.276,-0.169l-0.276,-0.169l-0.275,-0.17l-0.274,-0.171l-0.274,-0.171l-0.273,-0.173l-0.273,-0.173l-0.272,-0.174l-0.272,-0.175l-0.271,-0.176l-0.271,-0.176l-0.27,-0.177l-0.269,-0.178l-0.269,-0.179l-0.268,-0.18l-0.268,-0.18l-0.267,-0.181l-0.267,-0.182l-0.266,-0.183l-0.265,-0.183l-0.265,-0.184l-0.264,-0.185l-0.264,-0.186l-0.263,-0.187l-0.263,-0.187l-0.262,-0.188l-0.261,-0.189l-0.261,-0.19l-0.26,-0.19l-0.26,-0.191l-0.259,-0.192l-0.258,-0.193l-0.258,-0.193l-0.257,-0.195l-0.257,-0.195l-0.256,-0.195l-0.255,-0.197l-0.255,-0.197l-0.254,-0.198l-0.253,-0.199l-0.253,-0.199l-0.253,-0.2l-0.251,-0.201l-0.252,-0.202l-0.25,-0.202l-0.25,-0.203l-0.249,-0.204l-0.249,-0.205l-0.248,-0.205l-0.247,-0.206l-0.247,-0.207l-0.246,-0.207l-0.245,-0.209l-0.245,-0.209l-0.244,-0.209l-0.244,-0.211l-0.243,-0.211l-0.242,-0.212l-0.242,-0.212l-0.241,-0.213l-0.24,-0.214l-0.24,-0.215l-0.239,-0.215l-0.239,-0.216l-0.237,-0.217l-0.238,-0.218l-0.236,-0.218l-0.236,-0.219l-0.235,-0.219l-0.234,-0.221l-0.234,-0.221l-0.233,-0.221l-0.233,-0.223l-0.232,-0.223l-0.231,-0.223l-0.231,-0.225l-0.229,-0.225l-0.23,-0.226l-0.228,-0.226l-0.228,-0.227l-0.227,-0.228l-0.226,-0.229l-0.226,-0.229l-0.225,-0.23l-0.225,-0.23l-0.223,-0.231l-0.223,-0.232l-0.223,-0.233l-0.221,-0.233l-0.221,-0.234l-0.221,-0.234l-0.219,-0.235l-0.219,-0.236l-0.218,-0.237l-0.218,-0.237l-0.217,-0.237l-0.216,-0.239l-0.215,-0.239l-0.215,-0.24l-0.214,-0.24l-0.213,-0.241l-0.212,-0.242l-0.212,-0.242l-0.211,-0.243l-0.211,-0.244l-0.209,-0.244l-0.209,-0.245l-0.209,-0.245l-0.207,-0.246l-0.207,-0.247l-0.206,-0.247l-0.205,-0.248l-0.205,-0.249l-0.204,-0.249l-0.203,-0.25l-0.202,-0.25l-0.202,-0.252l-0.201,-0.251l-0.2,-0.253l-0.199,-0.253l-0.199,-0.253l-0.198,-0.254l-0.197,-0.255l-0.197,-0.255l-0.195,-0.256l-0.195,-0.257l-0.195,-0.257l-0.193,-0.258l-0.193,-0.258l-0.192,-0.259l-0.191,-0.26l-0.19,-0.26l-0.19,-0.261l-0.189,-0.261l-0.188,-0.262l-0.187,-0.263l-0.187,-0.263l-0.186,-0.264l-0.185,-0.264l-0.184,-0.265l-0.183,-0.265l-0.183,-0.266l-0.182,-0.267l-0.181,-0.267l-0.18,-0.268l-0.18,-0.268l-0.179,-0.269l-0.178,-0.269l-0.177,-0.27l-0.176,-0.271l-0.176,-0.271l-0.175,-0.272l-0.174,-0.272l-0.173,-0.273l-0.173,-0.273l-0.171,-0.274l-0.171,-0.274l-0.17,-0.275l-0.169,-0.276l-0.169,-0.276l-0.167,-0.277l-0.167,-0.277l-0.166,-0.278l-0.165,-0.278l-0.165,-0.279l-0.163,-0.279l-0.163,-0.28l-0.162,-0.28l-0.161,-0.281l-0.16,-0.282l-0.16,-0.282l-0.158,-0.283l-0.158,-0.283l-0.157,-0.283l-0.156,-0.284l-0.155,-0.285l-0.155,-0.285l-0.153,-0.286l-0.153,-0.286l-0.152,-0.287l-0.151,-0.287l-0.15,-0.288l-0.15,-0.288l-0.148,-0.289l-0.148,-0.289l-0.147,-0.29l-0.146,-0.29l-0.145,-0.291l-0.144,-0.291l-0.143,-0.292l-0.143,-0.292l-0.142,-0.293l-0.14,-0.293l-0.14,-0.294l-0.14,-0.294l-0.138,-0.294l-0.137,-0.296l-0.137,-0.295l-0.135,-0.296l-0.135,-0.297l-0.134,-0.297l-0.133,-0.298l-0.132,-0.298l-0.131,-0.298l-0.131,-0.299l-0.129,-0.3l-0.129,-0.3l-0.127,-0.3l-0.127,-0.301l-0.126,-0.302l-0.125,-0.301l-0.124,-0.303l-0.124,-0.302l-0.122,-0.304l-0.121,-0.303l-0.121,-0.304l-0.12,-0.305l-0.118,-0.305l-0.118,-0.305l-0.117,-0.306l-0.116,-0.307l-0.115,-0.306l-0.114,-0.308l-0.114,-0.307l-0.112,-0.309l-0.111,-0.308l-0.111,-0.309l-0.11,-0.31l-0.108,-0.309l-0.108,-0.311l-0.107,-0.31l-0.106,-0.312l-0.105,-0.311l-0.104,-0.312l-0.103,-0.313l-0.102,-0.312l-0.102,-0.314l-0.1,-0.313l-0.099,-0.315l-0.099,-0.314l-0.097,-0.315l-0.097,-0.315l-0.095,-0.316l-0.095,-0.316l-0.094,-0.317l-0.093,-0.317l-0.091,-0.317l-0.091,-0.318l-0.09,-0.318l-0.089,-0.319l-0.088,-0.319l-0.087,-0.319l-0.086,-0.32l-0.085,-0.32l-0.085,-0.321l-0.083,-0.32l-0.082,-0.322l-0.081,-0.321l-0.08,-0.323l-0.08,-0.322l-0.078,-0.323l-0.077,-0.323l-0.077,-0.324l-0.075,-0.324l-0.075,-0.324l-0.073,-0.325l-0.073,-0.325l-0.071,-0.325l-0.071,-0.326l-0.069,-0.326l-0.069,-0.327l-0.067,-0.327l-0.067,-0.327l-0.065,-0.328l-0.065,-0.328l-0.063,-0.328l-0.063,-0.329l-0.061,-0.329l-0.061,-0.329l-0.059,-0.33l-0.059,-0.33l-0.057,-0.331l-0.057,-0.331l-0.055,-0.331l-0.055,-0.331l-0.053,-0.332l-0.052,-0.332l-0.052,-0.333l-0.05,-0.332l-0.05,-0.334l-0.048,-0.333l-0.047,-0.334l-0.046,-0.334l-0.046,-0.335l-0.044,-0.334l-0.043,-0.336l-0.042,-0.335l-0.041,-0.336l-0.04,-0.336l-0.04,-0.336l-0.038,-0.337l-0.036,-0.337l-0.036,-0.337l-0.035,-0.338l-0.034,-0.338l-0.033,-0.338l-0.032,-0.339l-0.03,-0.339l-0.03,-0.339l-0.028,-0.339l-0.028,-0.34l-0.026,-0.34l-0.026,-0.34l-0.024,-0.341l-0.023,-0.341l-0.023,-0.341l-0.021,-0.342l-0.02,-0.342l-0.019,-0.342l-0.018,-0.342l-0.017,-0.343l-0.015,-0.343l-0.015,-0.343l-0.014,-0.343l-0.012,-0.344l-0.012,-0.344l-0.01,-0.344l-0.009,-0.345l-0.009,-0.345l-0.007,-0.345l-0.006,-0.345l-0.005,-0.346l-0.003,-0.346l-0.003,-0.346l-0.002,-0.346l0,-0.347l0,-0.347l0.002,-0.346l0.003,-0.346l0.003,-0.346l0.005,-0.346l0.006,-0.345l0.007,-0.345l0.009,-0.345l0.009,-0.345l0.01,-0.344l0.012,-0.344l0.012,-0.344l0.014,-0.343l0.015,-0.343l0.015,-0.343l0.017,-0.343l0.018,-0.342l0.019,-0.342l0.02,-0.342l0.021,-0.342l0.023,-0.341l0.023,-0.341l0.024,-0.341l0.026,-0.34l0.026,-0.34l0.028,-0.34l0.028,-0.339l0.03,-0.339l0.03,-0.339l0.032,-0.339l0.033,-0.338l0.034,-0.338l0.035,-0.338l0.036,-0.337l0.036,-0.337l0.038,-0.337l0.04,-0.336l0.04,-0.336l0.041,-0.336l0.042,-0.335l0.043,-0.336l0.044,-0.334l0.046,-0.335l0.046,-0.334l0.047,-0.334l0.048,-0.333l0.05,-0.334l0.05,-0.332l0.052,-0.333l0.052,-0.332l0.053,-0.332l0.055,-0.331l0.055,-0.331l0.057,-0.331l0.057,-0.331l0.059,-0.33l0.059,-0.33l0.061,-0.329l0.061,-0.329l0.063,-0.329l0.063,-0.328l0.065,-0.328l0.065,-0.328l0.067,-0.327l0.067,-0.327l0.069,-0.327l0.069,-0.326l0.071,-0.326l0.071,-0.325l0.073,-0.325l0.073,-0.325l0.075,-0.324l0.075,-0.324l0.077,-0.324l0.077,-0.323l0.078,-0.323l0.08,-0.322l0.08,-0.323l0.081,-0.321l0.082,-0.322l0.083,-0.32l0.085,-0.321l0.085,-0.32l0.086,-0.32l0.087,-0.319l0.088,-0.319l0.089,-0.319l0.09,-0.318l0.091,-0.318l0.091,-0.317l0.093,-0.317l0.094,-0.317l0.095,-0.316l0.095,-0.316l0.097,-0.315l0.097,-0.315l0.099,-0.314l0.099,-0.315l0.1,-0.313l0.102,-0.314l0.102,-0.312l0.103,-0.313l0.104,-0.312l0.105,-0.311l0.106,-0.312l0.107,-0.31l0.108,-0.311l0.108,-0.309l0.11,-0.31l0.111,-0.309l0.111,-0.308l0.112,-0.309l0.114,-0.307l0.114,-0.308l0.115,-0.306l0.116,-0.307l0.117,-0.306l0.118,-0.305l0.118,-0.305l0.12,-0.305l0.121,-0.304l0.121,-0.303l0.122,-0.304l0.124,-0.302l0.124,-0.303l0.125,-0.301l0.126,-0.302l0.127,-0.301l0.127,-0.3l0.129,-0.3l0.129,-0.3l0.131,-0.299l0.131,-0.298l0.132,-0.298l0.133,-0.298l0.134,-0.297l0.135,-0.297l0.135,-0.296l0.137,-0.295l0.137,-0.296l0.138,-0.294l0.14,-0.294l0.14,-0.294l0.14,-0.293l0.142,-0.293l0.143,-0.292l0.143,-0.292l0.144,-0.291l0.145,-0.291l0.146,-0.29l0.147,-0.29l0.148,-0.289l0.148,-0.289l0.15,-0.288l0.15,-0.288l0.151,-0.287l0.152,-0.287l0.153,-0.286l0.153,-0.286l0.155,-0.285l0.155,-0.285l0.156,-0.284l0.157,-0.283l0.158,-0.283l0.158,-0.283l0.16,-0.282l0.16,-0.282l0.161,-0.281l0.162,-0.28l0.163,-0.28l0.163,-0.279l0.165,-0.279l0.165,-0.278l0.166,-0.278l0.167,-0.277l0.167,-0.277l0.169,-0.276l0.169,-0.276l0.17,-0.275l0.171,-0.274l0.171,-0.274l0.173,-0.273l0.173,-0.273l0.174,-0.272l0.175,-0.272l0.176,-0.271l0.176,-0.271l0.177,-0.27l0.178,-0.269l0.179,-0.269l0.18,-0.268l0.18,-0.268l0.181,-0.267l0.182,-0.267l0.183,-0.266l0.183,-0.265l0.184,-0.265l0.185,-0.264l0.186,-0.264l0.187,-0.263l0.187,-0.263l0.188,-0.262l0.189,-0.261l0.19,-0.261l0.19,-0.26l0.191,-0.26l0.192,-0.259l0.193,-0.258l0.193,-0.258l0.195,-0.257l0.195,-0.257l0.195,-0.256l0.197,-0.255l0.197,-0.255l0.198,-0.254l0.199,-0.253l0.199,-0.253l0.2,-0.253l0.201,-0.251l0.202,-0.252l0.202,-0.25l0.203,-0.25l0.204,-0.249l0.205,-0.249l0.205,-0.248l0.206,-0.247l0.207,-0.247l0.207,-0.246l0.209,-0.245l0.209,-0.245l0.209,-0.244l0.211,-0.244l0.211,-0.243l0.212,-0.242l0.212,-0.242l0.213,-0.241l0.214,-0.24l0.215,-0.24l0.215,-0.239l0.216,-0.239l0.217,-0.237l0.218,-0.237l0.218,-0.237l0.219,-0.236l0.219,-0.235l0.221,-0.234l0.221,-0.234l0.221,-0.233l0.223,-0.233l0.223,-0.232l0.223,-0.231l0.225,-0.23l0.225,-0.23l0.226,-0.229l0.226,-0.229l0.227,-0.228l0.228,-0.227l0.228,-0.226l0.23,-0.226l0.229,-0.225l0.231,-0.225l0.231,-0.223l0.232,-0.223l0.233,-0.223l0.233,-0.221l0.234,-0.221l0.234,-0.221l0.235,-0.219l0.236,-0.219l0.236,-0.218l0.238,-0.218l0.237,-0.217l0.239,-0.216l0.239,-0.215l0.24,-0.215l0.24,-0.214l0.241,-0.213l0.242,-0.212l0.242,-0.212l0.243,-0.211l0.244,-0.211l0.244,-0.209l0.245,-0.209l0.245,-0.209l0.246,-0.207l0.247,-0.207l0.247,-0.206l0.248,-0.205l0.249,-0.205l0.249,-0.204l0.25,-0.203l0.25,-0.202l0.252,-0.202l0.251,-0.201l0.253,-0.2l0.253,-0.199l0.253,-0.199l0.254,-0.198l0.255,-0.197l0.255,-0.197l0.256,-0.195l0.257,-0.195l0.257,-0.195l0.258,-0.193l0.258,-0.193l0.259,-0.192l0.26,-0.191l0.26,-0.19l0.261,-0.19l0.261,-0.189l0.262,-0.188l0.263,-0.187l0.263,-0.187l0.264,-0.186l0.264,-0.185l0.265,-0.184l0.265,-0.183l0.266,-0.183l0.267,-0.182l0.267,-0.181l0.268,-0.18l0.268,-0.18l0.269,-0.179l0.269,-0.178l0.27,-0.177l0.271,-0.176l0.271,-0.176l0.272,-0.175l0.272,-0.174l0.273,-0.173l0.273,-0.173l0.274,-0.171l0.274,-0.171l0.275,-0.17l0.276,-0.169l0.276,-0.169l0.277,-0.167l0.277,-0.167l0.278,-0.166l0.278,-0.165l0.279,-0.165l0.279,-0.163l0.28,-0.163l0.28,-0.162l0.281,-0.161l0.282,-0.16l0.282,-0.159l0.282,-0.159l0.284,-0.158l0.283,-0.157l0.284,-0.156l0.285,-0.155l0.285,-0.155l0.286,-0.153l0.286,-0.153l0.287,-0.152l0.287,-0.151l0.288,-0.15l0.288,-0.15l0.289,-0.148l0.289,-0.148l0.29,-0.147l0.29,-0.146l0.291,-0.145l0.291,-0.144l0.292,-0.143l0.292,-0.143l0.293,-0.142l0.293,-0.14l0.294,-0.14l0.294,-0.14l0.294,-0.138l0.296,-0.137l0.295,-0.137l0.296,-0.135l0.297,-0.135l0.297,-0.134l0.298,-0.133l0.298,-0.132l0.298,-0.131l0.299,-0.131l0.3,-0.129l0.3,-0.129l0.3,-0.127l0.301,-0.127l0.302,-0.126l0.301,-0.125l0.303,-0.124l0.302,-0.124l0.304,-0.122l0.303,-0.121l0.304,-0.121l0.305,-0.12l0.305,-0.118l0.305,-0.118l0.306,-0.117l0.307,-0.116l0.306,-0.115l0.308,-0.114l0.307,-0.114l0.309,-0.112l0.308,-0.111l0.309,-0.111l0.309,-0.11l0.31,-0.108l0.311,-0.108l0.31,-0.107l0.312,-0.106l0.311,-0.105l0.312,-0.104l0.313,-0.103l0.312,-0.102l0.314,-0.102l0.313,-0.1l0.314,-0.099l0.315,-0.099l0.315,-0.097l0.315,-0.097l0.316,-0.095l0.316,-0.095l0.317,-0.094l0.317,-0.093l0.317,-0.091l0.318,-0.091l0.318,-0.09l0.319,-0.089l0.319,-0.088l0.319,-0.087l0.32,-0.086l0.32,-0.085l0.32,-0.085l0.321,-0.083l0.322,-0.082l0.321,-0.081l0.323,-0.08l0.322,-0.08l0.323,-0.078l0.323,-0.077l0.324,-0.077l0.324,-0.075l0.324,-0.075l0.325,-0.073l0.325,-0.073l0.325,-0.071l0.326,-0.071l0.326,-0.069l0.327,-0.068l0.327,-0.068l0.327,-0.067l0.328,-0.065l0.328,-0.065l0.328,-0.063l0.329,-0.063l0.329,-0.061l0.329,-0.061l0.33,-0.059l0.33,-0.059l0.331,-0.057l0.331,-0.057l0.331,-0.055l0.331,-0.055l0.332,-0.053l0.332,-0.052l0.333,-0.052l0.332,-0.05l0.334,-0.049l0.333,-0.049l0.334,-0.047l0.334,-0.046l0.335,-0.046l0.334,-0.044l0.336,-0.043l0.335,-0.042l0.336,-0.041l0.336,-0.04l0.336,-0.039l0.337,-0.038l0.337,-0.037l0.337,-0.036l0.338,-0.035l0.338,-0.034l0.338,-0.033l0.339,-0.032l0.339,-0.03l0.339,-0.03l0.339,-0.028l0.34,-0.028l0.34,-0.026l0.34,-0.026l0.341,-0.024l0.341,-0.023l0.341,-0.023l0.342,-0.021l0.341,-0.02l0.343,-0.019l0.342,-0.018l0.343,-0.017l0.343,-0.015l0.343,-0.015l0.343,-0.014l0.344,-0.012l0.344,-0.012l0.344,-0.01l0.345,-0.009l0.345,-0.008l0.345,-0.008l0.345,-0.006l0.346,-0.005l0.346,-0.003l0.346,-0.003l0.346,-0.002l0.694,0Zm-0.665,9l-0.318,0.002l-0.318,0.002l-0.317,0.004l-0.317,0.004l-0.317,0.006l-0.317,0.006l-0.316,0.008l-0.316,0.008l-0.316,0.01l-0.315,0.01l-0.316,0.012l-0.314,0.012l-0.315,0.014l-0.315,0.014l-0.314,0.016l-0.314,0.016l-0.313,0.018l-0.314,0.018l-0.313,0.019l-0.313,0.021l-0.312,0.021l-0.312,0.022l-0.312,0.024l-0.312,0.024l-0.311,0.025l-0.311,0.026l-0.311,0.027l-0.311,0.028l-0.31,0.03l-0.31,0.03l-0.31,0.031l-0.309,0.032l-0.309,0.032l-0.309,0.034l-0.308,0.035l-0.308,0.036l-0.308,0.037l-0.308,0.037l-0.307,0.039l-0.307,0.039l-0.307,0.041l-0.306,0.041l-0.306,0.043l-0.306,0.043l-0.305,0.044l-0.306,0.046l-0.305,0.046l-0.304,0.047l-0.304,0.048l-0.304,0.049l-0.303,0.05l-0.304,0.05l-0.303,0.052l-0.302,0.053l-0.303,0.053l-0.302,0.055l-0.301,0.055l-0.301,0.057l-0.301,0.057l-0.301,0.058l-0.3,0.059l-0.3,0.06l-0.3,0.061l-0.299,0.062l-0.299,0.062l-0.299,0.064l-0.298,0.065l-0.298,0.065l-0.298,0.066l-0.297,0.068l-0.297,0.068l-0.297,0.069l-0.296,0.07l-0.296,0.07l-0.295,0.072l-0.295,0.073l-0.295,0.073l-0.295,0.075l-0.294,0.075l-0.294,0.076l-0.293,0.077l-0.293,0.078l-0.293,0.079l-0.292,0.079l-0.292,0.081l-0.292,0.081l-0.291,0.083l-0.291,0.083l-0.291,0.084l-0.29,0.085l-0.29,0.086l-0.289,0.086l-0.289,0.088l-0.288,0.088l-0.289,0.09l-0.288,0.09l-0.287,0.091l-0.287,0.092l-0.287,0.092l-0.287,0.094l-0.286,0.094l-0.285,0.095l-0.285,0.096l-0.285,0.097l-0.285,0.098l-0.284,0.099l-0.283,0.099l-0.284,0.101l-0.282,0.101l-0.283,0.102l-0.282,0.103l-0.282,0.104l-0.281,0.104l-0.281,0.105l-0.28,0.107l-0.28,0.107l-0.28,0.108l-0.279,0.108l-0.279,0.11l-0.278,0.11l-0.278,0.111l-0.278,0.112l-0.277,0.113l-0.277,0.114l-0.276,0.114l-0.276,0.116l-0.276,0.116l-0.275,0.117l-0.274,0.117l-0.274,0.119l-0.274,0.119l-0.274,0.121l-0.273,0.12l-0.272,0.122l-0.272,0.123l-0.272,0.123l-0.271,0.124l-0.271,0.125l-0.27,0.126l-0.27,0.127l-0.269,0.127l-0.269,0.128l-0.269,0.129l-0.268,0.13l-0.267,0.131l-0.268,0.131l-0.266,0.132l-0.267,0.133l-0.265,0.134l-0.266,0.134l-0.265,0.135l-0.264,0.136l-0.264,0.137l-0.264,0.138l-0.263,0.138l-0.262,0.139l-0.262,0.14l-0.262,0.141l-0.261,0.141l-0.261,0.143l-0.26,0.142l-0.26,0.144l-0.259,0.145l-0.259,0.145l-0.258,0.146l-0.258,0.147l-0.258,0.147l-0.256,0.149l-0.257,0.149l-0.256,0.15l-0.255,0.15l-0.255,0.151l-0.255,0.152l-0.253,0.153l-0.254,0.154l-0.253,0.154l-0.252,0.155l-0.252,0.156l-0.252,0.156l-0.251,0.158l-0.25,0.158l-0.25,0.158l-0.25,0.16l-0.248,0.16l-0.249,0.161l-0.248,0.162l-0.247,0.162l-0.247,0.163l-0.246,0.164l-0.246,0.164l-0.246,0.166l-0.244,0.166l-0.245,0.166l-0.244,0.168l-0.243,0.168l-0.242,0.169l-0.243,0.169l-0.241,0.171l-0.241,0.171l-0.241,0.171l-0.24,0.173l-0.24,0.173l-0.238,0.174l-0.239,0.174l-0.238,0.175l-0.237,0.176l-0.237,0.177l-0.236,0.177l-0.236,0.178l-0.235,0.179l-0.235,0.179l-0.234,0.18l-0.233,0.181l-0.233,0.181l-0.233,0.182l-0.231,0.183l-0.232,0.184l-0.23,0.184l-0.231,0.185l-0.229,0.185l-0.229,0.186l-0.229,0.187l-0.227,0.188l-0.228,0.188l-0.227,0.189l-0.226,0.189l-0.225,0.19l-0.225,0.191l-0.225,0.192l-0.224,0.192l-0.223,0.193l-0.223,0.193l-0.222,0.195l-0.221,0.194l-0.221,0.196l-0.22,0.196l-0.22,0.197l-0.219,0.197l-0.219,0.198l-0.218,0.199l-0.217,0.199l-0.217,0.2l-0.216,0.201l-0.216,0.201l-0.215,0.202l-0.214,0.203l-0.214,0.203l-0.213,0.204l-0.213,0.204l-0.211,0.205l-0.212,0.206l-0.21,0.206l-0.211,0.207l-0.209,0.208l-0.209,0.208l-0.208,0.209l-0.208,0.209l-0.207,0.211l-0.206,0.21l-0.206,0.212l-0.205,0.211l-0.204,0.213l-0.204,0.213l-0.203,0.214l-0.203,0.214l-0.202,0.215l-0.201,0.216l-0.201,0.216l-0.2,0.217l-0.199,0.217l-0.199,0.218l-0.198,0.219l-0.197,0.219l-0.197,0.22l-0.196,0.22l-0.196,0.221l-0.194,0.221l-0.195,0.222l-0.193,0.223l-0.193,0.223l-0.192,0.224l-0.192,0.225l-0.191,0.225l-0.19,0.225l-0.189,0.226l-0.189,0.227l-0.188,0.228l-0.188,0.227l-0.187,0.229l-0.186,0.229l-0.185,0.229l-0.185,0.231l-0.184,0.23l-0.184,0.232l-0.183,0.231l-0.182,0.233l-0.181,0.233l-0.181,0.233l-0.18,0.234l-0.179,0.235l-0.179,0.235l-0.178,0.236l-0.177,0.236l-0.177,0.237l-0.176,0.237l-0.175,0.238l-0.174,0.239l-0.174,0.239l-0.173,0.239l-0.173,0.24l-0.171,0.241l-0.172,0.241l-0.17,0.241l-0.169,0.243l-0.169,0.242l-0.168,0.243l-0.168,0.244l-0.166,0.245l-0.166,0.244l-0.166,0.246l-0.164,0.246l-0.164,0.246l-0.163,0.247l-0.162,0.247l-0.162,0.248l-0.161,0.249l-0.16,0.248l-0.16,0.25l-0.158,0.25l-0.158,0.25l-0.158,0.251l-0.156,0.252l-0.156,0.252l-0.155,0.252l-0.154,0.253l-0.154,0.254l-0.153,0.254l-0.152,0.254l-0.151,0.255l-0.15,0.255l-0.15,0.256l-0.149,0.257l-0.149,0.256l-0.147,0.258l-0.147,0.258l-0.146,0.258l-0.145,0.259l-0.145,0.259l-0.144,0.26l-0.142,0.26l-0.143,0.261l-0.141,0.261l-0.141,0.262l-0.14,0.262l-0.139,0.262l-0.138,0.263l-0.138,0.264l-0.137,0.264l-0.136,0.264l-0.135,0.265l-0.134,0.266l-0.134,0.265l-0.133,0.267l-0.132,0.267l-0.131,0.267l-0.131,0.267l-0.13,0.268l-0.129,0.269l-0.128,0.269l-0.127,0.269l-0.127,0.27l-0.126,0.27l-0.125,0.271l-0.124,0.271l-0.123,0.272l-0.123,0.272l-0.122,0.273l-0.12,0.272l-0.121,0.274l-0.119,0.274l-0.119,0.274l-0.117,0.274l-0.117,0.275l-0.116,0.276l-0.116,0.276l-0.114,0.276l-0.114,0.277l-0.113,0.277l-0.112,0.278l-0.111,0.278l-0.11,0.278l-0.11,0.279l-0.108,0.279l-0.108,0.28l-0.107,0.28l-0.107,0.28l-0.105,0.281l-0.104,0.281l-0.104,0.282l-0.103,0.282l-0.102,0.283l-0.101,0.282l-0.101,0.284l-0.099,0.283l-0.099,0.284l-0.098,0.285l-0.097,0.285l-0.096,0.285l-0.095,0.286l-0.094,0.285l-0.094,0.287l-0.093,0.287l-0.091,0.287l-0.091,0.287l-0.09,0.288l-0.09,0.288l-0.088,0.289l-0.088,0.289l-0.086,0.289l-0.086,0.29l-0.085,0.291l-0.084,0.29l-0.083,0.291l-0.083,0.291l-0.081,0.292l-0.081,0.292l-0.079,0.292l-0.079,0.293l-0.078,0.293l-0.077,0.293l-0.076,0.294l-0.075,0.294l-0.075,0.295l-0.073,0.294l-0.073,0.296l-0.072,0.295l-0.07,0.296l-0.07,0.296l-0.069,0.297l-0.068,0.297l-0.068,0.297l-0.066,0.298l-0.065,0.298l-0.065,0.298l-0.064,0.299l-0.062,0.299l-0.062,0.299l-0.061,0.3l-0.06,0.3l-0.059,0.3l-0.058,0.301l-0.057,0.301l-0.057,0.301l-0.055,0.302l-0.055,0.302l-0.053,0.302l-0.053,0.302l-0.052,0.303l-0.05,0.304l-0.05,0.303l-0.049,0.304l-0.048,0.304l-0.047,0.305l-0.046,0.305l-0.046,0.305l-0.044,0.305l-0.043,0.306l-0.043,0.306l-0.041,0.306l-0.041,0.307l-0.039,0.307l-0.039,0.307l-0.037,0.308l-0.037,0.308l-0.036,0.308l-0.035,0.308l-0.034,0.309l-0.032,0.309l-0.032,0.309l-0.031,0.31l-0.03,0.31l-0.03,0.31l-0.028,0.311l-0.027,0.311l-0.026,0.311l-0.025,0.311l-0.024,0.312l-0.024,0.312l-0.022,0.312l-0.021,0.312l-0.021,0.313l-0.019,0.313l-0.018,0.314l-0.018,0.313l-0.016,0.314l-0.016,0.314l-0.014,0.315l-0.014,0.315l-0.012,0.314l-0.012,0.316l-0.01,0.315l-0.01,0.316l-0.008,0.316l-0.008,0.317l-0.006,0.316l-0.006,0.317l-0.004,0.317l-0.004,0.317l-0.002,0.318l-0.002,0.318l0,0.636l0.004,0.636l0.008,0.634l0.006,0.317l0.006,0.316l0.008,0.317l0.008,0.316l0.01,0.316l0.01,0.315l0.012,0.316l0.012,0.314l0.028,0.63l0.032,0.628l0.018,0.313l0.018,0.314l0.019,0.313l0.021,0.313l0.021,0.312l0.022,0.312l0.048,0.624l0.025,0.311l0.026,0.311l0.027,0.311l0.028,0.311l0.06,0.62l0.031,0.31l0.064,0.618l0.034,0.309l0.035,0.308l0.036,0.308l0.074,0.616l0.078,0.614l0.041,0.307l0.041,0.306l0.086,0.612l0.044,0.305l0.092,0.61l0.047,0.305l0.048,0.304l0.049,0.304l0.05,0.303l0.05,0.304l0.052,0.303l0.106,0.604l0.11,0.604l0.114,0.602l0.058,0.301l0.059,0.3l0.06,0.3l0.061,0.3l0.124,0.598l0.064,0.299l0.13,0.596l0.066,0.298l0.136,0.594l0.069,0.297l0.14,0.592l0.072,0.295l0.073,0.296l0.073,0.294l0.075,0.295l0.075,0.294l0.076,0.294l0.077,0.293l0.078,0.293l0.079,0.293l0.079,0.292l0.162,0.584l0.166,0.582l0.084,0.29l0.085,0.291l0.086,0.29l0.086,0.289l0.176,0.578l0.18,0.576l0.182,0.574l0.093,0.287l0.094,0.287l0.094,0.285l0.095,0.286l0.096,0.285l0.097,0.285l0.098,0.285l0.099,0.284l0.099,0.283l0.101,0.284l0.101,0.282l0.102,0.283l0.103,0.282l0.104,0.282l0.104,0.281l0.105,0.281l0.214,0.56l0.108,0.28l0.108,0.279l0.11,0.279l0.11,0.278l0.111,0.278l0.112,0.278l0.113,0.277l0.114,0.277l0.114,0.276l0.232,0.552l0.117,0.275l0.117,0.274l0.238,0.548l0.121,0.274l0.12,0.272l0.122,0.273l0.246,0.544l0.124,0.271l0.125,0.271l0.126,0.27l0.127,0.27l0.127,0.269l0.128,0.269l0.129,0.269l0.13,0.268l0.262,0.534l0.132,0.267l0.133,0.266l0.268,0.532l0.135,0.265l0.136,0.264l0.137,0.264l0.138,0.264l0.138,0.263l0.139,0.262l0.14,0.262l0.141,0.262l0.141,0.261l0.142,0.261l0.144,0.26l0.143,0.26l0.29,0.518l0.146,0.258l0.147,0.258l0.147,0.257l0.298,0.514l0.149,0.256l0.302,0.51l0.152,0.254l0.153,0.254l0.154,0.254l0.154,0.253l0.155,0.252l0.312,0.504l0.158,0.251l0.316,0.5l0.32,0.498l0.161,0.249l0.162,0.248l0.162,0.247l0.163,0.247l0.164,0.247l0.164,0.245l0.166,0.246l0.166,0.244l0.166,0.245l0.168,0.244l0.168,0.243l0.169,0.242l0.169,0.243l0.513,0.723l0.346,0.48l0.173,0.238l0.175,0.239l0.175,0.238l0.176,0.237l0.177,0.237l0.177,0.236l0.178,0.236l0.358,0.47l0.18,0.234l0.362,0.466l0.182,0.232l0.183,0.232l0.184,0.232l0.184,0.23l0.185,0.231l0.185,0.229l0.186,0.229l0.187,0.229l0.188,0.227l0.188,0.228l0.189,0.227l0.189,0.226l0.19,0.225l0.191,0.225l0.192,0.225l0.192,0.224l0.386,0.446l0.195,0.222l0.194,0.221l0.392,0.442l0.394,0.438l0.198,0.219l0.199,0.218l0.199,0.217l0.2,0.217l0.402,0.432l0.202,0.215l0.406,0.428l0.408,0.426l0.205,0.212l0.206,0.211l0.206,0.21l0.207,0.211l0.416,0.418l0.418,0.416l0.21,0.207l0.211,0.206l0.212,0.206l0.211,0.205l0.426,0.408l0.428,0.406l0.215,0.202l0.432,0.402l0.217,0.2l0.217,0.199l0.218,0.199l0.219,0.198l0.219,0.197l0.22,0.197l0.22,0.196l0.221,0.196l0.221,0.195l0.222,0.194l0.446,0.386l0.224,0.192l0.225,0.192l0.225,0.191l0.225,0.19l0.226,0.189l0.227,0.189l0.228,0.188l0.227,0.188l0.229,0.187l0.229,0.186l0.229,0.185l0.23,0.185l0.231,0.184l0.232,0.184l0.231,0.183l0.233,0.182l0.466,0.362l0.234,0.18l0.47,0.358l0.236,0.178l0.236,0.177l0.237,0.177l0.237,0.176l0.238,0.175l0.239,0.174l0.238,0.174l0.48,0.346l0.723,0.513l0.243,0.169l0.242,0.169l0.244,0.168l0.243,0.168l0.735,0.498l0.245,0.164l0.247,0.164l0.247,0.163l0.247,0.162l0.248,0.162l0.249,0.161l0.248,0.16l0.25,0.16l0.5,0.316l0.251,0.158l0.504,0.312l0.252,0.155l0.506,0.308l0.254,0.152l0.255,0.153l0.255,0.151l0.255,0.15l0.256,0.15l0.257,0.149l0.256,0.149l0.516,0.294l0.258,0.146l0.518,0.29l0.52,0.286l0.261,0.143l0.261,0.141l0.262,0.141l0.262,0.14l0.262,0.139l0.263,0.138l0.264,0.138l0.264,0.137l0.264,0.136l0.265,0.135l0.532,0.268l0.266,0.133l0.266,0.132l0.268,0.131l0.267,0.131l0.268,0.13l0.269,0.129l0.269,0.128l0.269,0.127l0.27,0.127l0.27,0.126l0.271,0.125l0.271,0.124l0.544,0.246l0.273,0.122l0.272,0.121l0.274,0.12l0.273,0.119l0.275,0.119l0.274,0.117l0.276,0.117l0.275,0.116l0.276,0.116l0.276,0.114l0.277,0.114l0.277,0.113l0.278,0.112l0.277,0.111l0.558,0.22l0.279,0.108l0.28,0.108l0.28,0.107l0.28,0.106l0.281,0.106l0.281,0.104l0.282,0.104l0.282,0.103l0.283,0.102l0.282,0.101l0.284,0.101l0.283,0.099l0.284,0.099l0.285,0.098l0.284,0.096l0.286,0.097l0.286,0.095l0.285,0.094l0.287,0.094l0.287,0.093l0.574,0.182l0.288,0.09l0.289,0.09l0.288,0.088l0.289,0.088l0.58,0.172l0.29,0.085l0.29,0.084l0.582,0.166l0.292,0.081l0.584,0.16l0.293,0.079l0.293,0.078l0.293,0.077l0.294,0.076l0.294,0.075l0.295,0.075l0.294,0.073l0.296,0.073l0.296,0.072l0.295,0.07l0.296,0.07l0.297,0.069l0.594,0.136l0.298,0.066l0.596,0.13l0.299,0.064l0.598,0.124l0.3,0.061l0.3,0.06l0.3,0.059l0.301,0.058l0.602,0.114l0.301,0.055l0.302,0.055l0.303,0.053l0.302,0.053l0.303,0.052l0.304,0.05l0.303,0.05l0.304,0.049l0.304,0.048l0.305,0.047l0.304,0.046l0.306,0.046l0.305,0.044l0.612,0.086l0.306,0.041l0.307,0.041l0.614,0.078l0.616,0.074l0.308,0.036l0.308,0.035l0.309,0.034l0.618,0.064l0.31,0.031l0.31,0.03l0.31,0.029l0.311,0.029l0.311,0.027l0.311,0.026l0.311,0.025l0.624,0.048l0.312,0.022l0.313,0.021l0.312,0.021l0.313,0.019l0.313,0.018l0.314,0.018l0.628,0.032l0.315,0.014l0.314,0.014l0.316,0.012l0.315,0.012l0.315,0.01l0.316,0.01l0.632,0.016l0.634,0.012l0.317,0.004l0.318,0.004l0.317,0.002l0.318,0.002l0.636,0l0.318,-0.002l0.317,-0.002l0.318,-0.004l0.317,-0.004l0.317,-0.006l0.317,-0.006l0.316,-0.008l0.316,-0.008l0.316,-0.01l0.315,-0.01l0.315,-0.012l0.316,-0.012l0.314,-0.014l0.314,-0.014l0.315,-0.016l0.314,-0.016l0.314,-0.018l0.313,-0.018l0.313,-0.019l0.312,-0.021l0.313,-0.021l0.312,-0.022l0.312,-0.024l0.312,-0.024l0.311,-0.025l0.311,-0.026l0.311,-0.027l0.311,-0.029l0.31,-0.029l0.31,-0.03l0.31,-0.031l0.309,-0.032l0.309,-0.032l0.309,-0.034l0.308,-0.035l0.308,-0.036l0.308,-0.037l0.308,-0.037l0.307,-0.039l0.307,-0.039l0.307,-0.041l0.306,-0.041l0.306,-0.043l0.306,-0.043l0.305,-0.044l0.305,-0.046l0.305,-0.046l0.305,-0.047l0.304,-0.048l0.304,-0.049l0.303,-0.05l0.304,-0.05l0.303,-0.052l0.302,-0.053l0.302,-0.053l0.302,-0.055l0.302,-0.055l0.301,-0.057l0.301,-0.057l0.301,-0.058l0.3,-0.059l0.3,-0.06l0.3,-0.061l0.299,-0.062l0.299,-0.062l0.299,-0.064l0.298,-0.065l0.298,-0.065l0.298,-0.066l0.297,-0.068l0.297,-0.068l0.297,-0.069l0.296,-0.07l0.295,-0.07l0.296,-0.072l0.295,-0.073l0.295,-0.073l0.295,-0.075l0.294,-0.075l0.294,-0.076l0.293,-0.077l0.293,-0.078l0.293,-0.079l0.292,-0.08l0.292,-0.08l0.292,-0.081l0.291,-0.083l0.291,-0.083l0.29,-0.084l0.29,-0.085l0.29,-0.086l0.29,-0.086l0.289,-0.088l0.288,-0.088l0.289,-0.09l0.288,-0.09l0.287,-0.091l0.287,-0.091l0.287,-0.093l0.287,-0.094l0.285,-0.094l0.286,-0.095l0.286,-0.097l0.284,-0.096l0.285,-0.098l0.284,-0.099l0.283,-0.099l0.284,-0.101l0.282,-0.101l0.283,-0.102l0.282,-0.103l0.282,-0.104l0.281,-0.104l0.281,-0.106l0.28,-0.106l0.28,-0.107l0.28,-0.108l0.279,-0.108l0.279,-0.11l0.279,-0.11l0.277,-0.111l0.278,-0.112l0.277,-0.113l0.277,-0.114l0.276,-0.114l0.276,-0.116l0.275,-0.116l0.276,-0.117l0.274,-0.117l0.275,-0.119l0.273,-0.119l0.274,-0.121l0.272,-0.12l0.273,-0.122l0.272,-0.123l0.272,-0.123l0.271,-0.124l0.271,-0.125l0.27,-0.126l0.27,-0.127l0.269,-0.127l0.269,-0.128l0.269,-0.129l0.268,-0.13l0.267,-0.131l0.268,-0.131l0.266,-0.132l0.266,-0.133l0.266,-0.134l0.266,-0.134l0.265,-0.135l0.264,-0.136l0.264,-0.137l0.264,-0.138l0.263,-0.138l0.262,-0.139l0.262,-0.14l0.262,-0.141l0.261,-0.141l0.261,-0.142l0.26,-0.144l0.26,-0.143l0.259,-0.145l0.259,-0.145l0.258,-0.146l0.258,-0.147l0.258,-0.147l0.256,-0.149l0.257,-0.149l0.256,-0.15l0.255,-0.15l0.255,-0.152l0.255,-0.152l0.254,-0.152l0.253,-0.154l0.253,-0.154l0.252,-0.155l0.252,-0.156l0.252,-0.156l0.251,-0.158l0.25,-0.158l0.25,-0.159l0.249,-0.159l0.249,-0.16l0.249,-0.161l0.248,-0.162l0.247,-0.162l0.247,-0.163l0.247,-0.164l0.245,-0.164l0.245,-0.165l0.245,-0.167l0.245,-0.166l0.243,-0.168l0.244,-0.168l0.242,-0.169l0.243,-0.169l0.241,-0.171l0.241,-0.171l0.241,-0.171l0.24,-0.173l0.24,-0.173l0.238,-0.173l0.239,-0.175l0.238,-0.175l0.237,-0.176l0.237,-0.177l0.236,-0.177l0.236,-0.178l0.235,-0.179l0.235,-0.179l0.234,-0.18l0.233,-0.181l0.233,-0.181l0.233,-0.182l0.231,-0.183l0.232,-0.184l0.23,-0.184l0.23,-0.184l0.23,-0.186l0.229,-0.186l0.229,-0.187l0.227,-0.188l0.228,-0.188l0.227,-0.189l0.226,-0.189l0.225,-0.19l0.225,-0.191l0.225,-0.192l0.224,-0.192l0.223,-0.193l0.223,-0.193l0.222,-0.194l0.221,-0.195l0.221,-0.196l0.22,-0.196l0.22,-0.197l0.219,-0.197l0.219,-0.198l0.218,-0.199l0.217,-0.199l0.217,-0.2l0.216,-0.201l0.216,-0.201l0.215,-0.202l0.214,-0.203l0.214,-0.203l0.213,-0.204l0.212,-0.204l0.212,-0.205l0.212,-0.206l0.21,-0.206l0.211,-0.207l0.209,-0.208l0.209,-0.208l0.208,-0.209l0.207,-0.209l0.208,-0.211l0.206,-0.21l0.206,-0.211l0.205,-0.212l0.204,-0.213l0.204,-0.213l0.203,-0.214l0.203,-0.214l0.202,-0.215l0.201,-0.216l0.201,-0.216l0.2,-0.217l0.199,-0.217l0.199,-0.218l0.198,-0.219l0.197,-0.219l0.197,-0.219l0.196,-0.221l0.196,-0.221l0.195,-0.221l0.194,-0.222l0.193,-0.223l0.193,-0.223l0.192,-0.224l0.192,-0.225l0.191,-0.225l0.19,-0.225l0.189,-0.226l0.189,-0.227l0.188,-0.228l0.188,-0.227l0.187,-0.229l0.186,-0.229l0.185,-0.229l0.185,-0.23l0.184,-0.231l0.184,-0.232l0.183,-0.232l0.182,-0.232l0.181,-0.233l0.181,-0.233l0.18,-0.234l0.179,-0.235l0.179,-0.235l0.178,-0.236l0.177,-0.236l0.177,-0.237l0.176,-0.237l0.175,-0.238l0.175,-0.239l0.173,-0.238l0.173,-0.24l0.173,-0.24l0.171,-0.241l0.171,-0.241l0.171,-0.241l0.169,-0.243l0.169,-0.242l0.168,-0.243l0.168,-0.244l0.166,-0.245l0.166,-0.245l0.166,-0.245l0.164,-0.245l0.164,-0.247l0.163,-0.247l0.162,-0.247l0.162,-0.248l0.161,-0.249l0.16,-0.249l0.16,-0.249l0.158,-0.25l0.158,-0.25l0.158,-0.251l0.156,-0.252l0.156,-0.252l0.155,-0.252l0.154,-0.253l0.154,-0.254l0.153,-0.254l0.151,-0.254l0.152,-0.255l0.15,-0.255l0.15,-0.256l0.149,-0.257l0.149,-0.256l0.147,-0.258l0.147,-0.258l0.146,-0.258l0.145,-0.259l0.145,-0.259l0.144,-0.26l0.142,-0.26l0.143,-0.261l0.141,-0.261l0.141,-0.262l0.14,-0.262l0.139,-0.262l0.138,-0.263l0.138,-0.264l0.137,-0.264l0.136,-0.264l0.135,-0.265l0.134,-0.266l0.134,-0.265l0.133,-0.267l0.132,-0.267l0.131,-0.267l0.131,-0.267l0.13,-0.268l0.129,-0.269l0.128,-0.269l0.127,-0.269l0.127,-0.27l0.126,-0.27l0.125,-0.271l0.124,-0.271l0.123,-0.272l0.123,-0.272l0.122,-0.273l0.12,-0.272l0.121,-0.274l0.119,-0.274l0.119,-0.274l0.117,-0.274l0.117,-0.276l0.116,-0.275l0.116,-0.276l0.114,-0.276l0.114,-0.277l0.113,-0.277l0.112,-0.278l0.111,-0.277l0.11,-0.279l0.11,-0.279l0.108,-0.279l0.108,-0.28l0.107,-0.28l0.106,-0.28l0.106,-0.281l0.104,-0.281l0.104,-0.282l0.103,-0.282l0.102,-0.283l0.101,-0.282l0.101,-0.284l0.099,-0.283l0.099,-0.284l0.098,-0.285l0.096,-0.284l0.097,-0.286l0.095,-0.286l0.094,-0.285l0.094,-0.287l0.093,-0.287l0.091,-0.287l0.091,-0.287l0.09,-0.288l0.09,-0.289l0.088,-0.288l0.088,-0.289l0.086,-0.29l0.086,-0.29l0.085,-0.29l0.084,-0.29l0.083,-0.291l0.083,-0.291l0.081,-0.292l0.081,-0.292l0.079,-0.292l0.079,-0.293l0.078,-0.293l0.077,-0.293l0.076,-0.294l0.075,-0.294l0.075,-0.295l0.073,-0.294l0.073,-0.296l0.072,-0.295l0.07,-0.296l0.07,-0.296l0.069,-0.297l0.068,-0.297l0.068,-0.297l0.066,-0.298l0.065,-0.298l0.065,-0.298l0.064,-0.299l0.062,-0.299l0.062,-0.299l0.061,-0.3l0.06,-0.3l0.059,-0.3l0.058,-0.301l0.057,-0.301l0.057,-0.301l0.055,-0.302l0.055,-0.302l0.053,-0.302l0.053,-0.302l0.052,-0.303l0.05,-0.304l0.05,-0.303l0.049,-0.304l0.048,-0.304l0.047,-0.305l0.046,-0.305l0.046,-0.305l0.044,-0.305l0.043,-0.306l0.043,-0.306l0.041,-0.306l0.041,-0.307l0.039,-0.307l0.039,-0.307l0.037,-0.308l0.037,-0.308l0.036,-0.308l0.035,-0.308l0.034,-0.309l0.032,-0.309l0.032,-0.309l0.031,-0.31l0.03,-0.31l0.029,-0.31l0.029,-0.311l0.027,-0.311l0.026,-0.311l0.025,-0.311l0.024,-0.312l0.024,-0.312l0.022,-0.312l0.021,-0.312l0.021,-0.313l0.019,-0.313l0.018,-0.314l0.018,-0.313l0.016,-0.314l0.016,-0.314l0.014,-0.315l0.014,-0.315l0.012,-0.315l0.012,-0.315l0.01,-0.315l0.01,-0.316l0.008,-0.316l0.008,-0.316l0.006,-0.317l0.006,-0.317l0.004,-0.317l0.004,-0.317l0.002,-0.318l0.002,-0.318l0,-0.318l0,-0.318l-0.002,-0.318l-0.002,-0.318l-0.004,-0.317l-0.004,-0.317l-0.006,-0.317l-0.006,-0.317l-0.008,-0.316l-0.008,-0.316l-0.01,-0.316l-0.01,-0.315l-0.012,-0.315l-0.012,-0.315l-0.014,-0.315l-0.014,-0.315l-0.016,-0.314l-0.016,-0.314l-0.018,-0.313l-0.018,-0.314l-0.019,-0.313l-0.021,-0.313l-0.021,-0.312l-0.022,-0.312l-0.024,-0.312l-0.024,-0.312l-0.025,-0.311l-0.026,-0.311l-0.027,-0.311l-0.029,-0.311l-0.029,-0.31l-0.03,-0.31l-0.031,-0.31l-0.032,-0.309l-0.032,-0.309l-0.034,-0.309l-0.035,-0.308l-0.036,-0.308l-0.037,-0.308l-0.037,-0.308l-0.039,-0.307l-0.039,-0.307l-0.041,-0.307l-0.041,-0.306l-0.043,-0.306l-0.043,-0.306l-0.044,-0.305l-0.046,-0.305l-0.046,-0.305l-0.047,-0.305l-0.048,-0.304l-0.049,-0.304l-0.05,-0.303l-0.05,-0.304l-0.052,-0.303l-0.053,-0.302l-0.053,-0.302l-0.055,-0.302l-0.055,-0.302l-0.057,-0.301l-0.057,-0.301l-0.058,-0.301l-0.059,-0.3l-0.06,-0.3l-0.061,-0.3l-0.062,-0.299l-0.062,-0.299l-0.064,-0.299l-0.065,-0.298l-0.065,-0.298l-0.066,-0.298l-0.068,-0.297l-0.068,-0.297l-0.069,-0.297l-0.07,-0.296l-0.07,-0.295l-0.072,-0.296l-0.073,-0.296l-0.073,-0.294l-0.075,-0.295l-0.075,-0.294l-0.076,-0.294l-0.077,-0.293l-0.078,-0.293l-0.079,-0.293l-0.079,-0.292l-0.081,-0.292l-0.081,-0.292l-0.083,-0.291l-0.083,-0.291l-0.084,-0.29l-0.085,-0.29l-0.086,-0.29l-0.086,-0.29l-0.088,-0.289l-0.088,-0.288l-0.09,-0.289l-0.09,-0.288l-0.091,-0.287l-0.091,-0.287l-0.093,-0.287l-0.094,-0.287l-0.094,-0.285l-0.095,-0.286l-0.097,-0.286l-0.096,-0.284l-0.098,-0.285l-0.099,-0.284l-0.099,-0.283l-0.101,-0.284l-0.101,-0.282l-0.102,-0.283l-0.103,-0.282l-0.104,-0.282l-0.104,-0.281l-0.106,-0.281l-0.106,-0.28l-0.107,-0.28l-0.108,-0.28l-0.108,-0.279l-0.11,-0.279l-0.11,-0.279l-0.111,-0.277l-0.112,-0.278l-0.113,-0.277l-0.114,-0.277l-0.114,-0.276l-0.116,-0.276l-0.116,-0.275l-0.117,-0.276l-0.117,-0.274l-0.119,-0.274l-0.119,-0.274l-0.121,-0.274l-0.12,-0.272l-0.122,-0.273l-0.123,-0.272l-0.123,-0.272l-0.124,-0.271l-0.125,-0.271l-0.126,-0.27l-0.127,-0.27l-0.127,-0.269l-0.128,-0.269l-0.129,-0.269l-0.13,-0.268l-0.131,-0.267l-0.131,-0.267l-0.132,-0.267l-0.133,-0.267l-0.134,-0.265l-0.134,-0.266l-0.135,-0.265l-0.136,-0.264l-0.137,-0.264l-0.138,-0.264l-0.138,-0.263l-0.139,-0.262l-0.14,-0.262l-0.141,-0.262l-0.141,-0.261l-0.143,-0.261l-0.142,-0.26l-0.144,-0.26l-0.145,-0.259l-0.145,-0.259l-0.146,-0.258l-0.147,-0.258l-0.147,-0.258l-0.149,-0.256l-0.149,-0.257l-0.15,-0.256l-0.15,-0.255l-0.152,-0.255l-0.151,-0.254l-0.153,-0.254l-0.154,-0.254l-0.154,-0.253l-0.155,-0.252l-0.156,-0.253l-0.156,-0.251l-0.158,-0.25l-0.158,-0.251l-0.158,-0.25l-0.16,-0.25l-0.16,-0.248l-0.161,-0.249l-0.162,-0.248l-0.162,-0.247l-0.163,-0.247l-0.164,-0.246l-0.164,-0.246l-0.166,-0.245l-0.166,-0.245l-0.166,-0.245l-0.168,-0.243l-0.168,-0.244l-0.169,-0.242l-0.169,-0.243l-0.171,-0.241l-0.171,-0.241l-0.171,-0.241l-0.173,-0.24l-0.173,-0.239l-0.174,-0.239l-0.174,-0.239l-0.175,-0.238l-0.176,-0.237l-0.177,-0.237l-0.177,-0.236l-0.178,-0.236l-0.179,-0.235l-0.179,-0.235l-0.18,-0.234l-0.181,-0.233l-0.181,-0.233l-0.182,-0.232l-0.183,-0.232l-0.184,-0.232l-0.184,-0.23l-0.185,-0.231l-0.185,-0.229l-0.186,-0.229l-0.187,-0.229l-0.188,-0.227l-0.188,-0.228l-0.189,-0.227l-0.189,-0.226l-0.19,-0.225l-0.191,-0.225l-0.192,-0.225l-0.192,-0.224l-0.193,-0.223l-0.193,-0.223l-0.194,-0.222l-0.195,-0.221l-0.196,-0.221l-0.196,-0.22l-0.197,-0.22l-0.197,-0.219l-0.198,-0.219l-0.199,-0.218l-0.199,-0.217l-0.2,-0.217l-0.201,-0.216l-0.201,-0.216l-0.202,-0.215l-0.203,-0.214l-0.203,-0.214l-0.204,-0.213l-0.204,-0.213l-0.205,-0.211l-0.206,-0.212l-0.206,-0.211l-0.207,-0.21l-0.208,-0.209l-0.208,-0.209l-0.209,-0.208l-0.21,-0.208l-0.21,-0.207l-0.21,-0.206l-0.212,-0.206l-0.212,-0.205l-0.212,-0.204l-0.213,-0.204l-0.214,-0.203l-0.214,-0.203l-0.215,-0.202l-0.216,-0.201l-0.216,-0.201l-0.217,-0.2l-0.217,-0.199l-0.218,-0.199l-0.219,-0.198l-0.219,-0.197l-0.22,-0.197l-0.22,-0.196l-0.221,-0.196l-0.221,-0.194l-0.222,-0.195l-0.223,-0.193l-0.223,-0.193l-0.224,-0.192l-0.225,-0.192l-0.225,-0.191l-0.225,-0.19l-0.226,-0.189l-0.227,-0.189l-0.228,-0.188l-0.227,-0.188l-0.229,-0.187l-0.229,-0.186l-0.23,-0.186l-0.23,-0.184l-0.23,-0.184l-0.232,-0.184l-0.231,-0.183l-0.233,-0.182l-0.233,-0.181l-0.233,-0.181l-0.234,-0.18l-0.235,-0.179l-0.235,-0.179l-0.236,-0.178l-0.236,-0.177l-0.237,-0.177l-0.237,-0.176l-0.238,-0.175l-0.239,-0.175l-0.238,-0.173l-0.24,-0.173l-0.24,-0.173l-0.241,-0.171l-0.241,-0.171l-0.241,-0.171l-0.243,-0.169l-0.242,-0.169l-0.243,-0.168l-0.244,-0.168l-0.245,-0.166l-0.244,-0.166l-0.246,-0.166l-0.246,-0.164l-0.246,-0.164l-0.247,-0.163l-0.247,-0.162l-0.248,-0.162l-0.249,-0.161l-0.249,-0.16l-0.249,-0.16l-0.25,-0.158l-0.25,-0.158l-0.251,-0.158l-0.252,-0.156l-0.252,-0.156l-0.252,-0.155l-0.253,-0.154l-0.254,-0.154l-0.254,-0.153l-0.254,-0.152l-0.255,-0.151l-0.255,-0.15l-0.256,-0.15l-0.257,-0.149l-0.257,-0.149l-0.257,-0.147l-0.258,-0.147l-0.258,-0.146l-0.259,-0.145l-0.259,-0.145l-0.26,-0.143l-0.26,-0.144l-0.261,-0.142l-0.261,-0.141l-0.262,-0.141l-0.262,-0.14l-0.262,-0.139l-0.263,-0.138l-0.264,-0.138l-0.264,-0.137l-0.264,-0.136l-0.265,-0.135l-0.266,-0.134l-0.266,-0.134l-0.266,-0.133l-0.267,-0.132l-0.267,-0.131l-0.267,-0.131l-0.268,-0.13l-0.269,-0.129l-0.269,-0.128l-0.269,-0.127l-0.27,-0.127l-0.27,-0.126l-0.271,-0.125l-0.271,-0.124l-0.272,-0.123l-0.272,-0.123l-0.272,-0.122l-0.273,-0.12l-0.274,-0.121l-0.274,-0.119l-0.274,-0.119l-0.274,-0.117l-0.275,-0.117l-0.276,-0.116l-0.276,-0.116l-0.276,-0.114l-0.277,-0.114l-0.277,-0.113l-0.278,-0.112l-0.278,-0.111l-0.278,-0.11l-0.279,-0.11l-0.279,-0.108l-0.28,-0.108l-0.28,-0.107l-0.28,-0.107l-0.281,-0.105l-0.281,-0.104l-0.282,-0.104l-0.282,-0.103l-0.283,-0.102l-0.282,-0.101l-0.284,-0.101l-0.283,-0.099l-0.284,-0.099l-0.285,-0.098l-0.285,-0.097l-0.285,-0.096l-0.285,-0.095l-0.286,-0.094l-0.287,-0.094l-0.287,-0.093l-0.287,-0.091l-0.287,-0.091l-0.288,-0.09l-0.289,-0.09l-0.288,-0.088l-0.289,-0.088l-0.289,-0.086l-0.29,-0.086l-0.291,-0.085l-0.29,-0.084l-0.291,-0.083l-0.291,-0.083l-0.292,-0.081l-0.292,-0.081l-0.292,-0.079l-0.293,-0.079l-0.293,-0.078l-0.293,-0.077l-0.294,-0.076l-0.294,-0.075l-0.295,-0.075l-0.295,-0.073l-0.295,-0.073l-0.295,-0.072l-0.296,-0.07l-0.297,-0.07l-0.296,-0.069l-0.297,-0.068l-0.297,-0.068l-0.298,-0.066l-0.298,-0.065l-0.298,-0.065l-0.299,-0.064l-0.299,-0.062l-0.299,-0.062l-0.3,-0.061l-0.3,-0.06l-0.3,-0.059l-0.301,-0.058l-0.301,-0.057l-0.301,-0.057l-0.302,-0.055l-0.302,-0.055l-0.302,-0.053l-0.302,-0.053l-0.303,-0.052l-0.304,-0.05l-0.303,-0.05l-0.304,-0.049l-0.304,-0.048l-0.305,-0.047l-0.304,-0.046l-0.306,-0.046l-0.305,-0.044l-0.306,-0.043l-0.306,-0.043l-0.306,-0.041l-0.307,-0.041l-0.307,-0.039l-0.307,-0.039l-0.308,-0.037l-0.308,-0.037l-0.308,-0.036l-0.308,-0.035l-0.309,-0.034l-0.309,-0.032l-0.309,-0.032l-0.31,-0.031l-0.31,-0.03l-0.31,-0.03l-0.311,-0.028l-0.311,-0.027l-0.311,-0.026l-0.311,-0.025l-0.312,-0.024l-0.312,-0.024l-0.312,-0.022l-0.312,-0.021l-0.313,-0.021l-0.313,-0.019l-0.314,-0.018l-0.313,-0.018l-0.314,-0.016l-0.314,-0.016l-0.315,-0.014l-0.315,-0.014l-0.314,-0.012l-0.316,-0.012l-0.315,-0.01l-0.316,-0.01l-0.316,-0.008l-0.316,-0.008l-0.317,-0.006l-0.317,-0.006l-0.317,-0.004l-0.317,-0.004l-0.318,-0.002l-0.318,-0.002l-0.318,0l-0.318,0Z"/><g><path d="M65.893,110.783c0.975,0.49 1.873,1.308 2.693,2.456c0.821,1.147 1.437,2.578 1.849,4.292c0.412,1.714 0.475,3.644 0.187,5.79c-0.287,2.147 -0.994,4.372 -2.121,6.675c-2.395,4.898 -5.675,8.013 -9.84,9.346c-4.165,1.332 -8.619,0.808 -13.361,-1.573c-3.213,-1.614 -5.745,-3.669 -7.597,-6.166c-1.851,-2.497 -2.868,-5.274 -3.052,-8.332c-0.184,-3.058 0.534,-6.243 2.153,-9.553c1.003,-2.052 2.221,-3.786 3.651,-5.201c1.431,-1.416 2.906,-2.484 4.425,-3.204c1.519,-0.72 2.964,-1.128 4.333,-1.224c1.369,-0.096 2.512,0.086 3.43,0.547c0.937,0.47 1.558,1.222 1.862,2.255c0.305,1.033 0.211,2.053 -0.281,3.06c-0.322,0.658 -0.757,1.121 -1.305,1.388c-0.547,0.268 -1.326,0.485 -2.337,0.653c-1.927,0.238 -3.512,0.702 -4.754,1.393c-1.243,0.69 -2.262,1.848 -3.057,3.474c-1.146,2.342 -1.165,4.684 -0.059,7.024c1.107,2.339 3.228,4.297 6.364,5.872c1.472,0.739 2.915,1.234 4.329,1.486c1.413,0.252 2.725,0.247 3.936,-0.013c1.211,-0.26 2.282,-0.771 3.215,-1.532c0.932,-0.762 1.687,-1.733 2.264,-2.914c0.777,-1.587 1.078,-3.13 0.906,-4.627c-0.173,-1.498 -0.792,-3.056 -1.858,-4.676c-0.643,-0.926 -1.076,-1.794 -1.298,-2.605c-0.223,-0.812 -0.135,-1.624 0.262,-2.437c0.474,-0.968 1.23,-1.589 2.269,-1.863c1.039,-0.273 1.97,-0.204 2.792,0.209Z" style="fill-rule:nonzero;"/><path d="M92.829,89.54l-0.8,-0.793c0.208,1.688 0.225,3.265 0.053,4.728c-0.172,1.463 -0.584,2.841 -1.234,4.133c-0.65,1.292 -1.592,2.568 -2.825,3.827c-1.49,1.519 -3.137,2.572 -4.942,3.158c-1.806,0.585 -3.58,0.664 -5.324,0.237c-2.093,-0.532 -4.381,-2.029 -6.864,-4.491l-12.364,-12.259c-1.249,-1.239 -1.904,-2.448 -1.965,-3.628c-0.06,-1.18 0.368,-2.238 1.286,-3.174c0.932,-0.952 1.997,-1.41 3.193,-1.374c1.196,0.036 2.411,0.666 3.645,1.89l9.988,9.902c1.447,1.435 2.782,2.517 4.006,3.246c1.223,0.729 2.425,1.05 3.605,0.965c1.181,-0.086 2.305,-0.674 3.373,-1.764c1.037,-1.059 1.703,-2.366 1.996,-3.922c0.293,-1.556 0.147,-3.047 -0.438,-4.474c-0.537,-1.229 -2.299,-3.324 -5.286,-6.285l-7.587,-7.523c-1.234,-1.224 -1.878,-2.437 -1.931,-3.64c-0.053,-1.202 0.379,-2.272 1.297,-3.208c0.917,-0.937 1.963,-1.383 3.136,-1.339c1.174,0.044 2.385,0.685 3.635,1.924l18.077,17.924c1.189,1.178 1.813,2.334 1.873,3.469c0.06,1.134 -0.331,2.131 -1.173,2.99c-0.842,0.86 -1.847,1.264 -3.013,1.212c-1.166,-0.051 -2.305,-0.628 -3.417,-1.731Z" style="fill-rule:nonzero;"/><path d="M92.457,52.076l0.833,-0.491l-2.679,-4.553c-0.718,-1.221 -1.249,-2.198 -1.593,-2.93c-0.343,-0.732 -0.514,-1.436 -0.512,-2.11c-0.009,-0.692 0.169,-1.364 0.534,-2.014c0.364,-0.651 0.889,-1.178 1.574,-1.581c0.962,-0.566 2.044,-0.718 3.246,-0.453c0.801,0.176 1.475,0.57 2.022,1.183c0.547,0.612 1.197,1.557 1.948,2.834l3.038,5.164l2.775,-1.635c1.074,-0.631 2.042,-0.859 2.906,-0.682c0.864,0.177 1.53,0.663 1.998,1.459c0.599,1.018 0.616,1.967 0.05,2.848c-0.565,0.881 -1.598,1.763 -3.096,2.645l-1.416,0.834l8.198,13.936c0.697,1.185 1.275,2.072 1.734,2.661c0.459,0.59 0.986,0.977 1.581,1.163c0.595,0.185 1.299,0.039 2.114,-0.441c0.444,-0.261 0.999,-0.694 1.665,-1.298c0.666,-0.604 1.212,-1.031 1.638,-1.282c0.61,-0.359 1.305,-0.438 2.084,-0.236c0.779,0.202 1.381,0.664 1.805,1.385c0.719,1.222 0.603,2.549 -0.349,3.981c-0.951,1.432 -2.676,2.883 -5.174,4.354c-2.369,1.394 -4.398,2.053 -6.087,1.976c-1.69,-0.077 -3.138,-0.707 -4.345,-1.89c-1.207,-1.183 -2.501,-2.95 -3.884,-5.301l-8.558,-14.547l-0.999,0.588c-1.092,0.643 -2.077,0.874 -2.956,0.693c-0.878,-0.18 -1.551,-0.669 -2.02,-1.465c-0.468,-0.795 -0.551,-1.625 -0.249,-2.488c0.302,-0.863 1.027,-1.632 2.174,-2.307Z" style="fill-rule:nonzero;"/><path d="M127.132,39.552l9.409,23.601c0.652,1.636 0.756,3.026 0.311,4.171c-0.446,1.146 -1.267,1.955 -2.466,2.428c-1.199,0.474 -2.343,0.43 -3.434,-0.132c-1.091,-0.561 -1.955,-1.64 -2.591,-3.235l-9.313,-23.363c-0.644,-1.615 -0.755,-2.979 -0.332,-4.093c0.423,-1.113 1.234,-1.907 2.433,-2.38c1.198,-0.474 2.35,-0.456 3.455,0.054c1.105,0.51 1.948,1.493 2.528,2.949Zm-7.408,-6.838c-1.138,0.45 -2.251,0.486 -3.339,0.107c-1.087,-0.378 -1.885,-1.206 -2.394,-2.482c-0.461,-1.156 -0.426,-2.272 0.105,-3.348c0.531,-1.075 1.345,-1.83 2.444,-2.264c1.059,-0.418 2.133,-0.45 3.222,-0.095c1.09,0.354 1.893,1.18 2.409,2.476c0.501,1.256 0.493,2.396 -0.024,3.42c-0.516,1.023 -1.324,1.752 -2.423,2.186Z" style="fill-rule:nonzero;"/><path d="M168.914,45.518l-17.041,2.515c0.327,1.967 0.996,3.646 2.006,5.035c1.011,1.39 2.219,2.371 3.624,2.944c1.406,0.573 2.885,0.745 4.438,0.516c1.043,-0.154 1.976,-0.416 2.8,-0.787c0.823,-0.371 1.599,-0.876 2.327,-1.514c0.728,-0.639 1.386,-1.305 1.975,-1.998c0.588,-0.694 1.346,-1.629 2.273,-2.807c0.387,-0.447 0.996,-0.732 1.826,-0.854c0.893,-0.132 1.655,0.005 2.283,0.411c0.629,0.405 1.013,1.053 1.151,1.943c0.122,0.784 -0.044,1.746 -0.498,2.886c-0.454,1.139 -1.229,2.283 -2.323,3.431c-1.095,1.148 -2.535,2.178 -4.319,3.092c-1.784,0.913 -3.899,1.55 -6.346,1.912c-5.595,0.825 -10.193,-0.122 -13.792,-2.842c-3.6,-2.719 -5.823,-6.802 -6.669,-12.247c-0.399,-2.564 -0.385,-4.999 0.04,-7.305c0.425,-2.306 1.25,-4.351 2.474,-6.136c1.225,-1.784 2.846,-3.253 4.865,-4.407c2.019,-1.154 4.336,-1.924 6.953,-2.311c3.404,-0.502 6.435,-0.218 9.093,0.853c2.659,1.071 4.77,2.65 6.335,4.738c1.565,2.088 2.53,4.308 2.895,6.66c0.339,2.183 -0.068,3.689 -1.223,4.521c-1.155,0.831 -2.871,1.415 -5.147,1.751Zm-17.806,-2.411l15.796,-2.332c-0.674,-2.934 -1.822,-5.035 -3.444,-6.302c-1.622,-1.267 -3.571,-1.733 -5.848,-1.397c-2.17,0.321 -3.836,1.33 -4.997,3.03c-1.161,1.699 -1.664,4.033 -1.507,7.001Z" style="fill-rule:nonzero;"/><path d="M236.139,61.369c-0.311,1.043 -0.957,2.061 -1.939,3.053c-0.983,0.991 -2.278,1.825 -3.887,2.499c-1.61,0.675 -3.492,1.036 -5.647,1.083c-2.155,0.048 -4.46,-0.309 -6.916,-1.069c-5.221,-1.617 -8.848,-4.389 -10.88,-8.314c-2.033,-3.926 -2.295,-8.426 -0.786,-13.5c1.022,-3.437 2.596,-6.268 4.723,-8.492c2.126,-2.224 4.673,-3.664 7.64,-4.32c2.967,-0.656 6.215,-0.438 9.743,0.655c2.188,0.678 4.1,1.617 5.738,2.817c1.638,1.2 2.942,2.497 3.913,3.893c0.971,1.396 1.623,2.765 1.956,4.108c0.333,1.344 0.353,2.506 0.061,3.488c-0.298,1.003 -0.927,1.735 -1.887,2.198c-0.96,0.462 -1.977,0.527 -3.05,0.195c-0.702,-0.218 -1.231,-0.577 -1.589,-1.079c-0.358,-0.502 -0.707,-1.241 -1.048,-2.218c-0.569,-1.875 -1.3,-3.375 -2.194,-4.501c-0.893,-1.126 -2.207,-1.957 -3.94,-2.494c-2.497,-0.773 -4.796,-0.43 -6.898,1.031c-2.102,1.46 -3.652,3.868 -4.65,7.223c-0.469,1.576 -0.703,3.084 -0.704,4.525c0,1.441 0.233,2.743 0.699,3.904c0.466,1.161 1.154,2.145 2.063,2.951c0.909,0.807 1.994,1.406 3.252,1.795c1.692,0.525 3.258,0.585 4.696,0.181c1.439,-0.403 2.859,-1.259 4.263,-2.567c0.795,-0.782 1.572,-1.346 2.328,-1.692c0.757,-0.347 1.568,-0.386 2.435,-0.118c1.032,0.32 1.773,0.974 2.222,1.962c0.45,0.989 0.544,1.923 0.283,2.803Z" style="fill-rule:nonzero;"/><path d="M240.725,70.816l18.427,-33.028c0.851,-1.524 1.837,-2.481 2.96,-2.871c1.122,-0.389 2.266,-0.25 3.431,0.416c1.166,0.665 1.891,1.588 2.175,2.768c0.284,1.18 -0.005,2.541 -0.866,4.085l-18.426,33.027c-0.862,1.544 -1.869,2.495 -3.024,2.853c-1.155,0.358 -2.305,0.21 -3.452,-0.445c-1.129,-0.644 -1.822,-1.568 -2.081,-2.77c-0.259,-1.202 0.026,-2.548 0.856,-4.035Z" style="fill-rule:nonzero;"/><path d="M274.224,96.522l0.758,-0.819c-1.67,0.24 -3.236,0.286 -4.697,0.139c-1.461,-0.147 -2.846,-0.535 -4.155,-1.166c-1.308,-0.63 -2.611,-1.554 -3.909,-2.772c-1.566,-1.469 -2.674,-3.107 -3.324,-4.911c-0.65,-1.805 -0.796,-3.588 -0.436,-5.349c0.449,-2.113 1.851,-4.441 4.205,-6.982l11.719,-12.653c1.185,-1.279 2.362,-1.959 3.532,-2.041c1.17,-0.083 2.238,0.329 3.203,1.235c0.981,0.92 1.476,1.982 1.486,3.185c0.009,1.204 -0.572,2.437 -1.741,3.7l-9.467,10.221c-1.372,1.481 -2.397,2.843 -3.075,4.086c-0.679,1.243 -0.953,2.458 -0.823,3.643c0.129,1.185 0.756,2.305 1.879,3.359c1.092,1.024 2.416,1.669 3.973,1.936c1.558,0.266 3.034,0.092 4.431,-0.521c1.201,-0.563 3.217,-2.372 6.048,-5.428l7.192,-7.765c1.17,-1.263 2.351,-1.932 3.544,-2.007c1.194,-0.076 2.273,0.34 3.238,1.245c0.965,0.906 1.448,1.949 1.449,3.13c0,1.181 -0.591,2.41 -1.776,3.689l-17.135,18.5c-1.126,1.216 -2.252,1.865 -3.377,1.946c-1.125,0.081 -2.13,-0.294 -3.016,-1.126c-0.886,-0.831 -1.326,-1.833 -1.318,-3.007c0.007,-1.173 0.538,-2.329 1.592,-3.467Z" style="fill-rule:nonzero;"/><path d="M324.751,100.222l-11.771,6.148c2.281,0.695 4.224,1.603 5.829,2.725c1.606,1.122 3.002,2.818 4.191,5.089c1.369,2.617 1.963,5.228 1.781,7.834c-0.181,2.607 -1.141,5.055 -2.877,7.347c-1.737,2.291 -4.186,4.262 -7.347,5.913c-2.334,1.219 -4.633,2.034 -6.898,2.445c-2.265,0.411 -4.415,0.413 -6.45,0.005c-2.034,-0.408 -3.872,-1.23 -5.514,-2.467c-1.642,-1.238 -2.982,-2.847 -4.019,-4.829c-0.634,-1.213 -1.09,-2.426 -1.366,-3.642c-0.277,-1.215 -0.381,-2.318 -0.313,-3.31c0.069,-0.991 0.209,-1.879 0.422,-2.664c0.212,-0.784 0.581,-1.865 1.106,-3.242l-0.762,0.398c-1.449,0.757 -2.731,0.973 -3.847,0.649c-1.116,-0.323 -1.961,-1.034 -2.535,-2.13c-0.584,-1.116 -0.678,-2.201 -0.282,-3.253c0.396,-1.052 1.318,-1.956 2.767,-2.713l33.65,-17.573c1.562,-0.816 2.911,-1.11 4.049,-0.883c1.137,0.227 2.007,0.917 2.612,2.072c0.634,1.212 0.741,2.345 0.321,3.397c-0.419,1.052 -1.335,1.947 -2.747,2.684Zm-22.697,12.331c-3.068,1.602 -5.05,3.55 -5.946,5.844c-0.897,2.293 -0.736,4.604 0.482,6.932c1.038,1.982 2.773,3.25 5.208,3.804c2.434,0.554 5.223,0.01 8.366,-1.631c2.033,-1.061 3.627,-2.274 4.782,-3.637c1.156,-1.363 1.847,-2.802 2.073,-4.316c0.226,-1.515 -0.044,-3.003 -0.809,-4.466c-0.786,-1.501 -1.885,-2.629 -3.299,-3.385c-1.415,-0.756 -3.055,-1.075 -4.923,-0.958c-1.867,0.118 -3.845,0.722 -5.934,1.813Z" style="fill-rule:nonzero;"/></g></g><g><g><path d="M139.008,157.544c12.697,-7.33 28.957,-2.974 36.287,9.723c7.331,12.697 2.974,28.957 -9.723,36.287c-12.697,7.331 -28.956,2.974 -36.287,-9.723c-7.33,-12.697 -2.974,-28.956 9.723,-36.287Z" style="stroke:#000;stroke-width:9px;"/><path d="M180.041,228.615l-41.033,-25.061l39.732,-23.435l1.301,48.496Z" style="stroke:#000;stroke-width:9px;"/></g><g><path d="M221.074,157.544c-12.697,-7.33 -28.957,-2.974 -36.287,9.723c-7.331,12.697 -2.974,28.957 9.723,36.287c12.697,7.331 28.956,2.974 36.287,-9.723c7.33,-12.697 2.974,-28.956 -9.723,-36.287Z" style="stroke:#000;stroke-width:9px;"/><path d="M180.041,228.615l41.033,-25.061l-39.732,-23.435l-1.301,48.496Z" style="stroke:#000;stroke-width:9px;"/></g></g></g></svg>